ChocolateClassicalSans-Regular.ufo
<glyph name="quotedbl" format="2">
  <advance width="474" height="1000"/>
  <unicode hex="0022"/>
  <outline>
    <contour>
      <point x="307" y="483" type="line"/>
      <point x="362" y="483" type="line"/>
      <point x="381" y="669" type="line"/>
      <point x="383" y="771" type="line"/>
      <point x="286" y="771" type="line"/>
      <point x="288" y="669" type="line"/>
    </contour>
    <contour>
      <point x="110" y="483" type="line"/>
      <point x="167" y="483" type="line"/>
      <point x="184" y="669" type="line"/>
      <point x="186" y="771" type="line"/>
      <point x="90" y="771" type="line"/>
      <point x="92" y="669" type="line"/>
    </contour>
  </outline>
</glyph>
<glyph name="numbersign" format="2">
  <advance width="555" height="1000"/>
  <unicode hex="0023"/>
  <outline>
    <contour>
      <point x="101" y="0" type="line"/>
      <point x="160" y="0" type="line"/>
      <point x="188" y="229" type="line"/>
      <point x="336" y="229" type="line"/>
      <point x="309" y="0" type="line"/>
      <point x="369" y="0" type="line"/>
      <point x="396" y="229" type="line"/>
      <point x="500" y="229" type="line"/>
      <point x="500" y="292" type="line"/>
      <point x="404" y="292" type="line"/>
      <point x="425" y="458" type="line"/>
      <point x="522" y="458" type="line"/>
      <point x="522" y="521" type="line"/>
      <point x="432" y="521" type="line"/>
      <point x="458" y="726" type="line"/>
      <point x="398" y="726" type="line"/>
      <point x="372" y="521" type="line"/>
      <point x="223" y="521" type="line"/>
      <point x="249" y="726" type="line"/>
      <point x="190" y="726" type="line"/>
      <point x="164" y="521" type="line"/>
      <point x="62" y="521" type="line"/>
      <point x="62" y="458" type="line"/>
      <point x="157" y="458" type="line"/>
      <point x="136" y="292" type="line"/>
      <point x="40" y="292" type="line"/>
      <point x="40" y="229" type="line"/>
      <point x="128" y="229" type="line"/>
    </contour>
    <contour>
      <point x="195" y="292" type="line"/>
      <point x="216" y="458" type="line"/>
      <point x="365" y="458" type="line"/>
      <point x="344" y="292" type="line"/>
    </contour>
  </outline>
</glyph>
<glyph name="dollar" format="2">
  <advance width="555" height="1000"/>
  <unicode hex="0024"/>
  <outline>
    <contour>
      <point x="249" y="-123" type="line"/>
      <point x="315" y="-123" type="line"/>
      <point x="315" y="-10" type="line"/>
      <point x="421" y="5"/>
      <point x="488" y="78"/>
      <point x="488" y="184" type="curve"/>
      <point x="488" y="424"/>
      <point x="175" y="379"/>
      <point x="175" y="542" type="curve"/>
      <point x="175" y="607"/>
      <point x="219" y="650"/>
      <point x="288" y="650" type="curve"/>
      <point x="349" y="650"/>
      <point x="383" y="627"/>
      <point x="424" y="587" type="curve"/>
      <point x="473" y="641" type="line"/>
      <point x="432" y="683"/>
      <point x="386" y="717"/>
      <point x="315" y="724" type="curve"/>
      <point x="315" y="836" type="line"/>
      <point x="249" y="836" type="line"/>
      <point x="249" y="723" type="line"/>
      <point x="152" y="709"/>
      <point x="87" y="638"/>
      <point x="87" y="537" type="curve"/>
      <point x="87" y="320"/>
      <point x="399" y="360"/>
      <point x="399" y="178" type="curve"/>
      <point x="399" y="108"/>
      <point x="356" y="63"/>
      <point x="273" y="63" type="curve"/>
      <point x="205" y="63"/>
      <point x="148" y="96"/>
      <point x="101" y="137" type="curve"/>
      <point x="58" y="74" type="line"/>
      <point x="105" y="30"/>
      <point x="177" y="-5"/>
      <point x="249" y="-12" type="curve"/>
    </contour>
  </outline>
</glyph>
<glyph name="percent" format="2">
  <advance width="921" height="1000"/>
  <unicode hex="0025"/>
  <outline>
    <contour>
      <point x="205" y="284" type="curve"/>
      <point x="306" y="284"/>
      <point x="372" y="369"/>
      <point x="372" y="517" type="curve"/>
      <point x="372" y="663"/>
      <point x="306" y="746"/>
      <point x="205" y="746" type="curve"/>
      <point x="105" y="746"/>
      <point x="39" y="663"/>
      <point x="39" y="517" type="curve"/>
      <point x="39" y="369"/>
      <point x="105" y="284"/>
    </contour>
    <contour>
      <point x="205" y="340" type="curve"/>
      <point x="147" y="340"/>
      <point x="108" y="400"/>
      <point x="108" y="517" type="curve"/>
      <point x="108" y="634"/>
      <point x="147" y="690"/>
      <point x="205" y="690" type="curve"/>
      <point x="263" y="690"/>
      <point x="302" y="634"/>
      <point x="302" y="517" type="curve"/>
      <point x="302" y="400"/>
      <point x="263" y="340"/>
    </contour>
    <contour>
      <point x="226" y="-13" type="line"/>
      <point x="288" y="-13" type="line"/>
      <point x="693" y="746" type="line"/>
      <point x="631" y="746" type="line"/>
    </contour>
    <contour>
      <point x="716" y="-13" type="curve"/>
      <point x="816" y="-13"/>
      <point x="882" y="71"/>
      <point x="882" y="219" type="curve"/>
      <point x="882" y="366"/>
      <point x="816" y="449"/>
      <point x="716" y="449" type="curve"/>
      <point x="616" y="449"/>
      <point x="550" y="366"/>
      <point x="550" y="219" type="curve"/>
      <point x="550" y="71"/>
      <point x="616" y="-13"/>
    </contour>
    <contour>
      <point x="716" y="43" type="curve"/>
      <point x="658" y="43"/>
      <point x="618" y="102"/>
      <point x="618" y="219" type="curve"/>
      <point x="618" y="336"/>
      <point x="658" y="393"/>
      <point x="716" y="393" type="curve"/>
      <point x="773" y="393"/>
      <point x="814" y="336"/>
      <point x="814" y="219" type="curve"/>
      <point x="814" y="102"/>
      <point x="773" y="43"/>
    </contour>
  </outline>
</glyph>
<glyph name="quotesingle" format="2">
  <advance width="278" height="1000"/>
  <unicode hex="0027"/>
  <outline>
    <contour>
      <point x="110" y="483" type="line"/>
      <point x="167" y="483" type="line"/>
      <point x="184" y="669" type="line"/>
      <point x="186" y="771" type="line"/>
      <point x="90" y="771" type="line"/>
      <point x="92" y="669" type="line"/>
    </contour>
  </outline>
</glyph>
<glyph name="parenright" format="2">
  <advance width="338" height="1000"/>
  <unicode hex="0029"/>
  <outline>
    <contour>
      <point x="99" y="-196" type="line"/>
      <point x="191" y="-47"/>
      <point x="246" y="114"/>
      <point x="246" y="311" type="curve"/>
      <point x="246" y="507"/>
      <point x="191" y="668"/>
      <point x="99" y="818" type="curve"/>
      <point x="42" y="792" type="line"/>
      <point x="128" y="649"/>
      <point x="171" y="480"/>
      <point x="171" y="311" type="curve"/>
      <point x="171" y="141"/>
      <point x="128" y="-29"/>
      <point x="42" y="-171" type="curve"/>
    </contour>
  </outline>
</glyph>
<glyph name="asterisk" format="2">
  <advance width="467" height="1000"/>
  <unicode hex="002A"/>
  <outline>
    <contour>
      <point x="154" y="471" type="line"/>
      <point x="234" y="566" type="line"/>
      <point x="312" y="471" type="line"/>
      <point x="356" y="502" type="line"/>
      <point x="292" y="607" type="line"/>
      <point x="401" y="653" type="line"/>
      <point x="384" y="704" type="line"/>
      <point x="270" y="676" type="line"/>
      <point x="260" y="796" type="line"/>
      <point x="206" y="796" type="line"/>
      <point x="196" y="675" type="line"/>
      <point x="82" y="704" type="line"/>
      <point x="65" y="653" type="line"/>
      <point x="173" y="607" type="line"/>
      <point x="110" y="502" type="line"/>
    </contour>
  </outline>
</glyph>
<glyph name="comma" format="2">
  <advance width="278" height="1000"/>
  <unicode hex="002C"/>
  <outline>
    <contour>
      <point x="75" y="-190" type="line"/>
      <point x="165" y="-152"/>
      <point x="221" y="-77"/>
      <point x="221" y="19" type="curve"/>
      <point x="221" y="86"/>
      <point x="192" y="126"/>
      <point x="144" y="126" type="curve"/>
      <point x="107" y="126"/>
      <point x="75" y="102"/>
      <point x="75" y="62" type="curve"/>
      <point x="75" y="22"/>
      <point x="106" y="-2"/>
      <point x="142" y="-2" type="curve"/>
      <point x="153" y="-1" type="line"/>
      <point x="152" y="-61"/>
      <point x="115" y="-109"/>
      <point x="53" y="-136" type="curve"/>
    </contour>
  </outline>
</glyph>
<glyph name="hyphenminus" format="2">
  <advance width="347" height="1000"/>
  <unicode hex="002D"/>
  <unicode hex="2011"/>
  <outline>
    <contour>
      <point x="46" y="245" type="line"/>
      <point x="302" y="245" type="line"/>
      <point x="302" y="315" type="line"/>
      <point x="46" y="315" type="line"/>
    </contour>
  </outline>
</glyph>
<glyph name="slash" format="2">
  <advance width="392" height="1000"/>
  <unicode hex="002F"/>
  <outline>
    <contour>
      <point x="11" y="-179" type="line"/>
      <point x="78" y="-179" type="line"/>
      <point x="377" y="794" type="line"/>
      <point x="311" y="794" type="line"/>
    </contour>
  </outline>
</glyph>
<glyph name="zero" format="2">
  <advance width="555" height="1000"/>
  <unicode hex="0030"/>
  <outline>
    <contour>
      <point x="278" y="-13" type="curve"/>
      <point x="417" y="-13"/>
      <point x="506" y="113"/>
      <point x="506" y="369" type="curve"/>
      <point x="506" y="623"/>
      <point x="417" y="746"/>
      <point x="278" y="746" type="curve"/>
      <point x="138" y="746"/>
      <point x="50" y="623"/>
      <point x="50" y="369" type="curve"/>
      <point x="50" y="113"/>
      <point x="138" y="-13"/>
    </contour>
    <contour>
      <point x="278" y="61" type="curve"/>
      <point x="195" y="61"/>
      <point x="138" y="154"/>
      <point x="138" y="369" type="curve"/>
      <point x="138" y="583"/>
      <point x="195" y="674"/>
      <point x="278" y="674" type="curve"/>
      <point x="361" y="674"/>
      <point x="418" y="583"/>
      <point x="418" y="369" type="curve"/>
      <point x="418" y="154"/>
      <point x="361" y="61"/>
    </contour>
  </outline>
</glyph>
<glyph name="one" format="2">
  <advance width="555" height="1000"/>
  <unicode hex="0031"/>
  <outline>
    <contour>
      <point x="88" y="0" type="line"/>
      <point x="490" y="0" type="line"/>
      <point x="490" y="76" type="line"/>
      <point x="343" y="76" type="line"/>
      <point x="343" y="733" type="line"/>
      <point x="273" y="733" type="line"/>
      <point x="233" y="710"/>
      <point x="186" y="693"/>
      <point x="121" y="681" type="curve"/>
      <point x="121" y="623" type="line"/>
      <point x="252" y="623" type="line"/>
      <point x="252" y="76" type="line"/>
      <point x="88" y="76" type="line"/>
    </contour>
  </outline>
</glyph>
<glyph name="two" format="2">
  <advance width="555" height="1000"/>
  <unicode hex="0032"/>
  <outline>
    <contour>
      <point x="44" y="0" type="line"/>
      <point x="505" y="0" type="line"/>
      <point x="505" y="79" type="line"/>
      <point x="302" y="79" type="line"/>
      <point x="265" y="79"/>
      <point x="220" y="75"/>
      <point x="182" y="72" type="curve"/>
      <point x="354" y="235"/>
      <point x="470" y="384"/>
      <point x="470" y="531" type="curve"/>
      <point x="470" y="661"/>
      <point x="387" y="746"/>
      <point x="256" y="746" type="curve"/>
      <point x="163" y="746"/>
      <point x="99" y="704"/>
      <point x="40" y="639" type="curve"/>
      <point x="93" y="587" type="line"/>
      <point x="134" y="636"/>
      <point x="185" y="672"/>
      <point x="245" y="672" type="curve"/>
      <point x="336" y="672"/>
      <point x="380" y="611"/>
      <point x="380" y="527" type="curve"/>
      <point x="380" y="401"/>
      <point x="274" y="255"/>
      <point x="44" y="54" type="curve"/>
    </contour>
  </outline>
</glyph>
<glyph name="five" format="2">
  <advance width="555" height="1000"/>
  <unicode hex="0035"/>
  <outline>
    <contour>
      <point x="262" y="-13" type="curve"/>
      <point x="385" y="-13"/>
      <point x="502" y="78"/>
      <point x="502" y="238" type="curve"/>
      <point x="502" y="400"/>
      <point x="402" y="472"/>
      <point x="281" y="472" type="curve"/>
      <point x="237" y="472"/>
      <point x="204" y="461"/>
      <point x="171" y="443" type="curve"/>
      <point x="190" y="655" type="line"/>
      <point x="466" y="655" type="line"/>
      <point x="466" y="733" type="line"/>
      <point x="110" y="733" type="line"/>
      <point x="86" y="391" type="line"/>
      <point x="135" y="360" type="line"/>
      <point x="177" y="388"/>
      <point x="208" y="403"/>
      <point x="257" y="403" type="curve"/>
      <point x="349" y="403"/>
      <point x="409" y="341"/>
      <point x="409" y="236" type="curve"/>
      <point x="409" y="129"/>
      <point x="340" y="63"/>
      <point x="253" y="63" type="curve"/>
      <point x="168" y="63"/>
      <point x="114" y="102"/>
      <point x="73" y="144" type="curve"/>
      <point x="27" y="84" type="line"/>
      <point x="77" y="35"/>
      <point x="147" y="-13"/>
    </contour>
  </outline>
</glyph>
<glyph name="seven" format="2">
  <advance width="555" height="1000"/>
  <unicode hex="0037"/>
  <outline>
    <contour>
      <point x="198" y="0" type="curve"/>
      <point x="293" y="0" type="line"/>
      <point x="305" y="287"/>
      <point x="336" y="458"/>
      <point x="508" y="678" type="curve"/>
      <point x="508" y="733" type="line"/>
      <point x="49" y="733" type="line"/>
      <point x="49" y="655" type="line"/>
      <point x="405" y="655" type="line"/>
      <point x="261" y="455"/>
      <point x="211" y="278"/>
    </contour>
  </outline>
</glyph>
<glyph name="colon" format="2">
  <advance width="278" height="1000"/>
  <unicode hex="003A"/>
  <outline>
    <contour>
      <point x="139" y="390" type="curve"/>
      <point x="175" y="390"/>
      <point x="205" y="418"/>
      <point x="205" y="460" type="curve"/>
      <point x="205" y="501"/>
      <point x="175" y="530"/>
      <point x="139" y="530" type="curve"/>
      <point x="102" y="530"/>
      <point x="73" y="501"/>
      <point x="73" y="460" type="curve"/>
      <point x="73" y="418"/>
      <point x="102" y="390"/>
    </contour>
    <contour>
      <point x="139" y="-13" type="curve"/>
      <point x="175" y="-13"/>
      <point x="205" y="15"/>
      <point x="205" y="56" type="curve"/>
      <point x="205" y="98"/>
      <point x="175" y="126"/>
      <point x="139" y="126" type="curve"/>
      <point x="102" y="126"/>
      <point x="73" y="98"/>
      <point x="73" y="56" type="curve"/>
      <point x="73" y="15"/>
      <point x="102" y="-13"/>
    </contour>
  </outline>
</glyph>
<glyph name="less" format="2">
  <advance width="555" height="1000"/>
  <unicode hex="003C"/>
  <outline>
    <contour>
      <point x="518" y="146" type="line"/>
      <point x="518" y="226" type="line"/>
      <point x="281" y="313" type="line"/>
      <point x="131" y="369" type="line"/>
      <point x="131" y="373" type="line"/>
      <point x="281" y="429" type="line"/>
      <point x="518" y="517" type="line"/>
      <point x="518" y="596" type="line"/>
      <point x="38" y="407" type="line"/>
      <point x="38" y="335" type="line"/>
    </contour>
  </outline>
</glyph>
<glyph name="equal" format="2">
  <advance width="555" height="1000"/>
  <unicode hex="003D"/>
  <outline>
    <contour>
      <point x="38" y="455" type="line"/>
      <point x="518" y="455" type="line"/>
      <point x="518" y="523" type="line"/>
      <point x="38" y="523" type="line"/>
    </contour>
    <contour>
      <point x="38" y="215" type="line"/>
      <point x="518" y="215" type="line"/>
      <point x="518" y="283" type="line"/>
      <point x="38" y="283" type="line"/>
    </contour>
  </outline>
</glyph>
<glyph name="greater" format="2">
  <advance width="555" height="1000"/>
  <unicode hex="003E"/>
  <outline>
    <contour>
      <point x="38" y="146" type="line"/>
      <point x="518" y="335" type="line"/>
      <point x="518" y="407" type="line"/>
      <point x="38" y="596" type="line"/>
      <point x="38" y="517" type="line"/>
      <point x="274" y="429" type="line"/>
      <point x="424" y="373" type="line"/>
      <point x="424" y="369" type="line"/>
      <point x="274" y="313" type="line"/>
      <point x="38" y="226" type="line"/>
    </contour>
  </outline>
</glyph>
<glyph name="question" format="2">
  <advance width="474" height="1000"/>
  <unicode hex="003F"/>
  <outline>
    <contour>
      <point x="178" y="221" type="curve"/>
      <point x="259" y="221" type="line"/>
      <point x="241" y="378"/>
      <point x="421" y="437"/>
      <point x="421" y="584" type="curve"/>
      <point x="421" y="694"/>
      <point x="347" y="762"/>
      <point x="234" y="762" type="curve"/>
      <point x="153" y="762"/>
      <point x="89" y="723"/>
      <point x="43" y="670" type="curve"/>
      <point x="95" y="622" type="line"/>
      <point x="130" y="662"/>
      <point x="174" y="686"/>
      <point x="224" y="686" type="curve"/>
      <point x="296" y="686"/>
      <point x="332" y="638"/>
      <point x="332" y="578" type="curve"/>
      <point x="332" y="459"/>
      <point x="154" y="395"/>
    </contour>
    <contour>
      <point x="221" y="-13" type="curve"/>
      <point x="258" y="-13"/>
      <point x="288" y="15"/>
      <point x="288" y="56" type="curve"/>
      <point x="288" y="98"/>
      <point x="258" y="126"/>
      <point x="221" y="126" type="curve"/>
      <point x="184" y="126"/>
      <point x="156" y="98"/>
      <point x="156" y="56" type="curve"/>
      <point x="156" y="15"/>
      <point x="184" y="-13"/>
    </contour>
  </outline>
</glyph>
<glyph name="at" format="2">
  <advance width="946" height="1000"/>
  <unicode hex="0040"/>
  <outline>
    <contour>
      <point x="449" y="-173" type="curve"/>
      <point x="527" y="-173"/>
      <point x="597" y="-155"/>
      <point x="662" y="-116" type="curve"/>
      <point x="637" y="-62" type="line"/>
      <point x="588" y="-91"/>
      <point x="525" y="-112"/>
      <point x="456" y="-112" type="curve"/>
      <point x="266" y="-112"/>
      <point x="123" y="12"/>
      <point x="123" y="230" type="curve"/>
      <point x="123" y="491"/>
      <point x="316" y="661"/>
      <point x="515" y="661" type="curve"/>
      <point x="718" y="661"/>
      <point x="825" y="529"/>
      <point x="825" y="348" type="curve"/>
      <point x="825" y="204"/>
      <point x="745" y="117"/>
      <point x="674" y="117" type="curve"/>
      <point x="613" y="117"/>
      <point x="591" y="160"/>
      <point x="613" y="249" type="curve"/>
      <point x="657" y="472" type="line"/>
      <point x="597" y="472" type="line"/>
      <point x="584" y="426" type="line"/>
      <point x="582" y="426" type="line"/>
      <point x="561" y="463"/>
      <point x="531" y="481"/>
      <point x="493" y="481" type="curve"/>
      <point x="362" y="481"/>
      <point x="277" y="340"/>
      <point x="277" y="222" type="curve"/>
      <point x="277" y="120"/>
      <point x="336" y="63"/>
      <point x="412" y="63" type="curve"/>
      <point x="462" y="63"/>
      <point x="512" y="97"/>
      <point x="548" y="140" type="curve"/>
      <point x="551" y="140" type="line"/>
      <point x="558" y="83"/>
      <point x="605" y="55"/>
      <point x="666" y="55" type="curve"/>
      <point x="767" y="55"/>
      <point x="889" y="157"/>
      <point x="889" y="352" type="curve"/>
      <point x="889" y="572"/>
      <point x="747" y="722"/>
      <point x="523" y="722" type="curve"/>
      <point x="273" y="722"/>
      <point x="56" y="526"/>
      <point x="56" y="227" type="curve"/>
      <point x="56" y="-34"/>
      <point x="231" y="-173"/>
    </contour>
    <contour>
      <point x="430" y="126" type="curve"/>
      <point x="385" y="126"/>
      <point x="351" y="155"/>
      <point x="351" y="227" type="curve"/>
      <point x="351" y="312"/>
      <point x="406" y="417"/>
      <point x="493" y="417" type="curve"/>
      <point x="524" y="417"/>
      <point x="544" y="405"/>
      <point x="565" y="370" type="curve"/>
      <point x="534" y="193" type="line"/>
      <point x="495" y="146"/>
      <point x="461" y="126"/>
    </contour>
  </outline>
</glyph>
<glyph name="C" format="2">
  <advance width="638" height="1000"/>
  <unicode hex="0043"/>
  <outline>
    <contour>
      <point x="377" y="-13" type="curve"/>
      <point x="472" y="-13"/>
      <point x="544" y="25"/>
      <point x="602" y="92" type="curve"/>
      <point x="551" y="151" type="line"/>
      <point x="504" y="99"/>
      <point x="451" y="68"/>
      <point x="381" y="68" type="curve"/>
      <point x="241" y="68"/>
      <point x="153" y="184"/>
      <point x="153" y="369" type="curve"/>
      <point x="153" y="552"/>
      <point x="246" y="665"/>
      <point x="384" y="665" type="curve"/>
      <point x="447" y="665"/>
      <point x="495" y="637"/>
      <point x="534" y="596" type="curve"/>
      <point x="584" y="656" type="line"/>
      <point x="542" y="703"/>
      <point x="472" y="746"/>
      <point x="383" y="746" type="curve"/>
      <point x="197" y="746"/>
      <point x="58" y="603"/>
      <point x="58" y="366" type="curve"/>
      <point x="58" y="128"/>
      <point x="194" y="-13"/>
    </contour>
  </outline>
</glyph>
<glyph name="D" format="2">
  <advance width="688" height="1000"/>
  <unicode hex="0044"/>
  <outline>
    <contour>
      <point x="101" y="0" type="line"/>
      <point x="288" y="0" type="line"/>
      <point x="509" y="0"/>
      <point x="629" y="137"/>
      <point x="629" y="369" type="curve"/>
      <point x="629" y="603"/>
      <point x="509" y="733"/>
      <point x="284" y="733" type="curve"/>
      <point x="101" y="733" type="line"/>
    </contour>
    <contour>
      <point x="193" y="76" type="line"/>
      <point x="193" y="658" type="line"/>
      <point x="276" y="658" type="line"/>
      <point x="449" y="658"/>
      <point x="534" y="555"/>
      <point x="534" y="369" type="curve"/>
      <point x="534" y="184"/>
      <point x="449" y="76"/>
      <point x="276" y="76" type="curve"/>
    </contour>
  </outline>
</glyph>
<glyph name="F" format="2">
  <advance width="552" height="1000"/>
  <unicode hex="0046"/>
  <outline>
    <contour>
      <point x="101" y="0" type="line"/>
      <point x="193" y="0" type="line"/>
      <point x="193" y="329" type="line"/>
      <point x="473" y="329" type="line"/>
      <point x="473" y="407" type="line"/>
      <point x="193" y="407" type="line"/>
      <point x="193" y="655" type="line"/>
      <point x="523" y="655" type="line"/>
      <point x="523" y="733" type="line"/>
      <point x="101" y="733" type="line"/>
    </contour>
  </outline>
</glyph>
<glyph name="G" format="2">
  <advance width="689" height="1000"/>
  <unicode hex="0047"/>
  <outline>
    <contour>
      <point x="389" y="-13" type="curve"/>
      <point x="487" y="-13"/>
      <point x="568" y="23"/>
      <point x="615" y="72" type="curve"/>
      <point x="615" y="380" type="line"/>
      <point x="374" y="380" type="line"/>
      <point x="374" y="303" type="line"/>
      <point x="530" y="303" type="line"/>
      <point x="530" y="111" type="line"/>
      <point x="501" y="84"/>
      <point x="450" y="68"/>
      <point x="398" y="68" type="curve"/>
      <point x="241" y="68"/>
      <point x="153" y="184"/>
      <point x="153" y="369" type="curve"/>
      <point x="153" y="552"/>
      <point x="249" y="665"/>
      <point x="397" y="665" type="curve"/>
      <point x="470" y="665"/>
      <point x="518" y="634"/>
      <point x="555" y="596" type="curve"/>
      <point x="605" y="656" type="line"/>
      <point x="563" y="700"/>
      <point x="496" y="746"/>
      <point x="394" y="746" type="curve"/>
      <point x="200" y="746"/>
      <point x="58" y="603"/>
      <point x="58" y="366" type="curve"/>
      <point x="58" y="128"/>
      <point x="196" y="-13"/>
    </contour>
  </outline>
</glyph>
<glyph name="L" format="2">
  <advance width="543" height="1000"/>
  <unicode hex="004C"/>
  <outline>
    <contour>
      <point x="101" y="0" type="line"/>
      <point x="514" y="0" type="line"/>
      <point x="514" y="79" type="line"/>
      <point x="193" y="79" type="line"/>
      <point x="193" y="733" type="line"/>
      <point x="101" y="733" type="line"/>
    </contour>
  </outline>
</glyph>
<glyph name="Q" format="2">
  <advance width="742" height="1000"/>
  <unicode hex="0051"/>
  <outline>
    <contour>
      <point x="595" y="-184" type="curve"/>
      <point x="639" y="-184"/>
      <point x="678" y="-177"/>
      <point x="700" y="-167" type="curve"/>
      <point x="682" y="-96" type="line"/>
      <point x="663" y="-102"/>
      <point x="638" y="-107"/>
      <point x="605" y="-107" type="curve"/>
      <point x="526" y="-107"/>
      <point x="458" y="-74"/>
      <point x="425" y="-9" type="curve"/>
      <point x="580" y="18"/>
      <point x="684" y="158"/>
      <point x="684" y="369" type="curve"/>
      <point x="684" y="604"/>
      <point x="555" y="746"/>
      <point x="371" y="746" type="curve"/>
      <point x="187" y="746"/>
      <point x="58" y="604"/>
      <point x="58" y="369" type="curve"/>
      <point x="58" y="154"/>
      <point x="166" y="12"/>
      <point x="326" y="-10" type="curve"/>
      <point x="367" y="-110"/>
      <point x="460" y="-184"/>
    </contour>
    <contour>
      <point x="371" y="64" type="curve"/>
      <point x="239" y="64"/>
      <point x="153" y="182"/>
      <point x="153" y="369" type="curve"/>
      <point x="153" y="552"/>
      <point x="239" y="665"/>
      <point x="371" y="665" type="curve"/>
      <point x="503" y="665"/>
      <point x="589" y="552"/>
      <point x="589" y="369" type="curve"/>
      <point x="589" y="182"/>
      <point x="503" y="64"/>
    </contour>
  </outline>
</glyph>
<glyph name="S" format="2">
  <advance width="596" height="1000"/>
  <unicode hex="0053"/>
  <outline>
    <contour>
      <point x="304" y="-13" type="curve"/>
      <point x="457" y="-13"/>
      <point x="553" y="79"/>
      <point x="553" y="195" type="curve"/>
      <point x="553" y="304"/>
      <point x="487" y="354"/>
      <point x="402" y="391" type="curve"/>
      <point x="298" y="436" type="line"/>
      <point x="241" y="460"/>
      <point x="176" y="487"/>
      <point x="176" y="559" type="curve"/>
      <point x="176" y="624"/>
      <point x="230" y="665"/>
      <point x="313" y="665" type="curve"/>
      <point x="381" y="665"/>
      <point x="435" y="639"/>
      <point x="480" y="597" type="curve"/>
      <point x="528" y="656" type="line"/>
      <point x="477" y="709"/>
      <point x="400" y="746"/>
      <point x="313" y="746" type="curve"/>
      <point x="180" y="746"/>
      <point x="82" y="665"/>
      <point x="82" y="552" type="curve"/>
      <point x="82" y="445"/>
      <point x="163" y="393"/>
      <point x="231" y="364" type="curve"/>
      <point x="336" y="318" type="line"/>
      <point x="406" y="287"/>
      <point x="459" y="263"/>
      <point x="459" y="187" type="curve"/>
      <point x="459" y="116"/>
      <point x="402" y="68"/>
      <point x="305" y="68" type="curve"/>
      <point x="229" y="68"/>
      <point x="155" y="104"/>
      <point x="103" y="159" type="curve"/>
      <point x="48" y="95" type="line"/>
      <point x="111" y="29"/>
      <point x="200" y="-13"/>
    </contour>
  </outline>
</glyph>
<glyph name="U" format="2">
  <advance width="721" height="1000"/>
  <unicode hex="0055"/>
  <outline>
    <contour>
      <point x="361" y="-13" type="curve"/>
      <point x="510" y="-13"/>
      <point x="624" y="67"/>
      <point x="624" y="302" type="curve"/>
      <point x="624" y="733" type="line"/>
      <point x="535" y="733" type="line"/>
      <point x="535" y="300" type="line"/>
      <point x="535" y="124"/>
      <point x="458" y="68"/>
      <point x="361" y="68" type="curve"/>
      <point x="265" y="68"/>
      <point x="190" y="124"/>
      <point x="190" y="300" type="curve"/>
      <point x="190" y="733" type="line"/>
      <point x="98" y="733" type="line"/>
      <point x="98" y="302" type="line"/>
      <point x="98" y="67"/>
      <point x="211" y="-13"/>
    </contour>
  </outline>
</glyph>
<glyph name="V" format="2">
  <advance width="575" height="1000"/>
  <unicode hex="0056"/>
  <outline>
    <contour>
      <point x="235" y="0" type="line"/>
      <point x="342" y="0" type="line"/>
      <point x="575" y="733" type="line"/>
      <point x="481" y="733" type="line"/>
      <point x="363" y="336" type="line"/>
      <point x="338" y="250"/>
      <point x="320" y="180"/>
      <point x="292" y="94" type="curve"/>
      <point x="288" y="94" type="line"/>
      <point x="261" y="180"/>
      <point x="242" y="250"/>
      <point x="217" y="336" type="curve"/>
      <point x="98" y="733" type="line"/>
      <point x="1" y="733" type="line"/>
    </contour>
  </outline>
</glyph>
<glyph name="X" format="2">
  <advance width="573" height="1000"/>
  <unicode hex="0058"/>
  <outline>
    <contour>
      <point x="17" y="0" type="line"/>
      <point x="115" y="0" type="line"/>
      <point x="220" y="198" type="line"/>
      <point x="239" y="235"/>
      <point x="258" y="272"/>
      <point x="279" y="317" type="curve"/>
      <point x="283" y="317" type="line"/>
      <point x="307" y="272"/>
      <point x="327" y="235"/>
      <point x="346" y="198" type="curve"/>
      <point x="455" y="0" type="line"/>
      <point x="557" y="0" type="line"/>
      <point x="342" y="374" type="line"/>
      <point x="542" y="733" type="line"/>
      <point x="445" y="733" type="line"/>
      <point x="347" y="546" type="line"/>
      <point x="329" y="512"/>
      <point x="315" y="481"/>
      <point x="295" y="438" type="curve"/>
      <point x="291" y="438" type="line"/>
      <point x="267" y="481"/>
      <point x="252" y="512"/>
      <point x="233" y="546" type="curve"/>
      <point x="133" y="733" type="line"/>
      <point x="31" y="733" type="line"/>
      <point x="231" y="379" type="line"/>
    </contour>
  </outline>
</glyph>
<glyph name="Y" format="2">
  <advance width="531" height="1000"/>
  <unicode hex="0059"/>
  <outline>
    <contour>
      <point x="219" y="0" type="line"/>
      <point x="311" y="0" type="line"/>
      <point x="311" y="284" type="line"/>
      <point x="532" y="733" type="line"/>
      <point x="436" y="733" type="line"/>
      <point x="342" y="526" type="line"/>
      <point x="319" y="472"/>
      <point x="294" y="420"/>
      <point x="268" y="365" type="curve"/>
      <point x="264" y="365" type="line"/>
      <point x="238" y="420"/>
      <point x="216" y="472"/>
      <point x="192" y="526" type="curve"/>
      <point x="97" y="733" type="line"/>
      <point x="-1" y="733" type="line"/>
      <point x="219" y="284" type="line"/>
    </contour>
  </outline>
</glyph>
<glyph name="backslash" format="2">
  <advance width="392" height="1000"/>
  <unicode hex="005C"/>
  <outline>
    <contour>
      <point x="314" y="-179" type="line"/>
      <point x="380" y="-179" type="line"/>
      <point x="81" y="794" type="line"/>
      <point x="15" y="794" type="line"/>
    </contour>
  </outline>
</glyph>
<glyph name="bracketright" format="2">
  <advance width="338" height="1000"/>
  <unicode hex="005D"/>
  <outline>
    <contour>
      <point x="34" y="-170" type="line"/>
      <point x="233" y="-170" type="line"/>
      <point x="233" y="792" type="line"/>
      <point x="34" y="792" type="line"/>
      <point x="34" y="739" type="line"/>
      <point x="164" y="739" type="line"/>
      <point x="164" y="-118" type="line"/>
      <point x="34" y="-118" type="line"/>
    </contour>
  </outline>
</glyph>
<glyph name="asciicircum" format="2">
  <advance width="555" height="1000"/>
  <unicode hex="005E"/>
  <outline>
    <contour>
      <point x="68" y="317" type="line"/>
      <point x="147" y="317" type="line"/>
      <point x="220" y="514" type="line"/>
      <point x="275" y="663" type="line"/>
      <point x="280" y="663" type="line"/>
      <point x="335" y="514" type="line"/>
      <point x="408" y="317" type="line"/>
      <point x="488" y="317" type="line"/>
      <point x="318" y="749" type="line"/>
      <point x="237" y="749" type="line"/>
    </contour>
  </outline>
</glyph>
<glyph name="underscore" format="2">
  <advance width="559" height="1000"/>
  <unicode hex="005F"/>
  <outline>
    <contour>
      <point x="13" y="-140" type="line"/>
      <point x="545" y="-140" type="line"/>
      <point x="545" y="-80" type="line"/>
      <point x="13" y="-80" type="line"/>
    </contour>
  </outline>
</glyph>
<glyph name="grave" format="2">
  <advance width="606" height="1000"/>
  <unicode hex="0060"/>
  <outline>
    <contour>
      <point x="319" y="640" type="line"/>
      <point x="366" y="686" type="line"/>
      <point x="208" y="872" type="line"/>
      <point x="144" y="812" type="line"/>
    </contour>
  </outline>
</glyph>
<glyph name="b" format="2">
  <advance width="618" height="1000"/>
  <unicode hex="0062"/>
  <outline>
    <contour>
      <point x="331" y="-13" type="curve"/>
      <point x="455" y="-13"/>
      <point x="567" y="94"/>
      <point x="567" y="280" type="curve"/>
      <point x="567" y="448"/>
      <point x="491" y="557"/>
      <point x="351" y="557" type="curve"/>
      <point x="290" y="557"/>
      <point x="230" y="523"/>
      <point x="180" y="481" type="curve"/>
      <point x="184" y="578" type="line"/>
      <point x="184" y="796" type="line"/>
      <point x="92" y="796" type="line"/>
      <point x="92" y="0" type="line"/>
      <point x="165" y="0" type="line"/>
      <point x="173" y="56" type="line"/>
      <point x="177" y="56" type="line"/>
      <point x="224" y="13"/>
      <point x="281" y="-13"/>
    </contour>
    <contour>
      <point x="316" y="64" type="curve"/>
      <point x="280" y="64"/>
      <point x="231" y="78"/>
      <point x="184" y="120" type="curve"/>
      <point x="184" y="406" type="line"/>
      <point x="235" y="454"/>
      <point x="283" y="480"/>
      <point x="328" y="480" type="curve"/>
      <point x="432" y="480"/>
      <point x="472" y="400"/>
      <point x="472" y="279" type="curve"/>
      <point x="472" y="145"/>
      <point x="406" y="64"/>
    </contour>
  </outline>
</glyph>
<glyph name="d" format="2">
  <advance width="620" height="1000"/>
  <unicode hex="0064"/>
  <outline>
    <contour>
      <point x="277" y="-13" type="curve"/>
      <point x="342" y="-13"/>
      <point x="400" y="22"/>
      <point x="442" y="64" type="curve"/>
      <point x="445" y="64" type="line"/>
      <point x="453" y="0" type="line"/>
      <point x="528" y="0" type="line"/>
      <point x="528" y="796" type="line"/>
      <point x="436" y="796" type="line"/>
      <point x="436" y="587" type="line"/>
      <point x="441" y="494" type="line"/>
      <point x="393" y="533"/>
      <point x="352" y="557"/>
      <point x="288" y="557" type="curve"/>
      <point x="164" y="557"/>
      <point x="53" y="447"/>
      <point x="53" y="271" type="curve"/>
      <point x="53" y="90"/>
      <point x="141" y="-13"/>
    </contour>
    <contour>
      <point x="297" y="64" type="curve"/>
      <point x="202" y="64"/>
      <point x="147" y="141"/>
      <point x="147" y="272" type="curve"/>
      <point x="147" y="396"/>
      <point x="217" y="480"/>
      <point x="304" y="480" type="curve"/>
      <point x="349" y="480"/>
      <point x="391" y="464"/>
      <point x="436" y="423" type="curve"/>
      <point x="436" y="138" type="line"/>
      <point x="391" y="88"/>
      <point x="347" y="64"/>
    </contour>
  </outline>
</glyph>
<glyph name="g" format="2">
  <advance width="564" height="1000"/>
  <unicode hex="0067"/>
  <outline>
    <contour>
      <point x="275" y="-250" type="curve"/>
      <point x="443" y="-250"/>
      <point x="550" y="-163"/>
      <point x="550" y="-62" type="curve"/>
      <point x="550" y="28"/>
      <point x="486" y="67"/>
      <point x="361" y="67" type="curve"/>
      <point x="254" y="67" type="line"/>
      <point x="181" y="67"/>
      <point x="159" y="92"/>
      <point x="159" y="126" type="curve"/>
      <point x="159" y="156"/>
      <point x="174" y="174"/>
      <point x="194" y="191" type="curve"/>
      <point x="218" y="179"/>
      <point x="248" y="172"/>
      <point x="274" y="172" type="curve"/>
      <point x="386" y="172"/>
      <point x="473" y="245"/>
      <point x="473" y="361" type="curve"/>
      <point x="473" y="408"/>
      <point x="455" y="448"/>
      <point x="429" y="473" type="curve"/>
      <point x="540" y="473" type="line"/>
      <point x="540" y="543" type="line"/>
      <point x="351" y="543" type="line"/>
      <point x="332" y="551"/>
      <point x="305" y="557"/>
      <point x="274" y="557" type="curve"/>
      <point x="165" y="557"/>
      <point x="71" y="482"/>
      <point x="71" y="363" type="curve"/>
      <point x="71" y="298"/>
      <point x="106" y="245"/>
      <point x="142" y="217" type="curve"/>
      <point x="142" y="213" type="line"/>
      <point x="113" y="193"/>
      <point x="82" y="157"/>
      <point x="82" y="112" type="curve"/>
      <point x="82" y="69"/>
      <point x="103" y="40"/>
      <point x="131" y="23" type="curve"/>
      <point x="131" y="18" type="line"/>
      <point x="80" y="-13"/>
      <point x="51" y="-58"/>
      <point x="51" y="-105" type="curve"/>
      <point x="51" y="-198"/>
      <point x="143" y="-250"/>
    </contour>
    <contour>
      <point x="274" y="234" type="curve"/>
      <point x="212" y="234"/>
      <point x="159" y="284"/>
      <point x="159" y="363" type="curve"/>
      <point x="159" y="443"/>
      <point x="211" y="490"/>
      <point x="274" y="490" type="curve"/>
      <point x="339" y="490"/>
      <point x="390" y="443"/>
      <point x="390" y="363" type="curve"/>
      <point x="390" y="284"/>
      <point x="337" y="234"/>
    </contour>
    <contour>
      <point x="288" y="-187" type="curve"/>
      <point x="189" y="-187"/>
      <point x="131" y="-150"/>
      <point x="131" y="-92" type="curve"/>
      <point x="131" y="-61"/>
      <point x="147" y="-28"/>
      <point x="186" y="0" type="curve"/>
      <point x="210" y="-6"/>
      <point x="236" y="-8"/>
      <point x="256" y="-8" type="curve"/>
      <point x="350" y="-8" type="line"/>
      <point x="422" y="-8"/>
      <point x="460" y="-26"/>
      <point x="460" y="-77" type="curve"/>
      <point x="460" y="-133"/>
      <point x="393" y="-187"/>
    </contour>
  </outline>
</glyph>
<glyph name="h" format="2">
  <advance width="607" height="1000"/>
  <unicode hex="0068"/>
  <outline>
    <contour>
      <point x="92" y="0" type="line"/>
      <point x="184" y="0" type="line"/>
      <point x="184" y="394" type="line"/>
      <point x="238" y="449"/>
      <point x="276" y="477"/>
      <point x="332" y="477" type="curve"/>
      <point x="404" y="477"/>
      <point x="435" y="434"/>
      <point x="435" y="332" type="curve"/>
      <point x="435" y="0" type="line"/>
      <point x="526" y="0" type="line"/>
      <point x="526" y="344" type="line"/>
      <point x="526" y="482"/>
      <point x="474" y="557"/>
      <point x="360" y="557" type="curve"/>
      <point x="286" y="557"/>
      <point x="230" y="516"/>
      <point x="180" y="466" type="curve"/>
      <point x="184" y="578" type="line"/>
      <point x="184" y="796" type="line"/>
      <point x="92" y="796" type="line"/>
    </contour>
  </outline>
</glyph>
<glyph name="i" format="2">
  <advance width="275" height="1000"/>
  <unicode hex="0069"/>
  <outline>
    <contour>
      <point x="92" y="0" type="line"/>
      <point x="184" y="0" type="line"/>
      <point x="184" y="543" type="line"/>
      <point x="92" y="543" type="line"/>
    </contour>
    <contour>
      <point x="138" y="655" type="curve"/>
      <point x="174" y="655"/>
      <point x="199" y="679"/>
      <point x="199" y="716" type="curve"/>
      <point x="199" y="751"/>
      <point x="174" y="775"/>
      <point x="138" y="775" type="curve"/>
      <point x="102" y="775"/>
      <point x="78" y="751"/>
      <point x="78" y="716" type="curve"/>
      <point x="78" y="679"/>
      <point x="102" y="655"/>
    </contour>
  </outline>
</glyph>
<glyph name="j" format="2">
  <advance width="275" height="1000"/>
  <unicode hex="006A"/>
  <outline>
    <contour>
      <point x="35" y="-242" type="curve"/>
      <point x="143" y="-242"/>
      <point x="184" y="-173"/>
      <point x="184" y="-62" type="curve"/>
      <point x="184" y="543" type="line"/>
      <point x="93" y="543" type="line"/>
      <point x="93" y="-62" type="line"/>
      <point x="93" y="-128"/>
      <point x="80" y="-169"/>
      <point x="26" y="-169" type="curve"/>
      <point x="7" y="-169"/>
      <point x="-12" y="-164"/>
      <point x="-26" y="-159" type="curve"/>
      <point x="-44" y="-228" type="line"/>
      <point x="-25" y="-236"/>
      <point x="3" y="-242"/>
    </contour>
    <contour>
      <point x="138" y="655" type="curve"/>
      <point x="173" y="655"/>
      <point x="199" y="679"/>
      <point x="199" y="716" type="curve"/>
      <point x="199" y="751"/>
      <point x="173" y="775"/>
      <point x="138" y="775" type="curve"/>
      <point x="102" y="775"/>
      <point x="77" y="751"/>
      <point x="77" y="716" type="curve"/>
      <point x="77" y="679"/>
      <point x="102" y="655"/>
    </contour>
  </outline>
</glyph>
<glyph name="k" format="2">
  <advance width="552" height="1000"/>
  <unicode hex="006B"/>
  <outline>
    <contour>
      <point x="92" y="0" type="line"/>
      <point x="182" y="0" type="line"/>
      <point x="182" y="143" type="line"/>
      <point x="284" y="262" type="line"/>
      <point x="443" y="0" type="line"/>
      <point x="542" y="0" type="line"/>
      <point x="337" y="324" type="line"/>
      <point x="518" y="543" type="line"/>
      <point x="416" y="543" type="line"/>
      <point x="186" y="257" type="line"/>
      <point x="182" y="257" type="line"/>
      <point x="182" y="796" type="line"/>
      <point x="92" y="796" type="line"/>
    </contour>
  </outline>
</glyph>
<glyph name="m" format="2">
  <advance width="926" height="1000"/>
  <unicode hex="006D"/>
  <outline>
    <contour>
      <point x="92" y="0" type="line"/>
      <point x="184" y="0" type="line"/>
      <point x="184" y="394" type="line"/>
      <point x="233" y="450"/>
      <point x="279" y="477"/>
      <point x="320" y="477" type="curve"/>
      <point x="389" y="477"/>
      <point x="421" y="434"/>
      <point x="421" y="332" type="curve"/>
      <point x="421" y="0" type="line"/>
      <point x="512" y="0" type="line"/>
      <point x="512" y="394" type="line"/>
      <point x="563" y="450"/>
      <point x="607" y="477"/>
      <point x="649" y="477" type="curve"/>
      <point x="718" y="477"/>
      <point x="750" y="434"/>
      <point x="750" y="332" type="curve"/>
      <point x="750" y="0" type="line"/>
      <point x="841" y="0" type="line"/>
      <point x="841" y="344" type="line"/>
      <point x="841" y="482"/>
      <point x="788" y="557"/>
      <point x="677" y="557" type="curve"/>
      <point x="610" y="557"/>
      <point x="554" y="514"/>
      <point x="497" y="453" type="curve"/>
      <point x="475" y="517"/>
      <point x="431" y="557"/>
      <point x="347" y="557" type="curve"/>
      <point x="282" y="557"/>
      <point x="226" y="516"/>
      <point x="178" y="464" type="curve"/>
      <point x="176" y="464" type="line"/>
      <point x="167" y="543" type="line"/>
      <point x="92" y="543" type="line"/>
    </contour>
  </outline>
</glyph>
<glyph name="n" format="2">
  <advance width="610" height="1000"/>
  <unicode hex="006E"/>
  <outline>
    <contour>
      <point x="92" y="0" type="line"/>
      <point x="184" y="0" type="line"/>
      <point x="184" y="394" type="line"/>
      <point x="238" y="449"/>
      <point x="276" y="477"/>
      <point x="332" y="477" type="curve"/>
      <point x="404" y="477"/>
      <point x="435" y="434"/>
      <point x="435" y="332" type="curve"/>
      <point x="435" y="0" type="line"/>
      <point x="526" y="0" type="line"/>
      <point x="526" y="344" type="line"/>
      <point x="526" y="482"/>
      <point x="474" y="557"/>
      <point x="360" y="557" type="curve"/>
      <point x="286" y="557"/>
      <point x="229" y="516"/>
      <point x="178" y="464" type="curve"/>
      <point x="176" y="464" type="line"/>
      <point x="167" y="543" type="line"/>
      <point x="92" y="543" type="line"/>
    </contour>
  </outline>
</glyph>
<glyph name="p" format="2">
  <advance width="620" height="1000"/>
  <unicode hex="0070"/>
  <outline>
    <contour>
      <point x="92" y="-229" type="line"/>
      <point x="184" y="-229" type="line"/>
      <point x="184" y="-45" type="line"/>
      <point x="181" y="50" type="line"/>
      <point x="230" y="9"/>
      <point x="282" y="-13"/>
      <point x="331" y="-13" type="curve"/>
      <point x="455" y="-13"/>
      <point x="567" y="94"/>
      <point x="567" y="280" type="curve"/>
      <point x="567" y="448"/>
      <point x="491" y="557"/>
      <point x="351" y="557" type="curve"/>
      <point x="288" y="557"/>
      <point x="227" y="521"/>
      <point x="178" y="480" type="curve"/>
      <point x="176" y="480" type="line"/>
      <point x="167" y="543" type="line"/>
      <point x="92" y="543" type="line"/>
    </contour>
    <contour>
      <point x="316" y="64" type="curve"/>
      <point x="280" y="64"/>
      <point x="232" y="78"/>
      <point x="184" y="120" type="curve"/>
      <point x="184" y="406" type="line"/>
      <point x="236" y="454"/>
      <point x="283" y="480"/>
      <point x="328" y="480" type="curve"/>
      <point x="432" y="480"/>
      <point x="472" y="400"/>
      <point x="472" y="279" type="curve"/>
      <point x="472" y="145"/>
      <point x="406" y="64"/>
    </contour>
  </outline>
</glyph>
<glyph name="q" format="2">
  <advance width="620" height="1000"/>
  <unicode hex="0071"/>
  <outline>
    <contour>
      <point x="436" y="-229" type="line"/>
      <point x="528" y="-229" type="line"/>
      <point x="528" y="543" type="line"/>
      <point x="455" y="543" type="line"/>
      <point x="446" y="492" type="line"/>
      <point x="444" y="492" type="line"/>
      <point x="396" y="534"/>
      <point x="352" y="557"/>
      <point x="288" y="557" type="curve"/>
      <point x="164" y="557"/>
      <point x="53" y="447"/>
      <point x="53" y="271" type="curve"/>
      <point x="53" y="90"/>
      <point x="141" y="-13"/>
      <point x="277" y="-13" type="curve"/>
      <point x="340" y="-13"/>
      <point x="397" y="20"/>
      <point x="441" y="63" type="curve"/>
      <point x="436" y="-36" type="line"/>
    </contour>
    <contour>
      <point x="297" y="64" type="curve"/>
      <point x="202" y="64"/>
      <point x="147" y="141"/>
      <point x="147" y="272" type="curve"/>
      <point x="147" y="396"/>
      <point x="217" y="480"/>
      <point x="304" y="480" type="curve"/>
      <point x="349" y="480"/>
      <point x="391" y="464"/>
      <point x="436" y="423" type="curve"/>
      <point x="436" y="138" type="line"/>
      <point x="391" y="88"/>
      <point x="347" y="64"/>
    </contour>
  </outline>
</glyph>
<glyph name="s" format="2">
  <advance width="468" height="1000"/>
  <unicode hex="0073"/>
  <outline>
    <contour>
      <point x="234" y="-13" type="curve"/>
      <point x="362" y="-13"/>
      <point x="431" y="60"/>
      <point x="431" y="148" type="curve"/>
      <point x="431" y="251"/>
      <point x="345" y="283"/>
      <point x="266" y="313" type="curve"/>
      <point x="205" y="336"/>
      <point x="149" y="356"/>
      <point x="149" y="407" type="curve"/>
      <point x="149" y="450"/>
      <point x="181" y="486"/>
      <point x="250" y="486" type="curve"/>
      <point x="298" y="486"/>
      <point x="336" y="465"/>
      <point x="373" y="438" type="curve"/>
      <point x="417" y="495" type="line"/>
      <point x="376" y="529"/>
      <point x="316" y="557"/>
      <point x="249" y="557" type="curve"/>
      <point x="130" y="557"/>
      <point x="62" y="489"/>
      <point x="62" y="403" type="curve"/>
      <point x="62" y="310"/>
      <point x="144" y="274"/>
      <point x="220" y="246" type="curve"/>
      <point x="280" y="224"/>
      <point x="344" y="198"/>
      <point x="344" y="143" type="curve"/>
      <point x="344" y="96"/>
      <point x="309" y="58"/>
      <point x="237" y="58" type="curve"/>
      <point x="172" y="58"/>
      <point x="124" y="84"/>
      <point x="76" y="123" type="curve"/>
      <point x="32" y="62" type="line"/>
      <point x="83" y="19"/>
      <point x="157" y="-13"/>
    </contour>
  </outline>
</glyph>
<glyph name="t" format="2">
  <advance width="377" height="1000"/>
  <unicode hex="0074"/>
  <outline>
    <contour>
      <point x="262" y="-13" type="curve"/>
      <point x="296" y="-13"/>
      <point x="332" y="-3"/>
      <point x="363" y="7" type="curve"/>
      <point x="345" y="76" type="line"/>
      <point x="327" y="68"/>
      <point x="303" y="61"/>
      <point x="283" y="61" type="curve"/>
      <point x="220" y="61"/>
      <point x="199" y="99"/>
      <point x="199" y="165" type="curve"/>
      <point x="199" y="469" type="line"/>
      <point x="347" y="469" type="line"/>
      <point x="347" y="543" type="line"/>
      <point x="199" y="543" type="line"/>
      <point x="199" y="696" type="line"/>
      <point x="123" y="696" type="line"/>
      <point x="113" y="543" type="line"/>
      <point x="27" y="538" type="line"/>
      <point x="27" y="469" type="line"/>
      <point x="108" y="469" type="line"/>
      <point x="108" y="168" type="line"/>
      <point x="108" y="59"/>
      <point x="147" y="-13"/>
    </contour>
  </outline>
</glyph>
<glyph name="w" format="2">
  <advance width="802" height="1000"/>
  <unicode hex="0077"/>
  <outline>
    <contour>
      <point x="178" y="0" type="line"/>
      <point x="284" y="0" type="line"/>
      <point x="361" y="291" type="line"/>
      <point x="375" y="343"/>
      <point x="386" y="394"/>
      <point x="398" y="449" type="curve"/>
      <point x="403" y="449" type="line"/>
      <point x="416" y="394"/>
      <point x="426" y="344"/>
      <point x="440" y="293" type="curve"/>
      <point x="518" y="0" type="line"/>
      <point x="629" y="0" type="line"/>
      <point x="776" y="543" type="line"/>
      <point x="688" y="543" type="line"/>
      <point x="609" y="229" type="line"/>
      <point x="597" y="177"/>
      <point x="587" y="128"/>
      <point x="576" y="78" type="curve"/>
      <point x="571" y="78" type="line"/>
      <point x="558" y="128"/>
      <point x="546" y="177"/>
      <point x="533" y="229" type="curve"/>
      <point x="448" y="543" type="line"/>
      <point x="359" y="543" type="line"/>
      <point x="274" y="229" type="line"/>
      <point x="261" y="177"/>
      <point x="249" y="128"/>
      <point x="238" y="78" type="curve"/>
      <point x="233" y="78" type="line"/>
      <point x="222" y="128"/>
      <point x="212" y="177"/>
      <point x="201" y="229" type="curve"/>
      <point x="120" y="543" type="line"/>
      <point x="27" y="543" type="line"/>
    </contour>
  </outline>
</glyph>
<glyph name="z" format="2">
  <advance width="475" height="1000"/>
  <unicode hex="007A"/>
  <outline>
    <contour>
      <point x="35" y="0" type="line"/>
      <point x="446" y="0" type="line"/>
      <point x="446" y="74" type="line"/>
      <point x="150" y="74" type="line"/>
      <point x="437" y="494" type="line"/>
      <point x="437" y="543" type="line"/>
      <point x="66" y="543" type="line"/>
      <point x="66" y="469" type="line"/>
      <point x="321" y="469" type="line"/>
      <point x="35" y="49" type="line"/>
    </contour>
  </outline>
</glyph>
<glyph name="braceleft" format="2">
  <advance width="338" height="1000"/>
  <unicode hex="007B"/>
  <outline>
    <contour>
      <point x="254" y="-170" type="curve"/>
      <point x="304" y="-170" type="line"/>
      <point x="304" y="-118" type="line"/>
      <point x="275" y="-118" type="line"/>
      <point x="215" y="-118"/>
      <point x="199" y="-88"/>
      <point x="199" y="-16" type="curve"/>
      <point x="199" y="52"/>
      <point x="205" y="111"/>
      <point x="205" y="187" type="curve"/>
      <point x="205" y="258"/>
      <point x="187" y="295"/>
      <point x="138" y="308" type="curve"/>
      <point x="138" y="313" type="line"/>
      <point x="187" y="326"/>
      <point x="205" y="362"/>
      <point x="205" y="434" type="curve"/>
      <point x="205" y="511"/>
      <point x="199" y="569"/>
      <point x="199" y="637" type="curve"/>
      <point x="199" y="710"/>
      <point x="215" y="739"/>
      <point x="275" y="739" type="curve"/>
      <point x="304" y="739" type="line"/>
      <point x="304" y="792" type="line"/>
      <point x="254" y="792" type="line"/>
      <point x="166" y="792"/>
      <point x="124" y="758"/>
      <point x="124" y="642" type="curve"/>
      <point x="124" y="561"/>
      <point x="134" y="502"/>
      <point x="134" y="426" type="curve"/>
      <point x="134" y="384"/>
      <point x="114" y="341"/>
      <point x="38" y="340" type="curve"/>
      <point x="38" y="282" type="line"/>
      <point x="114" y="282"/>
      <point x="134" y="239"/>
      <point x="134" y="194" type="curve"/>
      <point x="134" y="119"/>
      <point x="124" y="60"/>
      <point x="124" y="-22" type="curve"/>
      <point x="124" y="-137"/>
      <point x="166" y="-170"/>
    </contour>
  </outline>
</glyph>
<glyph name="bar" format="2">
  <advance width="270" height="1000"/>
  <unicode hex="007C"/>
  <outline>
    <contour>
      <point x="103" y="-279" type="line"/>
      <point x="167" y="-279" type="line"/>
      <point x="167" y="838" type="line"/>
      <point x="103" y="838" type="line"/>
    </contour>
  </outline>
</glyph>
<glyph name="braceright" format="2">
  <advance width="338" height="1000"/>
  <unicode hex="007D"/>
  <outline>
    <contour>
      <point x="34" y="-170" type="line"/>
      <point x="84" y="-170" type="line"/>
      <point x="172" y="-170"/>
      <point x="215" y="-137"/>
      <point x="215" y="-22" type="curve"/>
      <point x="215" y="60"/>
      <point x="205" y="119"/>
      <point x="205" y="194" type="curve"/>
      <point x="205" y="239"/>
      <point x="225" y="282"/>
      <point x="300" y="282" type="curve"/>
      <point x="300" y="340" type="line"/>
      <point x="225" y="341"/>
      <point x="205" y="384"/>
      <point x="205" y="426" type="curve"/>
      <point x="205" y="502"/>
      <point x="215" y="561"/>
      <point x="215" y="642" type="curve"/>
      <point x="215" y="758"/>
      <point x="172" y="792"/>
      <point x="84" y="792" type="curve"/>
      <point x="34" y="792" type="line"/>
      <point x="34" y="739" type="line"/>
      <point x="63" y="739" type="line"/>
      <point x="123" y="739"/>
      <point x="139" y="710"/>
      <point x="139" y="637" type="curve"/>
      <point x="139" y="569"/>
      <point x="134" y="511"/>
      <point x="134" y="434" type="curve"/>
      <point x="134" y="362"/>
      <point x="151" y="326"/>
      <point x="200" y="313" type="curve"/>
      <point x="200" y="308" type="line"/>
      <point x="151" y="295"/>
      <point x="134" y="258"/>
      <point x="134" y="187" type="curve"/>
      <point x="134" y="111"/>
      <point x="139" y="52"/>
      <point x="139" y="-16" type="curve"/>
      <point x="139" y="-88"/>
      <point x="123" y="-118"/>
      <point x="63" y="-118" type="curve"/>
      <point x="34" y="-118" type="line"/>
    </contour>
  </outline>
</glyph>
<glyph name="asciitilde" format="2">
  <advance width="555" height="1000"/>
  <unicode hex="007E"/>
  <outline>
    <contour>
      <point x="376" y="287" type="curve"/>
      <point x="424" y="287"/>
      <point x="474" y="317"/>
      <point x="515" y="387" type="curve"/>
      <point x="464" y="424" type="line"/>
      <point x="438" y="376"/>
      <point x="410" y="356"/>
      <point x="378" y="356" type="curve"/>
      <point x="315" y="356"/>
      <point x="268" y="451"/>
      <point x="180" y="451" type="curve"/>
      <point x="132" y="451"/>
      <point x="81" y="420"/>
      <point x="41" y="350" type="curve"/>
      <point x="92" y="314" type="line"/>
      <point x="117" y="362"/>
      <point x="145" y="382"/>
      <point x="177" y="382" type="curve"/>
      <point x="241" y="382"/>
      <point x="288" y="287"/>
    </contour>
  </outline>
</glyph>
<glyph name="exclamdown" format="2">
  <advance width="323" height="1000"/>
  <unicode hex="00A1"/>
  <outline>
    <contour>
      <point x="115" y="-206" type="line"/>
      <point x="207" y="-206" type="line"/>
      <point x="205" y="-101" type="line"/>
      <point x="193" y="322" type="line"/>
      <point x="130" y="322" type="line"/>
      <point x="117" y="-101" type="line"/>
    </contour>
    <contour>
      <point x="161" y="416" type="curve"/>
      <point x="198" y="416"/>
      <point x="227" y="446"/>
      <point x="227" y="487" type="curve"/>
      <point x="227" y="528"/>
      <point x="198" y="557"/>
      <point x="161" y="557" type="curve"/>
      <point x="125" y="557"/>
      <point x="95" y="528"/>
      <point x="95" y="487" type="curve"/>
      <point x="95" y="446"/>
      <point x="125" y="416"/>
    </contour>
  </outline>
</glyph>
<glyph name="cent" format="2">
  <advance width="555" height="1000"/>
  <unicode hex="00A2"/>
  <outline>
    <contour>
      <point x="293" y="-36" type="line"/>
      <point x="351" y="-36" type="line"/>
      <point x="351" y="78" type="line"/>
      <point x="409" y="82"/>
      <point x="464" y="108"/>
      <point x="508" y="148" type="curve"/>
      <point x="467" y="207" type="line"/>
      <point x="436" y="180"/>
      <point x="397" y="157"/>
      <point x="351" y="153" type="curve"/>
      <point x="351" y="539" type="line"/>
      <point x="390" y="536"/>
      <point x="423" y="519"/>
      <point x="452" y="492" type="curve"/>
      <point x="497" y="550" type="line"/>
      <point x="462" y="583"/>
      <point x="416" y="611"/>
      <point x="351" y="615" type="curve"/>
      <point x="351" y="730" type="line"/>
      <point x="293" y="730" type="line"/>
      <point x="293" y="612" type="line"/>
      <point x="167" y="595"/>
      <point x="68" y="501"/>
      <point x="68" y="346" type="curve"/>
      <point x="68" y="191"/>
      <point x="159" y="95"/>
      <point x="293" y="79" type="curve"/>
    </contour>
    <contour>
      <point x="293" y="158" type="line"/>
      <point x="209" y="177"/>
      <point x="158" y="247"/>
      <point x="158" y="346" type="curve"/>
      <point x="158" y="444"/>
      <point x="211" y="514"/>
      <point x="293" y="533" type="curve"/>
    </contour>
  </outline>
</glyph>
<glyph name="currency" format="2">
  <advance width="555" height="1000"/>
  <unicode hex="00A4"/>
  <outline>
    <contour>
      <point x="78" y="115" type="line"/>
      <point x="154" y="192" type="line"/>
      <point x="189" y="165"/>
      <point x="232" y="150"/>
      <point x="278" y="150" type="curve"/>
      <point x="322" y="150"/>
      <point x="366" y="165"/>
      <point x="400" y="192" type="curve"/>
      <point x="477" y="115" type="line"/>
      <point x="525" y="165" type="line"/>
      <point x="454" y="238" type="line"/>
      <point x="479" y="273"/>
      <point x="494" y="316"/>
      <point x="494" y="368" type="curve"/>
      <point x="494" y="419"/>
      <point x="480" y="464"/>
      <point x="453" y="498" type="curve"/>
      <point x="525" y="572" type="line"/>
      <point x="477" y="622" type="line"/>
      <point x="401" y="544" type="line"/>
      <point x="366" y="571"/>
      <point x="322" y="586"/>
      <point x="278" y="586" type="curve"/>
      <point x="232" y="586"/>
      <point x="188" y="571"/>
      <point x="154" y="544" type="curve"/>
      <point x="78" y="622" type="line"/>
      <point x="30" y="572" type="line"/>
      <point x="101" y="498" type="line"/>
      <point x="75" y="464"/>
      <point x="61" y="419"/>
      <point x="61" y="368" type="curve"/>
      <point x="61" y="316"/>
      <point x="75" y="273"/>
      <point x="101" y="238" type="curve"/>
      <point x="30" y="165" type="line"/>
    </contour>
    <contour>
      <point x="278" y="218" type="curve"/>
      <point x="205" y="218"/>
      <point x="145" y="278"/>
      <point x="145" y="368" type="curve"/>
      <point x="145" y="457"/>
      <point x="205" y="518"/>
      <point x="278" y="518" type="curve"/>
      <point x="350" y="518"/>
      <point x="411" y="457"/>
      <point x="411" y="368" type="curve"/>
      <point x="411" y="278"/>
      <point x="350" y="218"/>
    </contour>
  </outline>
</glyph>
<glyph name="yen" format="2">
  <advance width="555" height="1000"/>
  <unicode hex="00A5"/>
  <outline>
    <contour>
      <point x="232" y="0" type="line"/>
      <point x="322" y="0" type="line"/>
      <point x="322" y="178" type="line"/>
      <point x="505" y="178" type="line"/>
      <point x="505" y="230" type="line"/>
      <point x="322" y="230" type="line"/>
      <point x="322" y="302" type="line"/>
      <point x="505" y="302" type="line"/>
      <point x="505" y="355" type="line"/>
      <point x="345" y="355" type="line"/>
      <point x="529" y="713" type="line"/>
      <point x="436" y="713" type="line"/>
      <point x="349" y="521" type="line"/>
      <point x="326" y="472"/>
      <point x="305" y="423"/>
      <point x="281" y="370" type="curve"/>
      <point x="276" y="370" type="line"/>
      <point x="253" y="423"/>
      <point x="231" y="472"/>
      <point x="209" y="521" type="curve"/>
      <point x="122" y="713" type="line"/>
      <point x="26" y="713" type="line"/>
      <point x="208" y="355" type="line"/>
      <point x="51" y="355" type="line"/>
      <point x="51" y="302" type="line"/>
      <point x="232" y="302" type="line"/>
      <point x="232" y="230" type="line"/>
      <point x="51" y="230" type="line"/>
      <point x="51" y="178" type="line"/>
      <point x="232" y="178" type="line"/>
    </contour>
  </outline>
</glyph>
<glyph name="brokenbar" format="2">
  <advance width="270" height="1000"/>
  <unicode hex="00A6"/>
  <outline>
    <contour>
      <point x="103" y="325" type="line"/>
      <point x="167" y="325" type="line"/>
      <point x="167" y="838" type="line"/>
      <point x="103" y="838" type="line"/>
    </contour>
    <contour>
      <point x="103" y="-279" type="line"/>
      <point x="167" y="-279" type="line"/>
      <point x="167" y="239" type="line"/>
      <point x="103" y="239" type="line"/>
    </contour>
  </outline>
</glyph>
<glyph name="section" format="2">
  <advance width="1000" height="1000"/>
  <unicode hex="00A7"/>
  <outline>
    <contour>
      <point x="669" y="669" type="curve"/>
      <point x="694" y="731" type="line"/>
      <point x="656" y="753"/>
      <point x="595" y="776"/>
      <point x="518" y="776" type="curve"/>
      <point x="387" y="776"/>
      <point x="304" y="705"/>
      <point x="304" y="614" type="curve"/>
      <point x="303" y="582"/>
      <point x="319" y="542"/>
      <point x="344" y="523" type="curve"/>
      <point x="290" y="483"/>
      <point x="267" y="431"/>
      <point x="267" y="392" type="curve"/>
      <point x="267" y="300"/>
      <point x="337" y="257"/>
      <point x="469" y="218" type="curve"/>
      <point x="592" y="181"/>
      <point x="626" y="152"/>
      <point x="626" y="100" type="curve"/>
      <point x="626" y="43"/>
      <point x="573" y="-2"/>
      <point x="486" y="-2" type="curve"/>
      <point x="407" y="-2"/>
      <point x="353" y="25"/>
      <point x="325" y="47" type="curve"/>
      <point x="297" y="-14" type="line"/>
      <point x="340" y="-47"/>
      <point x="405" y="-64"/>
      <point x="484" y="-64" type="curve"/>
      <point x="607" y="-64"/>
      <point x="708" y="4"/>
      <point x="708" y="109" type="curve"/>
      <point x="708" y="154"/>
      <point x="686" y="192"/>
      <point x="666" y="208" type="curve"/>
      <point x="705" y="240"/>
      <point x="732" y="292"/>
      <point x="732" y="349" type="curve"/>
      <point x="732" y="440"/>
      <point x="659" y="487"/>
      <point x="539" y="519" type="curve"/>
      <point x="450" y="543"/>
      <point x="384" y="566"/>
      <point x="384" y="626" type="curve"/>
      <point x="384" y="668"/>
      <point x="432" y="713"/>
      <point x="508" y="713" type="curve"/>
      <point x="582" y="713"/>
      <point x="641" y="688"/>
    </contour>
    <contour>
      <point x="342" y="404" type="curve"/>
      <point x="342" y="433"/>
      <point x="357" y="464"/>
      <point x="391" y="492" type="curve"/>
      <point x="475" y="446"/>
      <point x="657" y="436"/>
      <point x="657" y="331" type="curve"/>
      <point x="657" y="298"/>
      <point x="643" y="263"/>
      <point x="618" y="241" type="curve"/>
      <point x="598" y="253"/>
      <point x="559" y="268"/>
      <point x="478" y="295" type="curve"/>
      <point x="359" y="334"/>
      <point x="342" y="365"/>
    </contour>
  </outline>
</glyph>
<glyph name="dieresis" format="2">
  <advance width="606" height="1000"/>
  <unicode hex="00A8"/>
  <outline>
    <contour>
      <point x="410" y="657" type="curve"/>
      <point x="442" y="657"/>
      <point x="465" y="681"/>
      <point x="465" y="712" type="curve"/>
      <point x="465" y="743"/>
      <point x="442" y="767"/>
      <point x="410" y="767" type="curve"/>
      <point x="378" y="767"/>
      <point x="355" y="743"/>
      <point x="355" y="712" type="curve"/>
      <point x="355" y="681"/>
      <point x="378" y="657"/>
    </contour>
    <contour>
      <point x="196" y="657" type="curve"/>
      <point x="227" y="657"/>
      <point x="251" y="681"/>
      <point x="251" y="712" type="curve"/>
      <point x="251" y="743"/>
      <point x="227" y="767"/>
      <point x="196" y="767" type="curve"/>
      <point x="163" y="767"/>
      <point x="141" y="743"/>
      <point x="141" y="712" type="curve"/>
      <point x="141" y="681"/>
      <point x="163" y="657"/>
    </contour>
  </outline>
</glyph>
<glyph name="copyright" format="2">
  <advance width="832" height="1000"/>
  <unicode hex="00A9"/>
  <outline>
    <contour>
      <point x="416" y="-11" type="curve"/>
      <point x="611" y="-11"/>
      <point x="777" y="134"/>
      <point x="777" y="361" type="curve"/>
      <point x="777" y="588"/>
      <point x="611" y="730"/>
      <point x="416" y="730" type="curve"/>
      <point x="222" y="730"/>
      <point x="55" y="588"/>
      <point x="55" y="361" type="curve"/>
      <point x="55" y="134"/>
      <point x="222" y="-11"/>
    </contour>
    <contour>
      <point x="416" y="34" type="curve"/>
      <point x="247" y="34"/>
      <point x="107" y="166"/>
      <point x="107" y="361" type="curve"/>
      <point x="107" y="556"/>
      <point x="247" y="685"/>
      <point x="416" y="685" type="curve"/>
      <point x="584" y="685"/>
      <point x="725" y="556"/>
      <point x="725" y="361" type="curve"/>
      <point x="725" y="166"/>
      <point x="584" y="34"/>
    </contour>
    <contour>
      <point x="424" y="140" type="curve"/>
      <point x="491" y="140"/>
      <point x="534" y="168"/>
      <point x="576" y="203" type="curve"/>
      <point x="542" y="251" type="line"/>
      <point x="509" y="223"/>
      <point x="476" y="201"/>
      <point x="428" y="201" type="curve"/>
      <point x="347" y="201"/>
      <point x="296" y="262"/>
      <point x="296" y="361" type="curve"/>
      <point x="296" y="449"/>
      <point x="349" y="511"/>
      <point x="432" y="511" type="curve"/>
      <point x="471" y="511"/>
      <point x="498" y="494"/>
      <point x="529" y="465" type="curve"/>
      <point x="567" y="509" type="line"/>
      <point x="532" y="545"/>
      <point x="491" y="572"/>
      <point x="428" y="572" type="curve"/>
      <point x="320" y="572"/>
      <point x="222" y="491"/>
      <point x="222" y="361" type="curve"/>
      <point x="222" y="223"/>
      <point x="312" y="140"/>
    </contour>
  </outline>
</glyph>
<glyph name="ordfeminine" format="2">
  <advance width="386" height="1000"/>
  <unicode hex="00AA"/>
  <outline>
    <contour>
      <point x="152" y="432" type="curve"/>
      <point x="198" y="432"/>
      <point x="235" y="456"/>
      <point x="266" y="482" type="curve"/>
      <point x="270" y="482" type="line"/>
      <point x="278" y="441" type="line"/>
      <point x="332" y="441" type="line"/>
      <point x="332" y="660" type="line"/>
      <point x="332" y="754"/>
      <point x="294" y="809"/>
      <point x="205" y="809" type="curve"/>
      <point x="147" y="809"/>
      <point x="92" y="785"/>
      <point x="56" y="762" type="curve"/>
      <point x="81" y="715" type="line"/>
      <point x="111" y="734"/>
      <point x="155" y="753"/>
      <point x="195" y="753" type="curve"/>
      <point x="247" y="753"/>
      <point x="262" y="718"/>
      <point x="264" y="670" type="curve"/>
      <point x="110" y="656"/>
      <point x="42" y="616"/>
      <point x="42" y="537" type="curve"/>
      <point x="42" y="474"/>
      <point x="86" y="432"/>
    </contour>
    <contour>
      <point x="172" y="488" type="curve"/>
      <point x="134" y="488"/>
      <point x="109" y="505"/>
      <point x="109" y="543" type="curve"/>
      <point x="109" y="585"/>
      <point x="149" y="614"/>
      <point x="264" y="627" type="curve"/>
      <point x="264" y="532" type="line"/>
      <point x="231" y="502"/>
      <point x="202" y="488"/>
    </contour>
  </outline>
</glyph>
<glyph name="logicalnot" format="2">
  <advance width="555" height="1000"/>
  <unicode hex="00AC"/>
  <outline>
    <contour>
      <point x="444" y="116" type="line"/>
      <point x="518" y="116" type="line"/>
      <point x="518" y="403" type="line"/>
      <point x="38" y="403" type="line"/>
      <point x="38" y="335" type="line"/>
      <point x="444" y="335" type="line"/>
    </contour>
  </outline>
</glyph>
<glyph name="registered" format="2">
  <advance width="473" height="1000"/>
  <unicode hex="00AE"/>
  <outline>
    <contour>
      <point x="236" y="357" type="curve"/>
      <point x="351" y="357"/>
      <point x="446" y="446"/>
      <point x="446" y="577" type="curve"/>
      <point x="446" y="707"/>
      <point x="351" y="797"/>
      <point x="236" y="797" type="curve"/>
      <point x="121" y="797"/>
      <point x="26" y="707"/>
      <point x="26" y="577" type="curve"/>
      <point x="26" y="446"/>
      <point x="121" y="357"/>
    </contour>
    <contour>
      <point x="236" y="397" type="curve"/>
      <point x="142" y="397"/>
      <point x="70" y="471"/>
      <point x="70" y="577" type="curve"/>
      <point x="70" y="682"/>
      <point x="142" y="757"/>
      <point x="236" y="757" type="curve"/>
      <point x="330" y="757"/>
      <point x="402" y="682"/>
      <point x="402" y="577" type="curve"/>
      <point x="402" y="471"/>
      <point x="330" y="397"/>
    </contour>
    <contour>
      <point x="155" y="466" type="line"/>
      <point x="201" y="466" type="line"/>
      <point x="201" y="545" type="line"/>
      <point x="246" y="545" type="line"/>
      <point x="286" y="466" type="line"/>
      <point x="337" y="466" type="line"/>
      <point x="285" y="559" type="line"/>
      <point x="310" y="568"/>
      <point x="327" y="594"/>
      <point x="327" y="621" type="curve"/>
      <point x="327" y="674"/>
      <point x="286" y="693"/>
      <point x="240" y="693" type="curve"/>
      <point x="155" y="693" type="line"/>
    </contour>
    <contour>
      <point x="201" y="580" type="line"/>
      <point x="201" y="656" type="line"/>
      <point x="232" y="656" type="line"/>
      <point x="266" y="656"/>
      <point x="279" y="640"/>
      <point x="279" y="618" type="curve"/>
      <point x="279" y="592"/>
      <point x="260" y="580"/>
      <point x="229" y="580" type="curve"/>
    </contour>
  </outline>
</glyph>
<glyph name="macron" format="2">
  <advance width="606" height="1000"/>
  <unicode hex="00AF"/>
  <outline>
    <contour>
      <point x="156" y="671" type="line"/>
      <point x="451" y="671" type="line"/>
      <point x="451" y="736" type="line"/>
      <point x="156" y="736" type="line"/>
    </contour>
  </outline>
</glyph>
<glyph name="degree" format="2">
  <advance width="370" height="1000"/>
  <unicode hex="00B0"/>
  <outline>
    <contour>
      <point x="186" y="480" type="curve"/>
      <point x="260" y="480"/>
      <point x="325" y="536"/>
      <point x="325" y="622" type="curve"/>
      <point x="325" y="709"/>
      <point x="260" y="765"/>
      <point x="186" y="765" type="curve"/>
      <point x="111" y="765"/>
      <point x="45" y="709"/>
      <point x="45" y="622" type="curve"/>
      <point x="45" y="536"/>
      <point x="111" y="480"/>
    </contour>
    <contour>
      <point x="186" y="531" type="curve"/>
      <point x="136" y="531"/>
      <point x="101" y="569"/>
      <point x="101" y="622" type="curve"/>
      <point x="101" y="676"/>
      <point x="136" y="715"/>
      <point x="186" y="715" type="curve"/>
      <point x="235" y="715"/>
      <point x="270" y="676"/>
      <point x="270" y="622" type="curve"/>
      <point x="270" y="569"/>
      <point x="235" y="531"/>
    </contour>
  </outline>
</glyph>
<glyph name="plusminus" format="2">
  <advance width="1000" height="1000"/>
  <unicode hex="00B1"/>
  <outline>
    <contour>
      <point x="466" y="186" type="line"/>
      <point x="534" y="186" type="line"/>
      <point x="534" y="461" type="line"/>
      <point x="863" y="461" type="line"/>
      <point x="863" y="530" type="line"/>
      <point x="534" y="530" type="line"/>
      <point x="534" y="804" type="line"/>
      <point x="466" y="804" type="line"/>
      <point x="466" y="530" type="line"/>
      <point x="137" y="530" type="line"/>
      <point x="137" y="461" type="line"/>
      <point x="466" y="461" type="line"/>
    </contour>
    <contour>
      <point x="137" y="18" type="line"/>
      <point x="867" y="18" type="line"/>
      <point x="867" y="87" type="line"/>
      <point x="137" y="87" type="line"/>
    </contour>
  </outline>
</glyph>
<glyph name="threesuperior" format="2">
  <advance width="411" height="1000"/>
  <unicode hex="00B3"/>
  <outline>
    <contour>
      <point x="201" y="428" type="curve"/>
      <point x="286" y="428"/>
      <point x="356" y="478"/>
      <point x="356" y="559" type="curve"/>
      <point x="356" y="616"/>
      <point x="312" y="653"/>
      <point x="262" y="667" type="curve"/>
      <point x="307" y="687"/>
      <point x="339" y="722"/>
      <point x="339" y="774" type="curve"/>
      <point x="339" y="846"/>
      <point x="276" y="891"/>
      <point x="199" y="891" type="curve"/>
      <point x="139" y="891"/>
      <point x="94" y="862"/>
      <point x="58" y="819" type="curve"/>
      <point x="101" y="781" type="line"/>
      <point x="125" y="812"/>
      <point x="157" y="834"/>
      <point x="189" y="834" type="curve"/>
      <point x="237" y="834"/>
      <point x="268" y="806"/>
      <point x="268" y="764" type="curve"/>
      <point x="268" y="720"/>
      <point x="224" y="686"/>
      <point x="149" y="686" type="curve"/>
      <point x="149" y="640" type="line"/>
      <point x="236" y="640"/>
      <point x="285" y="614"/>
      <point x="285" y="562" type="curve"/>
      <point x="285" y="513"/>
      <point x="246" y="485"/>
      <point x="198" y="485" type="curve"/>
      <point x="152" y="485"/>
      <point x="114" y="509"/>
      <point x="87" y="549" type="curve"/>
      <point x="40" y="513" type="line"/>
      <point x="73" y="464"/>
      <point x="131" y="428"/>
    </contour>
  </outline>
</glyph>
<glyph name="acute" format="2">
  <advance width="606" height="1000"/>
  <unicode hex="00B4"/>
  <outline>
    <contour>
      <point x="286" y="640" type="line"/>
      <point x="462" y="812" type="line"/>
      <point x="398" y="872" type="line"/>
      <point x="239" y="686" type="line"/>
    </contour>
  </outline>
</glyph>
<glyph name="mu" format="2">
  <advance width="628" height="1000"/>
  <unicode hex="00B5"/>
  <outline>
    <contour>
      <point x="92" y="-200" type="line"/>
      <point x="184" y="-200" type="line"/>
      <point x="178" y="-114"/>
      <point x="177" y="-66"/>
      <point x="176" y="41" type="curve"/>
      <point x="202" y="-2"/>
      <point x="237" y="-11"/>
      <point x="282" y="-11" type="curve"/>
      <point x="341" y="-11"/>
      <point x="394" y="22"/>
      <point x="433" y="92" type="curve"/>
      <point x="435" y="92" type="line"/>
      <point x="442" y="19"/>
      <point x="471" y="-13"/>
      <point x="533" y="-13" type="curve"/>
      <point x="563" y="-13"/>
      <point x="581" y="-7"/>
      <point x="598" y="0" type="curve"/>
      <point x="586" y="69" type="line"/>
      <point x="572" y="65"/>
      <point x="562" y="63"/>
      <point x="552" y="63" type="curve"/>
      <point x="529" y="63"/>
      <point x="513" y="75"/>
      <point x="513" y="106" type="curve"/>
      <point x="513" y="237"/>
      <point x="517" y="396"/>
      <point x="519" y="543" type="curve"/>
      <point x="427" y="543" type="line"/>
      <point x="427" y="171" type="line"/>
      <point x="377" y="82"/>
      <point x="332" y="66"/>
      <point x="283" y="66" type="curve"/>
      <point x="213" y="66"/>
      <point x="184" y="115"/>
      <point x="184" y="210" type="curve"/>
      <point x="184" y="543" type="line"/>
      <point x="92" y="543" type="line"/>
    </contour>
  </outline>
</glyph>
<glyph name="paragraph" format="2">
  <advance width="1000" height="1000"/>
  <unicode hex="00B6"/>
  <outline>
    <contour>
      <point x="468" y="294" type="curve"/>
      <point x="477" y="294" type="line"/>
      <point x="477" y="-57" type="line"/>
      <point x="541" y="-57" type="line"/>
      <point x="541" y="701" type="line"/>
      <point x="626" y="701" type="line"/>
      <point x="626" y="-57" type="line"/>
      <point x="690" y="-57" type="line"/>
      <point x="690" y="755" type="line"/>
      <point x="664" y="761"/>
      <point x="625" y="764"/>
      <point x="558" y="764" type="curve"/>
      <point x="305" y="764"/>
      <point x="240" y="630"/>
      <point x="242" y="512" type="curve"/>
      <point x="243" y="363"/>
      <point x="374" y="294"/>
    </contour>
  </outline>
</glyph>
<glyph name="cedilla" format="2">
  <advance width="606" height="1000"/>
  <unicode hex="00B8"/>
  <outline>
    <contour>
      <point x="214" y="-253" type="line"/>
      <point x="331" y="-247"/>
      <point x="397" y="-215"/>
      <point x="397" y="-150" type="curve"/>
      <point x="397" y="-105"/>
      <point x="366" y="-84"/>
      <point x="316" y="-71" type="curve"/>
      <point x="349" y="3" type="line"/>
      <point x="289" y="3" type="line"/>
      <point x="240" y="-98" type="line"/>
      <point x="304" y="-108"/>
      <point x="326" y="-124"/>
      <point x="326" y="-152" type="curve"/>
      <point x="326" y="-185"/>
      <point x="297" y="-201"/>
      <point x="205" y="-207" type="curve"/>
    </contour>
  </outline>
</glyph>
<glyph name="onesuperior" format="2">
  <advance width="411" height="1000"/>
  <unicode hex="00B9"/>
  <outline>
    <contour>
      <point x="192" y="441" type="line"/>
      <point x="264" y="441" type="line"/>
      <point x="264" y="877" type="line"/>
      <point x="205" y="877" type="line"/>
      <point x="175" y="855"/>
      <point x="147" y="841"/>
      <point x="98" y="832" type="curve"/>
      <point x="98" y="786" type="line"/>
      <point x="192" y="786" type="line"/>
    </contour>
  </outline>
</glyph>
<glyph name="ordmasculine" format="2">
  <advance width="407" height="1000"/>
  <unicode hex="00BA"/>
  <outline>
    <contour>
      <point x="203" y="432" type="curve"/>
      <point x="295" y="432"/>
      <point x="373" y="503"/>
      <point x="373" y="621" type="curve"/>
      <point x="373" y="740"/>
      <point x="295" y="809"/>
      <point x="203" y="809" type="curve"/>
      <point x="111" y="809"/>
      <point x="33" y="740"/>
      <point x="33" y="621" type="curve"/>
      <point x="33" y="503"/>
      <point x="111" y="432"/>
    </contour>
    <contour>
      <point x="203" y="489" type="curve"/>
      <point x="141" y="489"/>
      <point x="103" y="543"/>
      <point x="103" y="621" type="curve"/>
      <point x="103" y="700"/>
      <point x="141" y="753"/>
      <point x="203" y="753" type="curve"/>
      <point x="265" y="753"/>
      <point x="302" y="700"/>
      <point x="302" y="621" type="curve"/>
      <point x="302" y="543"/>
      <point x="265" y="489"/>
    </contour>
  </outline>
</glyph>
<glyph name="guillemetright" format="2">
  <advance width="479" height="1000"/>
  <unicode hex="00BB"/>
  <outline>
    <contour>
      <point x="100" y="74" type="line"/>
      <point x="252" y="247" type="line"/>
      <point x="252" y="316" type="line"/>
      <point x="100" y="490" type="line"/>
      <point x="60" y="456" type="line"/>
      <point x="192" y="281" type="line"/>
      <point x="60" y="105" type="line"/>
    </contour>
    <contour>
      <point x="276" y="74" type="line"/>
      <point x="429" y="247" type="line"/>
      <point x="429" y="316" type="line"/>
      <point x="276" y="490" type="line"/>
      <point x="237" y="456" type="line"/>
      <point x="369" y="281" type="line"/>
      <point x="237" y="105" type="line"/>
    </contour>
  </outline>
</glyph>
<glyph name="onequarter" format="2">
  <advance width="873" height="1000"/>
  <unicode hex="00BC"/>
  <outline>
    <contour>
      <point x="166" y="298" type="line"/>
      <point x="236" y="298" type="line"/>
      <point x="236" y="733" type="line"/>
      <point x="178" y="733" type="line"/>
      <point x="148" y="711"/>
      <point x="119" y="697"/>
      <point x="71" y="688" type="curve"/>
      <point x="71" y="642" type="line"/>
      <point x="166" y="642" type="line"/>
    </contour>
    <contour>
      <point x="201" y="-13" type="line"/>
      <point x="263" y="-13" type="line"/>
      <point x="668" y="746" type="line"/>
      <point x="606" y="746" type="line"/>
    </contour>
    <contour>
      <point x="707" y="0" type="line"/>
      <point x="772" y="0" type="line"/>
      <point x="772" y="117" type="line"/>
      <point x="836" y="117" type="line"/>
      <point x="836" y="167" type="line"/>
      <point x="772" y="167" type="line"/>
      <point x="772" y="436" type="line"/>
      <point x="693" y="436" type="line"/>
      <point x="510" y="152" type="line"/>
      <point x="510" y="117" type="line"/>
      <point x="707" y="117" type="line"/>
    </contour>
    <contour>
      <point x="707" y="167" type="line"/>
      <point x="583" y="167" type="line"/>
      <point x="652" y="278" type="line"/>
      <point x="708" y="368" type="line"/>
      <point x="713" y="368" type="line"/>
      <point x="707" y="247" type="line"/>
    </contour>
  </outline>
</glyph>
<glyph name="onehalf" format="2">
  <advance width="903" height="1000"/>
  <unicode hex="00BD"/>
  <outline>
    <contour>
      <point x="178" y="-13" type="line"/>
      <point x="241" y="-13" type="line"/>
      <point x="645" y="746" type="line"/>
      <point x="583" y="746" type="line"/>
    </contour>
    <contour>
      <point x="166" y="298" type="line"/>
      <point x="236" y="298" type="line"/>
      <point x="236" y="733" type="line"/>
      <point x="178" y="733" type="line"/>
      <point x="148" y="711"/>
      <point x="119" y="697"/>
      <point x="71" y="688" type="curve"/>
      <point x="71" y="642" type="line"/>
      <point x="166" y="642" type="line"/>
    </contour>
    <contour>
      <point x="551" y="0" type="line"/>
      <point x="850" y="0" type="line"/>
      <point x="850" y="61" type="line"/>
      <point x="665" y="61" type="line"/>
      <point x="759" y="156"/>
      <point x="827" y="224"/>
      <point x="827" y="308" type="curve"/>
      <point x="827" y="400"/>
      <point x="769" y="449"/>
      <point x="683" y="449" type="curve"/>
      <point x="623" y="449"/>
      <point x="570" y="414"/>
      <point x="537" y="365" type="curve"/>
      <point x="580" y="326" type="line"/>
      <point x="604" y="362"/>
      <point x="636" y="390"/>
      <point x="673" y="390" type="curve"/>
      <point x="725" y="390"/>
      <point x="758" y="354"/>
      <point x="758" y="298" type="curve"/>
      <point x="758" y="231"/>
      <point x="686" y="163"/>
      <point x="551" y="41" type="curve"/>
    </contour>
  </outline>
</glyph>
<glyph name="threequarters" format="2">
  <advance width="889" height="1000"/>
  <unicode hex="00BE"/>
  <outline>
    <contour>
      <point x="200" y="284" type="curve"/>
      <point x="284" y="284"/>
      <point x="354" y="334"/>
      <point x="354" y="415" type="curve"/>
      <point x="354" y="473"/>
      <point x="310" y="510"/>
      <point x="260" y="523" type="curve"/>
      <point x="305" y="543"/>
      <point x="338" y="578"/>
      <point x="338" y="630" type="curve"/>
      <point x="338" y="702"/>
      <point x="274" y="746"/>
      <point x="198" y="746" type="curve"/>
      <point x="138" y="746"/>
      <point x="93" y="718"/>
      <point x="56" y="675" type="curve"/>
      <point x="99" y="637" type="line"/>
      <point x="123" y="668"/>
      <point x="155" y="690"/>
      <point x="188" y="690" type="curve"/>
      <point x="236" y="690"/>
      <point x="267" y="662"/>
      <point x="267" y="621" type="curve"/>
      <point x="267" y="576"/>
      <point x="223" y="542"/>
      <point x="147" y="542" type="curve"/>
      <point x="147" y="497" type="line"/>
      <point x="234" y="497"/>
      <point x="283" y="470"/>
      <point x="283" y="419" type="curve"/>
      <point x="283" y="370"/>
      <point x="244" y="340"/>
      <point x="196" y="340" type="curve"/>
      <point x="150" y="340"/>
      <point x="112" y="365"/>
      <point x="86" y="406" type="curve"/>
      <point x="38" y="369" type="line"/>
      <point x="71" y="320"/>
      <point x="129" y="284"/>
    </contour>
    <contour>
      <point x="244" y="-13" type="line"/>
      <point x="306" y="-13" type="line"/>
      <point x="710" y="746" type="line"/>
      <point x="649" y="746" type="line"/>
    </contour>
    <contour>
      <point x="724" y="0" type="line"/>
      <point x="788" y="0" type="line"/>
      <point x="788" y="117" type="line"/>
      <point x="853" y="117" type="line"/>
      <point x="853" y="167" type="line"/>
      <point x="788" y="167" type="line"/>
      <point x="788" y="436" type="line"/>
      <point x="709" y="436" type="line"/>
      <point x="526" y="152" type="line"/>
      <point x="526" y="117" type="line"/>
      <point x="724" y="117" type="line"/>
    </contour>
    <contour>
      <point x="724" y="167" type="line"/>
      <point x="600" y="167" type="line"/>
      <point x="669" y="278" type="line"/>
      <point x="725" y="368" type="line"/>
      <point x="730" y="368" type="line"/>
      <point x="724" y="247" type="line"/>
    </contour>
  </outline>
</glyph>
<glyph name="questiondown" format="2">
  <advance width="474" height="1000"/>
  <unicode hex="00BF"/>
  <outline>
    <contour>
      <point x="241" y="-219" type="curve"/>
      <point x="321" y="-219"/>
      <point x="384" y="-180"/>
      <point x="432" y="-127" type="curve"/>
      <point x="379" y="-79" type="line"/>
      <point x="344" y="-119"/>
      <point x="300" y="-144"/>
      <point x="250" y="-144" type="curve"/>
      <point x="179" y="-144"/>
      <point x="142" y="-95"/>
      <point x="142" y="-35" type="curve"/>
      <point x="142" y="84"/>
      <point x="320" y="148"/>
      <point x="296" y="322" type="curve"/>
      <point x="215" y="322" type="line"/>
      <point x="234" y="166"/>
      <point x="53" y="106"/>
      <point x="53" y="-40" type="curve"/>
      <point x="53" y="-151"/>
      <point x="127" y="-219"/>
    </contour>
    <contour>
      <point x="253" y="416" type="curve"/>
      <point x="290" y="416"/>
      <point x="319" y="446"/>
      <point x="319" y="487" type="curve"/>
      <point x="319" y="528"/>
      <point x="290" y="557"/>
      <point x="253" y="557" type="curve"/>
      <point x="217" y="557"/>
      <point x="187" y="528"/>
      <point x="187" y="487" type="curve"/>
      <point x="187" y="446"/>
      <point x="217" y="416"/>
    </contour>
  </outline>
</glyph>
<glyph name="Atilde" format="2">
  <advance width="608" height="1000"/>
  <unicode hex="00C3"/>
  <outline>
    <contour>
      <point x="387" y="792" type="curve"/>
      <point x="453" y="792"/>
      <point x="497" y="844"/>
      <point x="500" y="930" type="curve"/>
      <point x="439" y="934" type="line"/>
      <point x="433" y="886"/>
      <point x="413" y="860"/>
      <point x="385" y="860" type="curve"/>
      <point x="332" y="860"/>
      <point x="303" y="939"/>
      <point x="219" y="939" type="curve"/>
      <point x="152" y="939"/>
      <point x="109" y="887"/>
      <point x="106" y="803" type="curve"/>
      <point x="167" y="798" type="line"/>
      <point x="172" y="846"/>
      <point x="193" y="871"/>
      <point x="221" y="871" type="curve"/>
      <point x="274" y="871"/>
      <point x="303" y="792"/>
    </contour>
    <contour>
      <point x="4" y="0" type="line"/>
      <point x="97" y="0" type="line"/>
      <point x="168" y="224" type="line"/>
      <point x="436" y="224" type="line"/>
      <point x="506" y="0" type="line"/>
      <point x="604" y="0" type="line"/>
      <point x="355" y="733" type="line"/>
      <point x="252" y="733" type="line"/>
    </contour>
    <contour>
      <point x="191" y="297" type="line"/>
      <point x="227" y="410" type="line"/>
      <point x="253" y="493"/>
      <point x="277" y="572"/>
      <point x="300" y="658" type="curve"/>
      <point x="304" y="658" type="line"/>
      <point x="328" y="573"/>
      <point x="351" y="493"/>
      <point x="378" y="410" type="curve"/>
      <point x="413" y="297" type="line"/>
    </contour>
  </outline>
</glyph>
<glyph name="Adieresis" format="2">
  <advance width="608" height="1000"/>
  <unicode hex="00C4"/>
  <outline>
    <contour>
      <point x="4" y="0" type="line"/>
      <point x="97" y="0" type="line"/>
      <point x="168" y="224" type="line"/>
      <point x="436" y="224" type="line"/>
      <point x="506" y="0" type="line"/>
      <point x="604" y="0" type="line"/>
      <point x="355" y="733" type="line"/>
      <point x="252" y="733" type="line"/>
    </contour>
    <contour>
      <point x="191" y="297" type="line"/>
      <point x="227" y="410" type="line"/>
      <point x="253" y="493"/>
      <point x="277" y="572"/>
      <point x="300" y="658" type="curve"/>
      <point x="304" y="658" type="line"/>
      <point x="328" y="573"/>
      <point x="351" y="493"/>
      <point x="378" y="410" type="curve"/>
      <point x="413" y="297" type="line"/>
    </contour>
    <contour>
      <point x="187" y="800" type="curve"/>
      <point x="219" y="800"/>
      <point x="243" y="822"/>
      <point x="243" y="855" type="curve"/>
      <point x="243" y="886"/>
      <point x="219" y="909"/>
      <point x="187" y="909" type="curve"/>
      <point x="157" y="909"/>
      <point x="134" y="886"/>
      <point x="134" y="855" type="curve"/>
      <point x="134" y="822"/>
      <point x="157" y="800"/>
    </contour>
    <contour>
      <point x="418" y="800" type="curve"/>
      <point x="449" y="800"/>
      <point x="472" y="822"/>
      <point x="472" y="855" type="curve"/>
      <point x="472" y="886"/>
      <point x="449" y="909"/>
      <point x="418" y="909" type="curve"/>
      <point x="386" y="909"/>
      <point x="363" y="886"/>
      <point x="363" y="855" type="curve"/>
      <point x="363" y="822"/>
      <point x="386" y="800"/>
    </contour>
  </outline>
</glyph>
<glyph name="Aring" format="2">
  <advance width="608" height="1000"/>
  <unicode hex="00C5"/>
  <outline>
    <contour>
      <point x="4" y="0" type="line"/>
      <point x="97" y="0" type="line"/>
      <point x="168" y="224" type="line"/>
      <point x="436" y="224" type="line"/>
      <point x="506" y="0" type="line"/>
      <point x="604" y="0" type="line"/>
      <point x="355" y="733" type="line"/>
      <point x="252" y="733" type="line"/>
    </contour>
    <contour>
      <point x="191" y="297" type="line"/>
      <point x="227" y="410" type="line"/>
      <point x="253" y="493"/>
      <point x="277" y="572"/>
      <point x="300" y="658" type="curve"/>
      <point x="304" y="658" type="line"/>
      <point x="328" y="573"/>
      <point x="351" y="493"/>
      <point x="378" y="410" type="curve"/>
      <point x="413" y="297" type="line"/>
    </contour>
    <contour>
      <point x="303" y="780" type="curve"/>
      <point x="364" y="780"/>
      <point x="411" y="821"/>
      <point x="411" y="882" type="curve"/>
      <point x="411" y="944"/>
      <point x="364" y="983"/>
      <point x="303" y="983" type="curve"/>
      <point x="240" y="983"/>
      <point x="195" y="944"/>
      <point x="195" y="882" type="curve"/>
      <point x="195" y="821"/>
      <point x="240" y="780"/>
    </contour>
    <contour>
      <point x="303" y="822" type="curve"/>
      <point x="271" y="822"/>
      <point x="245" y="843"/>
      <point x="245" y="882" type="curve"/>
      <point x="245" y="919"/>
      <point x="271" y="942"/>
      <point x="303" y="942" type="curve"/>
      <point x="333" y="942"/>
      <point x="359" y="919"/>
      <point x="359" y="882" type="curve"/>
      <point x="359" y="843"/>
      <point x="333" y="822"/>
    </contour>
  </outline>
</glyph>
<glyph name="AE" format="2">
  <advance width="918" height="1000"/>
  <unicode hex="00C6"/>
  <outline>
    <contour>
      <point x="10" y="0" type="line"/>
      <point x="107" y="0" type="line"/>
      <point x="218" y="215" type="line"/>
      <point x="449" y="215" type="line"/>
      <point x="449" y="0" type="line"/>
      <point x="864" y="0" type="line"/>
      <point x="864" y="79" type="line"/>
      <point x="542" y="79" type="line"/>
      <point x="542" y="346" type="line"/>
      <point x="802" y="346" type="line"/>
      <point x="802" y="425" type="line"/>
      <point x="542" y="425" type="line"/>
      <point x="542" y="655" type="line"/>
      <point x="853" y="655" type="line"/>
      <point x="853" y="733" type="line"/>
      <point x="395" y="733" type="line"/>
    </contour>
    <contour>
      <point x="256" y="288" type="line"/>
      <point x="324" y="420" type="line"/>
      <point x="364" y="499"/>
      <point x="405" y="581"/>
      <point x="444" y="660" type="curve"/>
      <point x="449" y="660" type="line"/>
      <point x="449" y="288" type="line"/>
    </contour>
  </outline>
</glyph>
<glyph name="Eacute" format="2">
  <advance width="589" height="1000"/>
  <unicode hex="00C9"/>
  <outline>
    <contour>
      <point x="101" y="0" type="line"/>
      <point x="534" y="0" type="line"/>
      <point x="534" y="79" type="line"/>
      <point x="193" y="79" type="line"/>
      <point x="193" y="346" type="line"/>
      <point x="471" y="346" type="line"/>
      <point x="471" y="425" type="line"/>
      <point x="193" y="425" type="line"/>
      <point x="193" y="655" type="line"/>
      <point x="523" y="655" type="line"/>
      <point x="523" y="733" type="line"/>
      <point x="101" y="733" type="line"/>
    </contour>
    <contour>
      <point x="305" y="779" type="line"/>
      <point x="474" y="907" type="line"/>
      <point x="422" y="970" type="line"/>
      <point x="264" y="825" type="line"/>
    </contour>
  </outline>
</glyph>
<glyph name="Ecircumflex" format="2">
  <advance width="589" height="1000"/>
  <unicode hex="00CA"/>
  <outline>
    <contour>
      <point x="101" y="0" type="line"/>
      <point x="534" y="0" type="line"/>
      <point x="534" y="79" type="line"/>
      <point x="193" y="79" type="line"/>
      <point x="193" y="346" type="line"/>
      <point x="471" y="346" type="line"/>
      <point x="471" y="425" type="line"/>
      <point x="193" y="425" type="line"/>
      <point x="193" y="655" type="line"/>
      <point x="523" y="655" type="line"/>
      <point x="523" y="733" type="line"/>
      <point x="101" y="733" type="line"/>
    </contour>
    <contour>
      <point x="199" y="781" type="line"/>
      <point x="322" y="885" type="line"/>
      <point x="326" y="885" type="line"/>
      <point x="449" y="781" type="line"/>
      <point x="489" y="811" type="line"/>
      <point x="372" y="937" type="line"/>
      <point x="276" y="937" type="line"/>
      <point x="159" y="811" type="line"/>
    </contour>
  </outline>
</glyph>
<glyph name="Edieresis" format="2">
  <advance width="589" height="1000"/>
  <unicode hex="00CB"/>
  <outline>
    <contour>
      <point x="101" y="0" type="line"/>
      <point x="534" y="0" type="line"/>
      <point x="534" y="79" type="line"/>
      <point x="193" y="79" type="line"/>
      <point x="193" y="346" type="line"/>
      <point x="471" y="346" type="line"/>
      <point x="471" y="425" type="line"/>
      <point x="193" y="425" type="line"/>
      <point x="193" y="655" type="line"/>
      <point x="523" y="655" type="line"/>
      <point x="523" y="733" type="line"/>
      <point x="101" y="733" type="line"/>
    </contour>
    <contour>
      <point x="209" y="800" type="curve"/>
      <point x="240" y="800"/>
      <point x="264" y="822"/>
      <point x="264" y="855" type="curve"/>
      <point x="264" y="886"/>
      <point x="240" y="909"/>
      <point x="209" y="909" type="curve"/>
      <point x="178" y="909"/>
      <point x="155" y="886"/>
      <point x="155" y="855" type="curve"/>
      <point x="155" y="822"/>
      <point x="178" y="800"/>
    </contour>
    <contour>
      <point x="439" y="800" type="curve"/>
      <point x="470" y="800"/>
      <point x="493" y="822"/>
      <point x="493" y="855" type="curve"/>
      <point x="493" y="886"/>
      <point x="470" y="909"/>
      <point x="439" y="909" type="curve"/>
      <point x="407" y="909"/>
      <point x="384" y="886"/>
      <point x="384" y="855" type="curve"/>
      <point x="384" y="822"/>
      <point x="407" y="800"/>
    </contour>
  </outline>
</glyph>
<glyph name="Igrave" format="2">
  <advance width="293" height="1000"/>
  <unicode hex="00CC"/>
  <outline>
    <contour>
      <point x="101" y="0" type="line"/>
      <point x="193" y="0" type="line"/>
      <point x="193" y="733" type="line"/>
      <point x="101" y="733" type="line"/>
    </contour>
    <contour>
      <point x="167" y="779" type="line"/>
      <point x="207" y="825" type="line"/>
      <point x="49" y="970" type="line"/>
      <point x="-3" y="907" type="line"/>
    </contour>
  </outline>
</glyph>
<glyph name="Icircumflex" format="2">
  <advance width="293" height="1000"/>
  <unicode hex="00CE"/>
  <outline>
    <contour>
      <point x="101" y="0" type="line"/>
      <point x="193" y="0" type="line"/>
      <point x="193" y="733" type="line"/>
      <point x="101" y="733" type="line"/>
    </contour>
    <contour>
      <point x="22" y="781" type="line"/>
      <point x="145" y="885" type="line"/>
      <point x="150" y="885" type="line"/>
      <point x="272" y="781" type="line"/>
      <point x="313" y="811" type="line"/>
      <point x="195" y="937" type="line"/>
      <point x="99" y="937" type="line"/>
      <point x="-17" y="811" type="line"/>
    </contour>
  </outline>
</glyph>
<glyph name="Ntilde" format="2">
  <advance width="723" height="1000"/>
  <unicode hex="00D1"/>
  <outline>
    <contour>
      <point x="101" y="0" type="line"/>
      <point x="188" y="0" type="line"/>
      <point x="188" y="385" type="line"/>
      <point x="188" y="462"/>
      <point x="181" y="540"/>
      <point x="177" y="614" type="curve"/>
      <point x="181" y="614" type="line"/>
      <point x="260" y="463" type="line"/>
      <point x="527" y="0" type="line"/>
      <point x="622" y="0" type="line"/>
      <point x="622" y="733" type="line"/>
      <point x="534" y="733" type="line"/>
      <point x="534" y="352" type="line"/>
      <point x="534" y="276"/>
      <point x="541" y="193"/>
      <point x="547" y="120" type="curve"/>
      <point x="542" y="120" type="line"/>
      <point x="463" y="271" type="line"/>
      <point x="195" y="733" type="line"/>
      <point x="101" y="733" type="line"/>
    </contour>
    <contour>
      <point x="457" y="792" type="curve"/>
      <point x="523" y="792"/>
      <point x="566" y="844"/>
      <point x="570" y="930" type="curve"/>
      <point x="509" y="934" type="line"/>
      <point x="503" y="886"/>
      <point x="483" y="860"/>
      <point x="454" y="860" type="curve"/>
      <point x="402" y="860"/>
      <point x="373" y="939"/>
      <point x="289" y="939" type="curve"/>
      <point x="222" y="939"/>
      <point x="179" y="887"/>
      <point x="176" y="803" type="curve"/>
      <point x="237" y="798" type="line"/>
      <point x="242" y="846"/>
      <point x="263" y="871"/>
      <point x="291" y="871" type="curve"/>
      <point x="344" y="871"/>
      <point x="373" y="792"/>
    </contour>
  </outline>
</glyph>
<glyph name="Ocircumflex" format="2">
  <advance width="742" height="1000"/>
  <unicode hex="00D4"/>
  <outline>
    <contour>
      <point x="371" y="-13" type="curve"/>
      <point x="555" y="-13"/>
      <point x="684" y="134"/>
      <point x="684" y="369" type="curve"/>
      <point x="684" y="604"/>
      <point x="555" y="746"/>
      <point x="371" y="746" type="curve"/>
      <point x="187" y="746"/>
      <point x="58" y="604"/>
      <point x="58" y="369" type="curve"/>
      <point x="58" y="134"/>
      <point x="187" y="-13"/>
    </contour>
    <contour>
      <point x="371" y="68" type="curve"/>
      <point x="239" y="68"/>
      <point x="153" y="186"/>
      <point x="153" y="369" type="curve"/>
      <point x="153" y="552"/>
      <point x="239" y="665"/>
      <point x="371" y="665" type="curve"/>
      <point x="503" y="665"/>
      <point x="589" y="552"/>
      <point x="589" y="369" type="curve"/>
      <point x="589" y="186"/>
      <point x="503" y="68"/>
    </contour>
    <contour>
      <point x="246" y="781" type="line"/>
      <point x="369" y="885" type="line"/>
      <point x="374" y="885" type="line"/>
      <point x="496" y="781" type="line"/>
      <point x="536" y="811" type="line"/>
      <point x="419" y="937" type="line"/>
      <point x="323" y="937" type="line"/>
      <point x="206" y="811" type="line"/>
    </contour>
  </outline>
</glyph>
<glyph name="Otilde" format="2">
  <advance width="742" height="1000"/>
  <unicode hex="00D5"/>
  <outline>
    <contour>
      <point x="371" y="-13" type="curve"/>
      <point x="555" y="-13"/>
      <point x="684" y="134"/>
      <point x="684" y="369" type="curve"/>
      <point x="684" y="604"/>
      <point x="555" y="746"/>
      <point x="371" y="746" type="curve"/>
      <point x="187" y="746"/>
      <point x="58" y="604"/>
      <point x="58" y="369" type="curve"/>
      <point x="58" y="134"/>
      <point x="187" y="-13"/>
    </contour>
    <contour>
      <point x="371" y="68" type="curve"/>
      <point x="239" y="68"/>
      <point x="153" y="186"/>
      <point x="153" y="369" type="curve"/>
      <point x="153" y="552"/>
      <point x="239" y="665"/>
      <point x="371" y="665" type="curve"/>
      <point x="503" y="665"/>
      <point x="589" y="552"/>
      <point x="589" y="369" type="curve"/>
      <point x="589" y="186"/>
      <point x="503" y="68"/>
    </contour>
    <contour>
      <point x="455" y="792" type="curve"/>
      <point x="521" y="792"/>
      <point x="564" y="844"/>
      <point x="569" y="930" type="curve"/>
      <point x="507" y="934" type="line"/>
      <point x="501" y="886"/>
      <point x="481" y="860"/>
      <point x="452" y="860" type="curve"/>
      <point x="400" y="860"/>
      <point x="371" y="939"/>
      <point x="287" y="939" type="curve"/>
      <point x="220" y="939"/>
      <point x="178" y="887"/>
      <point x="173" y="803" type="curve"/>
      <point x="235" y="798" type="line"/>
      <point x="239" y="846"/>
      <point x="261" y="871"/>
      <point x="290" y="871" type="curve"/>
      <point x="342" y="871"/>
      <point x="371" y="792"/>
    </contour>
  </outline>
</glyph>
<glyph name="Odieresis" format="2">
  <advance width="742" height="1000"/>
  <unicode hex="00D6"/>
  <outline>
    <contour>
      <point x="371" y="-13" type="curve"/>
      <point x="555" y="-13"/>
      <point x="684" y="134"/>
      <point x="684" y="369" type="curve"/>
      <point x="684" y="604"/>
      <point x="555" y="746"/>
      <point x="371" y="746" type="curve"/>
      <point x="187" y="746"/>
      <point x="58" y="604"/>
      <point x="58" y="369" type="curve"/>
      <point x="58" y="134"/>
      <point x="187" y="-13"/>
    </contour>
    <contour>
      <point x="371" y="68" type="curve"/>
      <point x="239" y="68"/>
      <point x="153" y="186"/>
      <point x="153" y="369" type="curve"/>
      <point x="153" y="552"/>
      <point x="239" y="665"/>
      <point x="371" y="665" type="curve"/>
      <point x="503" y="665"/>
      <point x="589" y="552"/>
      <point x="589" y="369" type="curve"/>
      <point x="589" y="186"/>
      <point x="503" y="68"/>
    </contour>
    <contour>
      <point x="256" y="800" type="curve"/>
      <point x="288" y="800"/>
      <point x="311" y="822"/>
      <point x="311" y="855" type="curve"/>
      <point x="311" y="886"/>
      <point x="288" y="909"/>
      <point x="256" y="909" type="curve"/>
      <point x="225" y="909"/>
      <point x="202" y="886"/>
      <point x="202" y="855" type="curve"/>
      <point x="202" y="822"/>
      <point x="225" y="800"/>
    </contour>
    <contour>
      <point x="486" y="800" type="curve"/>
      <point x="518" y="800"/>
      <point x="540" y="822"/>
      <point x="540" y="855" type="curve"/>
      <point x="540" y="886"/>
      <point x="518" y="909"/>
      <point x="486" y="909" type="curve"/>
      <point x="454" y="909"/>
      <point x="431" y="886"/>
      <point x="431" y="855" type="curve"/>
      <point x="431" y="822"/>
      <point x="454" y="800"/>
    </contour>
  </outline>
</glyph>
<glyph name="multiply" format="2">
  <advance width="1000" height="1000"/>
  <unicode hex="00D7"/>
  <outline>
    <contour>
      <point x="227" y="54" type="line"/>
      <point x="500" y="328" type="line"/>
      <point x="774" y="54" type="line"/>
      <point x="822" y="102" type="line"/>
      <point x="549" y="376" type="line"/>
      <point x="822" y="650" type="line"/>
      <point x="774" y="698" type="line"/>
      <point x="500" y="424" type="line"/>
      <point x="227" y="698" type="line"/>
      <point x="178" y="649" type="line"/>
      <point x="452" y="376" type="line"/>
      <point x="178" y="102" type="line"/>
    </contour>
  </outline>
</glyph>
<glyph name="Oslash" format="2">
  <advance width="742" height="1000"/>
  <unicode hex="00D8"/>
  <outline>
    <contour>
      <point x="374" y="-13" type="curve"/>
      <point x="558" y="-13"/>
      <point x="687" y="134"/>
      <point x="687" y="369" type="curve"/>
      <point x="687" y="476"/>
      <point x="660" y="563"/>
      <point x="614" y="627" type="curve"/>
      <point x="691" y="727" type="line"/>
      <point x="640" y="767" type="line"/>
      <point x="570" y="676" type="line"/>
      <point x="518" y="721"/>
      <point x="451" y="746"/>
      <point x="374" y="746" type="curve"/>
      <point x="190" y="746"/>
      <point x="61" y="604"/>
      <point x="61" y="369" type="curve"/>
      <point x="61" y="262"/>
      <point x="88" y="173"/>
      <point x="134" y="108" type="curve"/>
      <point x="56" y="6" type="line"/>
      <point x="107" y="-33" type="line"/>
      <point x="178" y="59" type="line"/>
      <point x="230" y="13"/>
      <point x="297" y="-13"/>
    </contour>
    <contour>
      <point x="374" y="68" type="curve"/>
      <point x="317" y="68"/>
      <point x="269" y="90"/>
      <point x="232" y="130" type="curve"/>
      <point x="555" y="549" type="line"/>
      <point x="579" y="502"/>
      <point x="592" y="441"/>
      <point x="592" y="369" type="curve"/>
      <point x="592" y="186"/>
      <point x="506" y="68"/>
    </contour>
    <contour>
      <point x="194" y="186" type="line"/>
      <point x="170" y="235"/>
      <point x="156" y="297"/>
      <point x="156" y="369" type="curve"/>
      <point x="156" y="552"/>
      <point x="243" y="665"/>
      <point x="374" y="665" type="curve"/>
      <point x="431" y="665"/>
      <point x="479" y="644"/>
      <point x="516" y="605" type="curve"/>
    </contour>
  </outline>
</glyph>
<glyph name="Thorn" format="2">
  <advance width="652" height="1000"/>
  <unicode hex="00DE"/>
  <outline>
    <contour>
      <point x="101" y="0" type="line"/>
      <point x="193" y="0" type="line"/>
      <point x="193" y="168" type="line"/>
      <point x="325" y="168" type="line"/>
      <point x="486" y="168"/>
      <point x="596" y="240"/>
      <point x="596" y="394" type="curve"/>
      <point x="596" y="555"/>
      <point x="487" y="610"/>
      <point x="325" y="610" type="curve"/>
      <point x="193" y="610" type="line"/>
      <point x="193" y="733" type="line"/>
      <point x="101" y="733" type="line"/>
    </contour>
    <contour>
      <point x="193" y="243" type="line"/>
      <point x="193" y="535" type="line"/>
      <point x="313" y="535" type="line"/>
      <point x="440" y="535"/>
      <point x="503" y="501"/>
      <point x="503" y="394" type="curve"/>
      <point x="503" y="290"/>
      <point x="442" y="243"/>
      <point x="313" y="243" type="curve"/>
    </contour>
  </outline>
</glyph>
<glyph name="atilde" format="2">
  <advance width="563" height="1000"/>
  <unicode hex="00E3"/>
  <outline>
    <contour>
      <point x="217" y="-13" type="curve"/>
      <point x="284" y="-13"/>
      <point x="345" y="22"/>
      <point x="397" y="65" type="curve"/>
      <point x="400" y="65" type="line"/>
      <point x="408" y="0" type="line"/>
      <point x="483" y="0" type="line"/>
      <point x="483" y="334" type="line"/>
      <point x="483" y="469"/>
      <point x="428" y="557"/>
      <point x="295" y="557" type="curve"/>
      <point x="207" y="557"/>
      <point x="131" y="518"/>
      <point x="82" y="486" type="curve"/>
      <point x="117" y="423" type="line"/>
      <point x="160" y="452"/>
      <point x="217" y="481"/>
      <point x="280" y="481" type="curve"/>
      <point x="369" y="481"/>
      <point x="392" y="414"/>
      <point x="392" y="344" type="curve"/>
      <point x="161" y="318"/>
      <point x="59" y="259"/>
      <point x="59" y="141" type="curve"/>
      <point x="59" y="43"/>
      <point x="126" y="-13"/>
    </contour>
    <contour>
      <point x="243" y="61" type="curve"/>
      <point x="189" y="61"/>
      <point x="147" y="85"/>
      <point x="147" y="147" type="curve"/>
      <point x="147" y="217"/>
      <point x="209" y="262"/>
      <point x="392" y="283" type="curve"/>
      <point x="392" y="132" type="line"/>
      <point x="339" y="85"/>
      <point x="295" y="61"/>
    </contour>
    <contour>
      <point x="380" y="645" type="curve"/>
      <point x="457" y="645"/>
      <point x="489" y="711"/>
      <point x="492" y="796" type="curve"/>
      <point x="431" y="799" type="line"/>
      <point x="427" y="748"/>
      <point x="412" y="712"/>
      <point x="379" y="712" type="curve"/>
      <point x="327" y="712"/>
      <point x="297" y="805"/>
      <point x="218" y="805" type="curve"/>
      <point x="140" y="805"/>
      <point x="109" y="741"/>
      <point x="106" y="654" type="curve"/>
      <point x="167" y="650" type="line"/>
      <point x="170" y="704"/>
      <point x="185" y="739"/>
      <point x="219" y="739" type="curve"/>
      <point x="271" y="739"/>
      <point x="301" y="645"/>
    </contour>
  </outline>
</glyph>
<glyph name="ae" format="2">
  <advance width="877" height="1000"/>
  <unicode hex="00E6"/>
  <outline>
    <contour>
      <point x="225" y="-13" type="curve"/>
      <point x="295" y="-13"/>
      <point x="373" y="22"/>
      <point x="446" y="89" type="curve"/>
      <point x="487" y="35"/>
      <point x="546" y="-13"/>
      <point x="638" y="-13" type="curve"/>
      <point x="712" y="-13"/>
      <point x="766" y="11"/>
      <point x="814" y="42" type="curve"/>
      <point x="780" y="106" type="line"/>
      <point x="740" y="79"/>
      <point x="701" y="61"/>
      <point x="648" y="61" type="curve"/>
      <point x="555" y="61"/>
      <point x="483" y="136"/>
      <point x="479" y="250" type="curve"/>
      <point x="831" y="250" type="line"/>
      <point x="834" y="264"/>
      <point x="836" y="281"/>
      <point x="836" y="300" type="curve"/>
      <point x="836" y="455"/>
      <point x="762" y="557"/>
      <point x="628" y="557" type="curve"/>
      <point x="554" y="557"/>
      <point x="492" y="512"/>
      <point x="449" y="441" type="curve"/>
      <point x="427" y="511"/>
      <point x="374" y="557"/>
      <point x="293" y="557" type="curve"/>
      <point x="213" y="557"/>
      <point x="138" y="518"/>
      <point x="89" y="486" type="curve"/>
      <point x="125" y="423" type="line"/>
      <point x="168" y="452"/>
      <point x="224" y="481"/>
      <point x="283" y="481" type="curve"/>
      <point x="372" y="481"/>
      <point x="394" y="414"/>
      <point x="395" y="344" type="curve"/>
      <point x="168" y="319"/>
      <point x="66" y="259"/>
      <point x="66" y="141" type="curve"/>
      <point x="66" y="43"/>
      <point x="134" y="-13"/>
    </contour>
    <contour>
      <point x="251" y="61" type="curve"/>
      <point x="196" y="61"/>
      <point x="155" y="85"/>
      <point x="155" y="147" type="curve"/>
      <point x="155" y="218"/>
      <point x="221" y="262"/>
      <point x="394" y="283" type="curve"/>
      <point x="395" y="255" type="line"/>
      <point x="395" y="215"/>
      <point x="402" y="172"/>
      <point x="415" y="144" type="curve"/>
      <point x="366" y="90"/>
      <point x="301" y="61"/>
    </contour>
    <contour>
      <point x="479" y="310" type="line"/>
      <point x="489" y="416"/>
      <point x="551" y="484"/>
      <point x="625" y="484" type="curve"/>
      <point x="708" y="484"/>
      <point x="755" y="423"/>
      <point x="755" y="310" type="curve"/>
    </contour>
  </outline>
</glyph>
<glyph name="ccedilla" format="2">
  <advance width="510" height="1000"/>
  <unicode hex="00E7"/>
  <outline>
    <contour>
      <point x="201" y="-253" type="line"/>
      <point x="319" y="-247"/>
      <point x="384" y="-215"/>
      <point x="384" y="-150" type="curve"/>
      <point x="384" y="-105"/>
      <point x="354" y="-84"/>
      <point x="303" y="-71" type="curve"/>
      <point x="329" y="-12" type="line"/>
      <point x="386" y="-6"/>
      <point x="439" y="18"/>
      <point x="482" y="55" type="curve"/>
      <point x="442" y="117" type="line"/>
      <point x="408" y="87"/>
      <point x="364" y="63"/>
      <point x="314" y="63" type="curve"/>
      <point x="214" y="63"/>
      <point x="146" y="146"/>
      <point x="146" y="271" type="curve"/>
      <point x="146" y="396"/>
      <point x="218" y="480"/>
      <point x="317" y="480" type="curve"/>
      <point x="359" y="480"/>
      <point x="394" y="461"/>
      <point x="425" y="433" type="curve"/>
      <point x="471" y="493" type="line"/>
      <point x="433" y="527"/>
      <point x="384" y="557"/>
      <point x="313" y="557" type="curve"/>
      <point x="173" y="557"/>
      <point x="52" y="452"/>
      <point x="52" y="271" type="curve"/>
      <point x="52" y="107"/>
      <point x="144" y="6"/>
      <point x="270" y="-11" type="curve"/>
      <point x="228" y="-98" type="line"/>
      <point x="291" y="-108"/>
      <point x="314" y="-124"/>
      <point x="314" y="-152" type="curve"/>
      <point x="314" y="-185"/>
      <point x="286" y="-201"/>
      <point x="192" y="-207" type="curve"/>
    </contour>
  </outline>
</glyph>
<glyph name="ecircumflex" format="2">
  <advance width="554" height="1000"/>
  <unicode hex="00EA"/>
  <outline>
    <contour>
      <point x="312" y="-13" type="curve"/>
      <point x="385" y="-13"/>
      <point x="443" y="11"/>
      <point x="490" y="42" type="curve"/>
      <point x="458" y="103" type="line"/>
      <point x="417" y="76"/>
      <point x="375" y="60"/>
      <point x="322" y="60" type="curve"/>
      <point x="219" y="60"/>
      <point x="148" y="134"/>
      <point x="142" y="250" type="curve"/>
      <point x="508" y="250" type="line"/>
      <point x="510" y="264"/>
      <point x="512" y="282"/>
      <point x="512" y="302" type="curve"/>
      <point x="512" y="457"/>
      <point x="434" y="557"/>
      <point x="295" y="557" type="curve"/>
      <point x="171" y="557"/>
      <point x="52" y="448"/>
      <point x="52" y="271" type="curve"/>
      <point x="52" y="92"/>
      <point x="167" y="-13"/>
    </contour>
    <contour>
      <point x="141" y="315" type="line"/>
      <point x="152" y="423"/>
      <point x="220" y="484"/>
      <point x="297" y="484" type="curve"/>
      <point x="382" y="484"/>
      <point x="432" y="425"/>
      <point x="432" y="315" type="curve"/>
    </contour>
    <contour>
      <point x="122" y="671" type="line"/>
      <point x="161" y="635" type="line"/>
      <point x="292" y="761" type="line"/>
      <point x="297" y="761" type="line"/>
      <point x="428" y="635" type="line"/>
      <point x="468" y="671" type="line"/>
      <point x="340" y="827" type="line"/>
      <point x="249" y="827" type="line"/>
    </contour>
  </outline>
</glyph>
<glyph name="igrave" format="2">
  <advance width="275" height="1000"/>
  <unicode hex="00EC"/>
  <outline>
    <contour>
      <point x="92" y="0" type="line"/>
      <point x="184" y="0" type="line"/>
      <point x="184" y="543" type="line"/>
      <point x="92" y="543" type="line"/>
    </contour>
    <contour>
      <point x="155" y="640" type="line"/>
      <point x="201" y="686" type="line"/>
      <point x="43" y="872" type="line"/>
      <point x="-21" y="812" type="line"/>
    </contour>
  </outline>
</glyph>
<glyph name="icircumflex" format="2">
  <advance width="275" height="1000"/>
  <unicode hex="00EE"/>
  <outline>
    <contour>
      <point x="92" y="0" type="line"/>
      <point x="184" y="0" type="line"/>
      <point x="184" y="543" type="line"/>
      <point x="92" y="543" type="line"/>
    </contour>
    <contour>
      <point x="-35" y="671" type="line"/>
      <point x="4" y="635" type="line"/>
      <point x="136" y="761" type="line"/>
      <point x="140" y="761" type="line"/>
      <point x="272" y="635" type="line"/>
      <point x="311" y="671" type="line"/>
      <point x="184" y="827" type="line"/>
      <point x="92" y="827" type="line"/>
    </contour>
  </outline>
</glyph>
<glyph name="idieresis" format="2">
  <advance width="275" height="1000"/>
  <unicode hex="00EF"/>
  <outline>
    <contour>
      <point x="92" y="0" type="line"/>
      <point x="184" y="0" type="line"/>
      <point x="184" y="543" type="line"/>
      <point x="92" y="543" type="line"/>
    </contour>
    <contour>
      <point x="31" y="657" type="curve"/>
      <point x="63" y="657"/>
      <point x="86" y="681"/>
      <point x="86" y="712" type="curve"/>
      <point x="86" y="743"/>
      <point x="63" y="767"/>
      <point x="31" y="767" type="curve"/>
      <point x="-1" y="767"/>
      <point x="-25" y="743"/>
      <point x="-25" y="712" type="curve"/>
      <point x="-25" y="681"/>
      <point x="-1" y="657"/>
    </contour>
    <contour>
      <point x="246" y="657" type="curve"/>
      <point x="278" y="657"/>
      <point x="301" y="681"/>
      <point x="301" y="712" type="curve"/>
      <point x="301" y="743"/>
      <point x="278" y="767"/>
      <point x="246" y="767" type="curve"/>
      <point x="214" y="767"/>
      <point x="190" y="743"/>
      <point x="190" y="712" type="curve"/>
      <point x="190" y="681"/>
      <point x="214" y="657"/>
    </contour>
  </outline>
</glyph>
<glyph name="eth" format="2">
  <advance width="608" height="1000"/>
  <unicode hex="00F0"/>
  <outline>
    <contour>
      <point x="450" y="347" type="curve"/>
      <point x="452" y="327"/>
      <point x="453" y="305"/>
      <point x="453" y="283" type="curve"/>
      <point x="453" y="153"/>
      <point x="403" y="63"/>
      <point x="303" y="63" type="curve"/>
      <point x="217" y="63"/>
      <point x="146" y="136"/>
      <point x="146" y="249" type="curve"/>
      <point x="146" y="352"/>
      <point x="202" y="428"/>
      <point x="303" y="428" type="curve"/>
      <point x="353" y="428"/>
      <point x="402" y="412"/>
    </contour>
    <contour>
      <point x="162" y="559" type="line"/>
      <point x="320" y="640" type="line"/>
      <point x="376" y="585"/>
      <point x="418" y="518"/>
      <point x="438" y="427" type="curve"/>
      <point x="400" y="476"/>
      <point x="347" y="499"/>
      <point x="290" y="499" type="curve"/>
      <point x="159" y="499"/>
      <point x="60" y="400"/>
      <point x="60" y="249" type="curve"/>
      <point x="60" y="85"/>
      <point x="174" y="-13"/>
      <point x="300" y="-13" type="curve"/>
      <point x="445" y="-13"/>
      <point x="541" y="108"/>
      <point x="541" y="288" type="curve"/>
      <point x="541" y="464"/>
      <point x="479" y="586"/>
      <point x="390" y="676" type="curve"/>
      <point x="534" y="750" type="line"/>
      <point x="507" y="796" type="line"/>
      <point x="349" y="714" type="line"/>
      <point x="301" y="754"/>
      <point x="248" y="787"/>
      <point x="194" y="816" type="curve"/>
      <point x="153" y="758" type="line"/>
      <point x="198" y="733"/>
      <point x="240" y="707"/>
      <point x="277" y="677" type="curve"/>
      <point x="136" y="604" type="line"/>
    </contour>
  </outline>
</glyph>
<glyph name="ntilde" format="2">
  <advance width="610" height="1000"/>
  <unicode hex="00F1"/>
  <outline>
    <contour>
      <point x="92" y="0" type="line"/>
      <point x="184" y="0" type="line"/>
      <point x="184" y="394" type="line"/>
      <point x="238" y="449"/>
      <point x="276" y="477"/>
      <point x="332" y="477" type="curve"/>
      <point x="404" y="477"/>
      <point x="435" y="434"/>
      <point x="435" y="332" type="curve"/>
      <point x="435" y="0" type="line"/>
      <point x="526" y="0" type="line"/>
      <point x="526" y="344" type="line"/>
      <point x="526" y="482"/>
      <point x="474" y="557"/>
      <point x="360" y="557" type="curve"/>
      <point x="286" y="557"/>
      <point x="229" y="516"/>
      <point x="178" y="464" type="curve"/>
      <point x="176" y="464" type="line"/>
      <point x="167" y="543" type="line"/>
      <point x="92" y="543" type="line"/>
    </contour>
    <contour>
      <point x="410" y="645" type="curve"/>
      <point x="487" y="645"/>
      <point x="519" y="711"/>
      <point x="523" y="796" type="curve"/>
      <point x="461" y="799" type="line"/>
      <point x="458" y="748"/>
      <point x="443" y="712"/>
      <point x="410" y="712" type="curve"/>
      <point x="357" y="712"/>
      <point x="327" y="805"/>
      <point x="249" y="805" type="curve"/>
      <point x="171" y="805"/>
      <point x="139" y="741"/>
      <point x="136" y="654" type="curve"/>
      <point x="198" y="650" type="line"/>
      <point x="200" y="704"/>
      <point x="216" y="739"/>
      <point x="249" y="739" type="curve"/>
      <point x="301" y="739"/>
      <point x="331" y="645"/>
    </contour>
  </outline>
</glyph>
<glyph name="ograve" format="2">
  <advance width="606" height="1000"/>
  <unicode hex="00F2"/>
  <outline>
    <contour>
      <point x="303" y="-13" type="curve"/>
      <point x="436" y="-13"/>
      <point x="554" y="91"/>
      <point x="554" y="271" type="curve"/>
      <point x="554" y="452"/>
      <point x="436" y="557"/>
      <point x="303" y="557" type="curve"/>
      <point x="170" y="557"/>
      <point x="52" y="452"/>
      <point x="52" y="271" type="curve"/>
      <point x="52" y="91"/>
      <point x="170" y="-13"/>
    </contour>
    <contour>
      <point x="303" y="63" type="curve"/>
      <point x="209" y="63"/>
      <point x="146" y="146"/>
      <point x="146" y="271" type="curve"/>
      <point x="146" y="396"/>
      <point x="209" y="480"/>
      <point x="303" y="480" type="curve"/>
      <point x="397" y="480"/>
      <point x="461" y="396"/>
      <point x="461" y="271" type="curve"/>
      <point x="461" y="146"/>
      <point x="397" y="63"/>
    </contour>
    <contour>
      <point x="319" y="640" type="line"/>
      <point x="366" y="686" type="line"/>
      <point x="208" y="872" type="line"/>
      <point x="144" y="812" type="line"/>
    </contour>
  </outline>
</glyph>
<glyph name="ocircumflex" format="2">
  <advance width="606" height="1000"/>
  <unicode hex="00F4"/>
  <outline>
    <contour>
      <point x="303" y="-13" type="curve"/>
      <point x="436" y="-13"/>
      <point x="554" y="91"/>
      <point x="554" y="271" type="curve"/>
      <point x="554" y="452"/>
      <point x="436" y="557"/>
      <point x="303" y="557" type="curve"/>
      <point x="170" y="557"/>
      <point x="52" y="452"/>
      <point x="52" y="271" type="curve"/>
      <point x="52" y="91"/>
      <point x="170" y="-13"/>
    </contour>
    <contour>
      <point x="303" y="63" type="curve"/>
      <point x="209" y="63"/>
      <point x="146" y="146"/>
      <point x="146" y="271" type="curve"/>
      <point x="146" y="396"/>
      <point x="209" y="480"/>
      <point x="303" y="480" type="curve"/>
      <point x="397" y="480"/>
      <point x="461" y="396"/>
      <point x="461" y="271" type="curve"/>
      <point x="461" y="146"/>
      <point x="397" y="63"/>
    </contour>
    <contour>
      <point x="130" y="671" type="line"/>
      <point x="169" y="635" type="line"/>
      <point x="300" y="761" type="line"/>
      <point x="305" y="761" type="line"/>
      <point x="437" y="635" type="line"/>
      <point x="476" y="671" type="line"/>
      <point x="349" y="827" type="line"/>
      <point x="257" y="827" type="line"/>
    </contour>
  </outline>
</glyph>
<glyph name="otilde" format="2">
  <advance width="606" height="1000"/>
  <unicode hex="00F5"/>
  <outline>
    <contour>
      <point x="303" y="-13" type="curve"/>
      <point x="436" y="-13"/>
      <point x="554" y="91"/>
      <point x="554" y="271" type="curve"/>
      <point x="554" y="452"/>
      <point x="436" y="557"/>
      <point x="303" y="557" type="curve"/>
      <point x="170" y="557"/>
      <point x="52" y="452"/>
      <point x="52" y="271" type="curve"/>
      <point x="52" y="91"/>
      <point x="170" y="-13"/>
    </contour>
    <contour>
      <point x="303" y="63" type="curve"/>
      <point x="209" y="63"/>
      <point x="146" y="146"/>
      <point x="146" y="271" type="curve"/>
      <point x="146" y="396"/>
      <point x="209" y="480"/>
      <point x="303" y="480" type="curve"/>
      <point x="397" y="480"/>
      <point x="461" y="396"/>
      <point x="461" y="271" type="curve"/>
      <point x="461" y="146"/>
      <point x="397" y="63"/>
    </contour>
    <contour>
      <point x="384" y="645" type="curve"/>
      <point x="462" y="645"/>
      <point x="492" y="711"/>
      <point x="497" y="796" type="curve"/>
      <point x="435" y="799" type="line"/>
      <point x="432" y="748"/>
      <point x="416" y="712"/>
      <point x="384" y="712" type="curve"/>
      <point x="331" y="712"/>
      <point x="301" y="805"/>
      <point x="223" y="805" type="curve"/>
      <point x="145" y="805"/>
      <point x="114" y="741"/>
      <point x="110" y="654" type="curve"/>
      <point x="171" y="650" type="line"/>
      <point x="174" y="704"/>
      <point x="190" y="739"/>
      <point x="223" y="739" type="curve"/>
      <point x="275" y="739"/>
      <point x="305" y="645"/>
    </contour>
  </outline>
</glyph>
<glyph name="odieresis" format="2">
  <advance width="606" height="1000"/>
  <unicode hex="00F6"/>
  <outline>
    <contour>
      <point x="303" y="-13" type="curve"/>
      <point x="436" y="-13"/>
      <point x="554" y="91"/>
      <point x="554" y="271" type="curve"/>
      <point x="554" y="452"/>
      <point x="436" y="557"/>
      <point x="303" y="557" type="curve"/>
      <point x="170" y="557"/>
      <point x="52" y="452"/>
      <point x="52" y="271" type="curve"/>
      <point x="52" y="91"/>
      <point x="170" y="-13"/>
    </contour>
    <contour>
      <point x="303" y="63" type="curve"/>
      <point x="209" y="63"/>
      <point x="146" y="146"/>
      <point x="146" y="271" type="curve"/>
      <point x="146" y="396"/>
      <point x="209" y="480"/>
      <point x="303" y="480" type="curve"/>
      <point x="397" y="480"/>
      <point x="461" y="396"/>
      <point x="461" y="271" type="curve"/>
      <point x="461" y="146"/>
      <point x="397" y="63"/>
    </contour>
    <contour>
      <point x="196" y="657" type="curve"/>
      <point x="227" y="657"/>
      <point x="251" y="681"/>
      <point x="251" y="712" type="curve"/>
      <point x="251" y="743"/>
      <point x="227" y="767"/>
      <point x="196" y="767" type="curve"/>
      <point x="163" y="767"/>
      <point x="141" y="743"/>
      <point x="141" y="712" type="curve"/>
      <point x="141" y="681"/>
      <point x="163" y="657"/>
    </contour>
    <contour>
      <point x="410" y="657" type="curve"/>
      <point x="442" y="657"/>
      <point x="465" y="681"/>
      <point x="465" y="712" type="curve"/>
      <point x="465" y="743"/>
      <point x="442" y="767"/>
      <point x="410" y="767" type="curve"/>
      <point x="378" y="767"/>
      <point x="355" y="743"/>
      <point x="355" y="712" type="curve"/>
      <point x="355" y="681"/>
      <point x="378" y="657"/>
    </contour>
  </outline>
</glyph>
<glyph name="divide" format="2">
  <advance width="1000" height="1000"/>
  <unicode hex="00F7"/>
  <outline>
    <contour>
      <point x="500" y="703" type="curve"/>
      <point x="460" y="703"/>
      <point x="428" y="670"/>
      <point x="428" y="630" type="curve"/>
      <point x="428" y="591"/>
      <point x="460" y="558"/>
      <point x="500" y="558" type="curve"/>
      <point x="540" y="558"/>
      <point x="572" y="591"/>
      <point x="572" y="630" type="curve"/>
      <point x="572" y="670"/>
      <point x="540" y="703"/>
    </contour>
    <contour>
      <point x="863" y="410" type="line"/>
      <point x="137" y="410" type="line"/>
      <point x="137" y="341" type="line"/>
      <point x="863" y="341" type="line"/>
    </contour>
    <contour>
      <point x="500" y="193" type="curve"/>
      <point x="460" y="193"/>
      <point x="428" y="160"/>
      <point x="428" y="121" type="curve"/>
      <point x="428" y="81"/>
      <point x="460" y="48"/>
      <point x="500" y="48" type="curve"/>
      <point x="540" y="48"/>
      <point x="572" y="81"/>
      <point x="572" y="121" type="curve"/>
      <point x="572" y="160"/>
      <point x="540" y="193"/>
    </contour>
  </outline>
</glyph>
<glyph name="oslash" format="2">
  <advance width="606" height="1000"/>
  <unicode hex="00F8"/>
  <outline>
    <contour>
      <point x="92" y="-26" type="line"/>
      <point x="148" y="42" type="line"/>
      <point x="192" y="6"/>
      <point x="246" y="-13"/>
      <point x="303" y="-13" type="curve"/>
      <point x="436" y="-13"/>
      <point x="554" y="91"/>
      <point x="554" y="271" type="curve"/>
      <point x="554" y="350"/>
      <point x="531" y="415"/>
      <point x="495" y="463" type="curve"/>
      <point x="555" y="536" type="line"/>
      <point x="514" y="569" type="line"/>
      <point x="458" y="501" type="line"/>
      <point x="415" y="538"/>
      <point x="360" y="557"/>
      <point x="303" y="557" type="curve"/>
      <point x="170" y="557"/>
      <point x="52" y="452"/>
      <point x="52" y="271" type="curve"/>
      <point x="52" y="191"/>
      <point x="75" y="127"/>
      <point x="112" y="79" type="curve"/>
      <point x="52" y="6" type="line"/>
    </contour>
    <contour>
      <point x="303" y="61" type="curve"/>
      <point x="262" y="61"/>
      <point x="226" y="76"/>
      <point x="199" y="104" type="curve"/>
      <point x="439" y="395" type="line"/>
      <point x="456" y="361"/>
      <point x="465" y="317"/>
      <point x="465" y="267" type="curve"/>
      <point x="465" y="144"/>
      <point x="397" y="61"/>
    </contour>
    <contour>
      <point x="168" y="148" type="line"/>
      <point x="151" y="181"/>
      <point x="142" y="224"/>
      <point x="142" y="275" type="curve"/>
      <point x="142" y="398"/>
      <point x="209" y="483"/>
      <point x="303" y="483" type="curve"/>
      <point x="344" y="483"/>
      <point x="380" y="468"/>
      <point x="408" y="439" type="curve"/>
    </contour>
  </outline>
</glyph>
<glyph name="ucircumflex" format="2">
  <advance width="607" height="1000"/>
  <unicode hex="00FB"/>
  <outline>
    <contour>
      <point x="251" y="-13" type="curve"/>
      <point x="325" y="-13"/>
      <point x="379" y="26"/>
      <point x="430" y="85" type="curve"/>
      <point x="433" y="85" type="line"/>
      <point x="440" y="0" type="line"/>
      <point x="516" y="0" type="line"/>
      <point x="516" y="543" type="line"/>
      <point x="425" y="543" type="line"/>
      <point x="425" y="158" type="line"/>
      <point x="373" y="94"/>
      <point x="334" y="66"/>
      <point x="278" y="66" type="curve"/>
      <point x="206" y="66"/>
      <point x="176" y="109"/>
      <point x="176" y="210" type="curve"/>
      <point x="176" y="543" type="line"/>
      <point x="84" y="543" type="line"/>
      <point x="84" y="199" type="line"/>
      <point x="84" y="60"/>
      <point x="136" y="-13"/>
    </contour>
    <contour>
      <point x="169" y="635" type="line"/>
      <point x="301" y="761" type="line"/>
      <point x="305" y="761" type="line"/>
      <point x="436" y="635" type="line"/>
      <point x="476" y="671" type="line"/>
      <point x="348" y="827" type="line"/>
      <point x="257" y="827" type="line"/>
      <point x="130" y="671" type="line"/>
    </contour>
  </outline>
</glyph>
<glyph name="thorn" format="2">
  <advance width="620" height="1000"/>
  <unicode hex="00FE"/>
  <outline>
    <contour>
      <point x="92" y="-229" type="line"/>
      <point x="184" y="-229" type="line"/>
      <point x="184" y="-45" type="line"/>
      <point x="182" y="48" type="line"/>
      <point x="230" y="9"/>
      <point x="279" y="-13"/>
      <point x="331" y="-13" type="curve"/>
      <point x="455" y="-13"/>
      <point x="567" y="94"/>
      <point x="567" y="280" type="curve"/>
      <point x="567" y="448"/>
      <point x="490" y="557"/>
      <point x="347" y="557" type="curve"/>
      <point x="287" y="557"/>
      <point x="230" y="524"/>
      <point x="182" y="486" type="curve"/>
      <point x="184" y="580" type="line"/>
      <point x="184" y="796" type="line"/>
      <point x="92" y="796" type="line"/>
    </contour>
    <contour>
      <point x="316" y="64" type="curve"/>
      <point x="280" y="64"/>
      <point x="232" y="78"/>
      <point x="184" y="120" type="curve"/>
      <point x="184" y="406" type="line"/>
      <point x="236" y="454"/>
      <point x="283" y="480"/>
      <point x="328" y="480" type="curve"/>
      <point x="432" y="480"/>
      <point x="472" y="400"/>
      <point x="472" y="279" type="curve"/>
      <point x="472" y="145"/>
      <point x="406" y="64"/>
    </contour>
  </outline>
</glyph>
<glyph name="ydieresis" format="2">
  <advance width="521" height="1000"/>
  <unicode hex="00FF"/>
  <outline>
    <contour>
      <point x="101" y="-234" type="curve"/>
      <point x="209" y="-234"/>
      <point x="266" y="-152"/>
      <point x="304" y="-46" type="curve"/>
      <point x="508" y="543" type="line"/>
      <point x="419" y="543" type="line"/>
      <point x="321" y="242" type="line"/>
      <point x="307" y="193"/>
      <point x="291" y="138"/>
      <point x="277" y="88" type="curve"/>
      <point x="272" y="88" type="line"/>
      <point x="253" y="139"/>
      <point x="235" y="194"/>
      <point x="218" y="242" type="curve"/>
      <point x="108" y="543" type="line"/>
      <point x="13" y="543" type="line"/>
      <point x="231" y="-1" type="line"/>
      <point x="219" y="-42" type="line"/>
      <point x="196" y="-109"/>
      <point x="158" y="-159"/>
      <point x="97" y="-159" type="curve"/>
      <point x="82" y="-159"/>
      <point x="66" y="-154"/>
      <point x="55" y="-150" type="curve"/>
      <point x="37" y="-223" type="line"/>
      <point x="54" y="-230"/>
      <point x="76" y="-234"/>
    </contour>
    <contour>
      <point x="164" y="657" type="curve"/>
      <point x="196" y="657"/>
      <point x="219" y="681"/>
      <point x="219" y="712" type="curve"/>
      <point x="219" y="743"/>
      <point x="196" y="767"/>
      <point x="164" y="767" type="curve"/>
      <point x="132" y="767"/>
      <point x="109" y="743"/>
      <point x="109" y="712" type="curve"/>
      <point x="109" y="681"/>
      <point x="132" y="657"/>
    </contour>
    <contour>
      <point x="379" y="657" type="curve"/>
      <point x="411" y="657"/>
      <point x="434" y="681"/>
      <point x="434" y="712" type="curve"/>
      <point x="434" y="743"/>
      <point x="411" y="767"/>
      <point x="379" y="767" type="curve"/>
      <point x="347" y="767"/>
      <point x="324" y="743"/>
      <point x="324" y="712" type="curve"/>
      <point x="324" y="681"/>
      <point x="347" y="657"/>
    </contour>
  </outline>
</glyph>
<glyph name="Amacron" format="2">
  <advance width="608" height="1000"/>
  <unicode hex="0100"/>
  <outline>
    <contour>
      <point x="4" y="0" type="line"/>
      <point x="97" y="0" type="line"/>
      <point x="168" y="224" type="line"/>
      <point x="436" y="224" type="line"/>
      <point x="506" y="0" type="line"/>
      <point x="604" y="0" type="line"/>
      <point x="355" y="733" type="line"/>
      <point x="252" y="733" type="line"/>
    </contour>
    <contour>
      <point x="191" y="297" type="line"/>
      <point x="227" y="410" type="line"/>
      <point x="253" y="493"/>
      <point x="277" y="572"/>
      <point x="300" y="658" type="curve"/>
      <point x="304" y="658" type="line"/>
      <point x="328" y="573"/>
      <point x="351" y="493"/>
      <point x="378" y="410" type="curve"/>
      <point x="413" y="297" type="line"/>
    </contour>
    <contour>
      <point x="153" y="822" type="line"/>
      <point x="452" y="822" type="line"/>
      <point x="452" y="885" type="line"/>
      <point x="153" y="885" type="line"/>
    </contour>
  </outline>
</glyph>
<glyph name="Dcroat" format="2">
  <advance width="712" height="1000"/>
  <unicode hex="0110"/>
  <outline>
    <contour>
      <point x="125" y="0" type="line"/>
      <point x="313" y="0" type="line"/>
      <point x="534" y="0"/>
      <point x="654" y="137"/>
      <point x="654" y="369" type="curve"/>
      <point x="654" y="603"/>
      <point x="534" y="733"/>
      <point x="309" y="733" type="curve"/>
      <point x="125" y="733" type="line"/>
      <point x="125" y="410" type="line"/>
      <point x="37" y="407" type="line"/>
      <point x="37" y="359" type="line"/>
      <point x="125" y="359" type="line"/>
    </contour>
    <contour>
      <point x="218" y="76" type="line"/>
      <point x="218" y="359" type="line"/>
      <point x="384" y="359" type="line"/>
      <point x="384" y="410" type="line"/>
      <point x="218" y="410" type="line"/>
      <point x="218" y="658" type="line"/>
      <point x="301" y="658" type="line"/>
      <point x="473" y="658"/>
      <point x="559" y="555"/>
      <point x="559" y="369" type="curve"/>
      <point x="559" y="184"/>
      <point x="473" y="76"/>
      <point x="301" y="76" type="curve"/>
    </contour>
  </outline>
</glyph>
<glyph name="dcroat" format="2">
  <advance width="620" height="1000"/>
  <unicode hex="0111"/>
  <outline>
    <contour>
      <point x="297" y="64" type="curve"/>
      <point x="202" y="64"/>
      <point x="147" y="136"/>
      <point x="147" y="250" type="curve"/>
      <point x="147" y="358"/>
      <point x="217" y="436"/>
      <point x="304" y="436" type="curve"/>
      <point x="349" y="436"/>
      <point x="391" y="421"/>
      <point x="436" y="379" type="curve"/>
      <point x="436" y="138" type="line"/>
      <point x="391" y="88"/>
      <point x="347" y="64"/>
    </contour>
    <contour>
      <point x="256" y="639" type="line"/>
      <point x="436" y="639" type="line"/>
      <point x="436" y="543" type="line"/>
      <point x="441" y="450" type="line"/>
      <point x="393" y="489"/>
      <point x="352" y="513"/>
      <point x="288" y="513" type="curve"/>
      <point x="164" y="513"/>
      <point x="53" y="409"/>
      <point x="53" y="249" type="curve"/>
      <point x="53" y="84"/>
      <point x="141" y="-13"/>
      <point x="277" y="-13" type="curve"/>
      <point x="343" y="-13"/>
      <point x="399" y="20"/>
      <point x="441" y="62" type="curve"/>
      <point x="444" y="62" type="line"/>
      <point x="451" y="0" type="line"/>
      <point x="528" y="0" type="line"/>
      <point x="528" y="639" type="line"/>
      <point x="609" y="644" type="line"/>
      <point x="609" y="692" type="line"/>
      <point x="528" y="692" type="line"/>
      <point x="528" y="796" type="line"/>
      <point x="436" y="796" type="line"/>
      <point x="436" y="692" type="line"/>
      <point x="256" y="692" type="line"/>
    </contour>
  </outline>
</glyph>
<glyph name="Emacron" format="2">
  <advance width="589" height="1000"/>
  <unicode hex="0112"/>
  <outline>
    <contour>
      <point x="101" y="0" type="line"/>
      <point x="534" y="0" type="line"/>
      <point x="534" y="79" type="line"/>
      <point x="193" y="79" type="line"/>
      <point x="193" y="346" type="line"/>
      <point x="471" y="346" type="line"/>
      <point x="471" y="425" type="line"/>
      <point x="193" y="425" type="line"/>
      <point x="193" y="655" type="line"/>
      <point x="523" y="655" type="line"/>
      <point x="523" y="733" type="line"/>
      <point x="101" y="733" type="line"/>
    </contour>
    <contour>
      <point x="174" y="822" type="line"/>
      <point x="473" y="822" type="line"/>
      <point x="473" y="885" type="line"/>
      <point x="174" y="885" type="line"/>
    </contour>
  </outline>
</glyph>
<glyph name="Itilde" format="2">
  <advance width="293" height="1000"/>
  <unicode hex="0128"/>
  <outline>
    <contour>
      <point x="101" y="0" type="line"/>
      <point x="193" y="0" type="line"/>
      <point x="193" y="733" type="line"/>
      <point x="101" y="733" type="line"/>
    </contour>
    <contour>
      <point x="232" y="792" type="curve"/>
      <point x="298" y="792"/>
      <point x="341" y="844"/>
      <point x="345" y="930" type="curve"/>
      <point x="283" y="934" type="line"/>
      <point x="278" y="886"/>
      <point x="258" y="860"/>
      <point x="229" y="860" type="curve"/>
      <point x="176" y="860"/>
      <point x="148" y="939"/>
      <point x="64" y="939" type="curve"/>
      <point x="-2" y="939"/>
      <point x="-46" y="887"/>
      <point x="-50" y="803" type="curve"/>
      <point x="11" y="798" type="line"/>
      <point x="15" y="846"/>
      <point x="37" y="871"/>
      <point x="66" y="871" type="curve"/>
      <point x="119" y="871"/>
      <point x="148" y="792"/>
    </contour>
  </outline>
</glyph>
<glyph name="itilde" format="2">
  <advance width="275" height="1000"/>
  <unicode hex="0129"/>
  <outline>
    <contour>
      <point x="92" y="0" type="line"/>
      <point x="184" y="0" type="line"/>
      <point x="184" y="543" type="line"/>
      <point x="92" y="543" type="line"/>
    </contour>
    <contour>
      <point x="219" y="645" type="curve"/>
      <point x="296" y="645"/>
      <point x="328" y="711"/>
      <point x="331" y="796" type="curve"/>
      <point x="270" y="799" type="line"/>
      <point x="267" y="748"/>
      <point x="252" y="712"/>
      <point x="219" y="712" type="curve"/>
      <point x="166" y="712"/>
      <point x="136" y="805"/>
      <point x="59" y="805" type="curve"/>
      <point x="-20" y="805"/>
      <point x="-51" y="741"/>
      <point x="-55" y="654" type="curve"/>
      <point x="6" y="650" type="line"/>
      <point x="9" y="704"/>
      <point x="25" y="739"/>
      <point x="58" y="739" type="curve"/>
      <point x="110" y="739"/>
      <point x="140" y="645"/>
    </contour>
  </outline>
</glyph>
<glyph name="imacron" format="2">
  <advance width="275" height="1000"/>
  <unicode hex="012B"/>
  <outline>
    <contour>
      <point x="92" y="0" type="line"/>
      <point x="184" y="0" type="line"/>
      <point x="184" y="543" type="line"/>
      <point x="92" y="543" type="line"/>
    </contour>
    <contour>
      <point x="-10" y="671" type="line"/>
      <point x="286" y="671" type="line"/>
      <point x="286" y="736" type="line"/>
      <point x="-10" y="736" type="line"/>
    </contour>
  </outline>
</glyph>
<glyph name="nacute" format="2">
  <advance width="610" height="1000"/>
  <unicode hex="0144"/>
  <outline>
    <contour>
      <point x="92" y="0" type="line"/>
      <point x="184" y="0" type="line"/>
      <point x="184" y="394" type="line"/>
      <point x="238" y="449"/>
      <point x="276" y="477"/>
      <point x="332" y="477" type="curve"/>
      <point x="404" y="477"/>
      <point x="435" y="434"/>
      <point x="435" y="332" type="curve"/>
      <point x="435" y="0" type="line"/>
      <point x="526" y="0" type="line"/>
      <point x="526" y="344" type="line"/>
      <point x="526" y="482"/>
      <point x="474" y="557"/>
      <point x="360" y="557" type="curve"/>
      <point x="286" y="557"/>
      <point x="229" y="516"/>
      <point x="178" y="464" type="curve"/>
      <point x="176" y="464" type="line"/>
      <point x="167" y="543" type="line"/>
      <point x="92" y="543" type="line"/>
    </contour>
    <contour>
      <point x="314" y="640" type="line"/>
      <point x="488" y="812" type="line"/>
      <point x="424" y="872" type="line"/>
      <point x="266" y="686" type="line"/>
    </contour>
  </outline>
</glyph>
<glyph name="Ncaron" format="2">
  <advance width="723" height="1000"/>
  <unicode hex="0147"/>
  <outline>
    <contour>
      <point x="101" y="0" type="line"/>
      <point x="188" y="0" type="line"/>
      <point x="188" y="385" type="line"/>
      <point x="188" y="462"/>
      <point x="181" y="540"/>
      <point x="177" y="614" type="curve"/>
      <point x="181" y="614" type="line"/>
      <point x="260" y="463" type="line"/>
      <point x="527" y="0" type="line"/>
      <point x="622" y="0" type="line"/>
      <point x="622" y="733" type="line"/>
      <point x="534" y="733" type="line"/>
      <point x="534" y="352" type="line"/>
      <point x="534" y="276"/>
      <point x="541" y="193"/>
      <point x="547" y="120" type="curve"/>
      <point x="542" y="120" type="line"/>
      <point x="463" y="271" type="line"/>
      <point x="195" y="733" type="line"/>
      <point x="101" y="733" type="line"/>
    </contour>
    <contour>
      <point x="325" y="789" type="line"/>
      <point x="421" y="789" type="line"/>
      <point x="537" y="915" type="line"/>
      <point x="498" y="944" type="line"/>
      <point x="375" y="841" type="line"/>
      <point x="371" y="841" type="line"/>
      <point x="248" y="944" type="line"/>
      <point x="208" y="915" type="line"/>
    </contour>
  </outline>
</glyph>
<glyph name="Obreve" format="2">
  <advance width="742" height="1000"/>
  <unicode hex="014E"/>
  <outline>
    <contour>
      <point x="371" y="-13" type="curve"/>
      <point x="555" y="-13"/>
      <point x="684" y="134"/>
      <point x="684" y="369" type="curve"/>
      <point x="684" y="604"/>
      <point x="555" y="746"/>
      <point x="371" y="746" type="curve"/>
      <point x="187" y="746"/>
      <point x="58" y="604"/>
      <point x="58" y="369" type="curve"/>
      <point x="58" y="134"/>
      <point x="187" y="-13"/>
    </contour>
    <contour>
      <point x="371" y="68" type="curve"/>
      <point x="239" y="68"/>
      <point x="153" y="186"/>
      <point x="153" y="369" type="curve"/>
      <point x="153" y="552"/>
      <point x="239" y="665"/>
      <point x="371" y="665" type="curve"/>
      <point x="503" y="665"/>
      <point x="589" y="552"/>
      <point x="589" y="369" type="curve"/>
      <point x="589" y="186"/>
      <point x="503" y="68"/>
    </contour>
    <contour>
      <point x="371" y="788" type="curve"/>
      <point x="474" y="788"/>
      <point x="525" y="854"/>
      <point x="534" y="932" type="curve"/>
      <point x="478" y="942" type="line"/>
      <point x="469" y="889"/>
      <point x="435" y="847"/>
      <point x="371" y="847" type="curve"/>
      <point x="307" y="847"/>
      <point x="273" y="889"/>
      <point x="264" y="942" type="curve"/>
      <point x="208" y="932" type="line"/>
      <point x="217" y="854"/>
      <point x="268" y="788"/>
    </contour>
  </outline>
</glyph>
<glyph name="obreve" format="2">
  <advance width="606" height="1000"/>
  <unicode hex="014F"/>
  <outline>
    <contour>
      <point x="303" y="-13" type="curve"/>
      <point x="436" y="-13"/>
      <point x="554" y="91"/>
      <point x="554" y="271" type="curve"/>
      <point x="554" y="452"/>
      <point x="436" y="557"/>
      <point x="303" y="557" type="curve"/>
      <point x="170" y="557"/>
      <point x="52" y="452"/>
      <point x="52" y="271" type="curve"/>
      <point x="52" y="91"/>
      <point x="170" y="-13"/>
    </contour>
    <contour>
      <point x="303" y="63" type="curve"/>
      <point x="209" y="63"/>
      <point x="146" y="146"/>
      <point x="146" y="271" type="curve"/>
      <point x="146" y="396"/>
      <point x="209" y="480"/>
      <point x="303" y="480" type="curve"/>
      <point x="397" y="480"/>
      <point x="461" y="396"/>
      <point x="461" y="271" type="curve"/>
      <point x="461" y="146"/>
      <point x="397" y="63"/>
    </contour>
    <contour>
      <point x="303" y="638" type="curve"/>
      <point x="423" y="638"/>
      <point x="471" y="724"/>
      <point x="477" y="807" type="curve"/>
      <point x="421" y="816" type="line"/>
      <point x="412" y="758"/>
      <point x="376" y="700"/>
      <point x="303" y="700" type="curve"/>
      <point x="230" y="700"/>
      <point x="194" y="758"/>
      <point x="186" y="816" type="curve"/>
      <point x="128" y="807" type="line"/>
      <point x="135" y="724"/>
      <point x="184" y="638"/>
    </contour>
  </outline>
</glyph>
<glyph name="Utilde" format="2">
  <advance width="721" height="1000"/>
  <unicode hex="0168"/>
  <outline>
    <contour>
      <point x="361" y="-13" type="curve"/>
      <point x="510" y="-13"/>
      <point x="624" y="67"/>
      <point x="624" y="302" type="curve"/>
      <point x="624" y="733" type="line"/>
      <point x="535" y="733" type="line"/>
      <point x="535" y="300" type="line"/>
      <point x="535" y="124"/>
      <point x="458" y="68"/>
      <point x="361" y="68" type="curve"/>
      <point x="265" y="68"/>
      <point x="190" y="124"/>
      <point x="190" y="300" type="curve"/>
      <point x="190" y="733" type="line"/>
      <point x="98" y="733" type="line"/>
      <point x="98" y="302" type="line"/>
      <point x="98" y="67"/>
      <point x="211" y="-13"/>
    </contour>
    <contour>
      <point x="444" y="792" type="curve"/>
      <point x="510" y="792"/>
      <point x="553" y="844"/>
      <point x="557" y="930" type="curve"/>
      <point x="496" y="934" type="line"/>
      <point x="490" y="886"/>
      <point x="469" y="860"/>
      <point x="441" y="860" type="curve"/>
      <point x="389" y="860"/>
      <point x="360" y="939"/>
      <point x="276" y="939" type="curve"/>
      <point x="209" y="939"/>
      <point x="167" y="887"/>
      <point x="162" y="803" type="curve"/>
      <point x="224" y="798" type="line"/>
      <point x="228" y="846"/>
      <point x="250" y="871"/>
      <point x="279" y="871" type="curve"/>
      <point x="330" y="871"/>
      <point x="360" y="792"/>
    </contour>
  </outline>
</glyph>
<glyph name="utilde" format="2">
  <advance width="607" height="1000"/>
  <unicode hex="0169"/>
  <outline>
    <contour>
      <point x="251" y="-13" type="curve"/>
      <point x="325" y="-13"/>
      <point x="379" y="26"/>
      <point x="430" y="85" type="curve"/>
      <point x="433" y="85" type="line"/>
      <point x="440" y="0" type="line"/>
      <point x="516" y="0" type="line"/>
      <point x="516" y="543" type="line"/>
      <point x="425" y="543" type="line"/>
      <point x="425" y="158" type="line"/>
      <point x="373" y="94"/>
      <point x="334" y="66"/>
      <point x="278" y="66" type="curve"/>
      <point x="206" y="66"/>
      <point x="176" y="109"/>
      <point x="176" y="210" type="curve"/>
      <point x="176" y="543" type="line"/>
      <point x="84" y="543" type="line"/>
      <point x="84" y="199" type="line"/>
      <point x="84" y="60"/>
      <point x="136" y="-13"/>
    </contour>
    <contour>
      <point x="384" y="645" type="curve"/>
      <point x="461" y="645"/>
      <point x="493" y="711"/>
      <point x="496" y="796" type="curve"/>
      <point x="435" y="799" type="line"/>
      <point x="431" y="748"/>
      <point x="416" y="712"/>
      <point x="383" y="712" type="curve"/>
      <point x="331" y="712"/>
      <point x="301" y="805"/>
      <point x="222" y="805" type="curve"/>
      <point x="145" y="805"/>
      <point x="112" y="741"/>
      <point x="109" y="654" type="curve"/>
      <point x="171" y="650" type="line"/>
      <point x="174" y="704"/>
      <point x="189" y="739"/>
      <point x="223" y="739" type="curve"/>
      <point x="274" y="739"/>
      <point x="305" y="645"/>
    </contour>
  </outline>
</glyph>
<glyph name="ubreve" format="2">
  <advance width="607" height="1000"/>
  <unicode hex="016D"/>
  <outline>
    <contour>
      <point x="251" y="-13" type="curve"/>
      <point x="325" y="-13"/>
      <point x="379" y="26"/>
      <point x="430" y="85" type="curve"/>
      <point x="433" y="85" type="line"/>
      <point x="440" y="0" type="line"/>
      <point x="516" y="0" type="line"/>
      <point x="516" y="543" type="line"/>
      <point x="425" y="543" type="line"/>
      <point x="425" y="158" type="line"/>
      <point x="373" y="94"/>
      <point x="334" y="66"/>
      <point x="278" y="66" type="curve"/>
      <point x="206" y="66"/>
      <point x="176" y="109"/>
      <point x="176" y="210" type="curve"/>
      <point x="176" y="543" type="line"/>
      <point x="84" y="543" type="line"/>
      <point x="84" y="199" type="line"/>
      <point x="84" y="60"/>
      <point x="136" y="-13"/>
    </contour>
    <contour>
      <point x="303" y="638" type="curve"/>
      <point x="422" y="638"/>
      <point x="471" y="724"/>
      <point x="478" y="807" type="curve"/>
      <point x="420" y="816" type="line"/>
      <point x="411" y="758"/>
      <point x="376" y="700"/>
      <point x="303" y="700" type="curve"/>
      <point x="230" y="700"/>
      <point x="194" y="758"/>
      <point x="185" y="816" type="curve"/>
      <point x="128" y="807" type="line"/>
      <point x="135" y="724"/>
      <point x="183" y="638"/>
    </contour>
  </outline>
</glyph>
<glyph name="Ohorn" format="2">
  <advance width="742" height="1000"/>
  <unicode hex="01A0"/>
  <outline>
    <contour>
      <point x="374" y="68" type="curve"/>
      <point x="243" y="68"/>
      <point x="156" y="186"/>
      <point x="156" y="369" type="curve"/>
      <point x="156" y="552"/>
      <point x="243" y="665"/>
      <point x="374" y="665" type="curve"/>
      <point x="506" y="665"/>
      <point x="592" y="552"/>
      <point x="592" y="369" type="curve"/>
      <point x="592" y="186"/>
      <point x="506" y="68"/>
    </contour>
    <contour>
      <point x="374" y="-13" type="curve"/>
      <point x="558" y="-13"/>
      <point x="687" y="134"/>
      <point x="687" y="369" type="curve"/>
      <point x="687" y="505"/>
      <point x="644" y="610"/>
      <point x="572" y="674" type="curve"/>
      <point x="647" y="694"/>
      <point x="692" y="737"/>
      <point x="692" y="810" type="curve"/>
      <point x="692" y="843"/>
      <point x="682" y="876"/>
      <point x="667" y="900" type="curve"/>
      <point x="594" y="868" type="line"/>
      <point x="605" y="850"/>
      <point x="610" y="826"/>
      <point x="610" y="804" type="curve"/>
      <point x="610" y="753"/>
      <point x="581" y="724"/>
      <point x="518" y="712" type="curve"/>
      <point x="476" y="734"/>
      <point x="427" y="746"/>
      <point x="374" y="746" type="curve"/>
      <point x="190" y="746"/>
      <point x="61" y="604"/>
      <point x="61" y="369" type="curve"/>
      <point x="61" y="134"/>
      <point x="190" y="-13"/>
    </contour>
  </outline>
</glyph>
<glyph name="Icaron" format="2">
  <advance width="293" height="1000"/>
  <unicode hex="01CF"/>
  <outline>
    <contour>
      <point x="101" y="0" type="line"/>
      <point x="193" y="0" type="line"/>
      <point x="193" y="733" type="line"/>
      <point x="101" y="733" type="line"/>
    </contour>
    <contour>
      <point x="99" y="789" type="line"/>
      <point x="195" y="789" type="line"/>
      <point x="313" y="915" type="line"/>
      <point x="272" y="944" type="line"/>
      <point x="150" y="841" type="line"/>
      <point x="145" y="841" type="line"/>
      <point x="22" y="944" type="line"/>
      <point x="-17" y="915" type="line"/>
    </contour>
  </outline>
</glyph>
<glyph name="icaron" format="2">
  <advance width="275" height="1000"/>
  <unicode hex="01D0"/>
  <outline>
    <contour>
      <point x="92" y="642" type="line"/>
      <point x="184" y="642" type="line"/>
      <point x="311" y="797" type="line"/>
      <point x="272" y="833" type="line"/>
      <point x="140" y="707" type="line"/>
      <point x="136" y="707" type="line"/>
      <point x="4" y="833" type="line"/>
      <point x="-35" y="797" type="line"/>
    </contour>
    <contour>
      <point x="92" y="0" type="line"/>
      <point x="184" y="0" type="line"/>
      <point x="184" y="543" type="line"/>
      <point x="92" y="543" type="line"/>
    </contour>
  </outline>
</glyph>
<glyph name="ucaron" format="2">
  <advance width="607" height="1000"/>
  <unicode hex="01D4"/>
  <outline>
    <contour>
      <point x="251" y="-13" type="curve"/>
      <point x="325" y="-13"/>
      <point x="379" y="26"/>
      <point x="430" y="85" type="curve"/>
      <point x="433" y="85" type="line"/>
      <point x="440" y="0" type="line"/>
      <point x="516" y="0" type="line"/>
      <point x="516" y="543" type="line"/>
      <point x="425" y="543" type="line"/>
      <point x="425" y="158" type="line"/>
      <point x="373" y="94"/>
      <point x="334" y="66"/>
      <point x="278" y="66" type="curve"/>
      <point x="206" y="66"/>
      <point x="176" y="109"/>
      <point x="176" y="210" type="curve"/>
      <point x="176" y="543" type="line"/>
      <point x="84" y="543" type="line"/>
      <point x="84" y="199" type="line"/>
      <point x="84" y="60"/>
      <point x="136" y="-13"/>
    </contour>
    <contour>
      <point x="257" y="642" type="line"/>
      <point x="348" y="642" type="line"/>
      <point x="476" y="797" type="line"/>
      <point x="436" y="833" type="line"/>
      <point x="305" y="707" type="line"/>
      <point x="301" y="707" type="line"/>
      <point x="169" y="833" type="line"/>
      <point x="130" y="797" type="line"/>
    </contour>
  </outline>
</glyph>
<glyph name="udieresisacute" format="2">
  <advance width="607" height="1000"/>
  <unicode hex="01D8"/>
  <outline>
    <contour>
      <point x="251" y="-13" type="curve"/>
      <point x="325" y="-13"/>
      <point x="379" y="26"/>
      <point x="430" y="85" type="curve"/>
      <point x="433" y="85" type="line"/>
      <point x="440" y="0" type="line"/>
      <point x="516" y="0" type="line"/>
      <point x="516" y="543" type="line"/>
      <point x="425" y="543" type="line"/>
      <point x="425" y="158" type="line"/>
      <point x="373" y="94"/>
      <point x="334" y="66"/>
      <point x="278" y="66" type="curve"/>
      <point x="206" y="66"/>
      <point x="176" y="109"/>
      <point x="176" y="210" type="curve"/>
      <point x="176" y="543" type="line"/>
      <point x="84" y="543" type="line"/>
      <point x="84" y="199" type="line"/>
      <point x="84" y="60"/>
      <point x="136" y="-13"/>
    </contour>
    <contour>
      <point x="195" y="658" type="curve"/>
      <point x="224" y="658"/>
      <point x="246" y="680"/>
      <point x="246" y="707" type="curve"/>
      <point x="246" y="736"/>
      <point x="224" y="758"/>
      <point x="195" y="758" type="curve"/>
      <point x="167" y="758"/>
      <point x="145" y="736"/>
      <point x="145" y="707" type="curve"/>
      <point x="145" y="680"/>
      <point x="167" y="658"/>
    </contour>
    <contour>
      <point x="294" y="787" type="line"/>
      <point x="401" y="905" type="line"/>
      <point x="348" y="943" type="line"/>
      <point x="256" y="814" type="line"/>
    </contour>
    <contour>
      <point x="410" y="658" type="curve"/>
      <point x="439" y="658"/>
      <point x="461" y="680"/>
      <point x="461" y="707" type="curve"/>
      <point x="461" y="736"/>
      <point x="439" y="758"/>
      <point x="410" y="758" type="curve"/>
      <point x="382" y="758"/>
      <point x="360" y="736"/>
      <point x="360" y="707" type="curve"/>
      <point x="360" y="680"/>
      <point x="382" y="658"/>
    </contour>
  </outline>
</glyph>
<glyph name="Udieresiscaron" format="2">
  <advance width="721" height="1000"/>
  <unicode hex="01D9"/>
  <outline>
    <contour>
      <point x="361" y="-13" type="curve"/>
      <point x="510" y="-13"/>
      <point x="624" y="67"/>
      <point x="624" y="302" type="curve"/>
      <point x="624" y="733" type="line"/>
      <point x="535" y="733" type="line"/>
      <point x="535" y="300" type="line"/>
      <point x="535" y="124"/>
      <point x="458" y="68"/>
      <point x="361" y="68" type="curve"/>
      <point x="265" y="68"/>
      <point x="190" y="124"/>
      <point x="190" y="300" type="curve"/>
      <point x="190" y="733" type="line"/>
      <point x="98" y="733" type="line"/>
      <point x="98" y="302" type="line"/>
      <point x="98" y="67"/>
      <point x="211" y="-13"/>
    </contour>
    <contour>
      <point x="245" y="800" type="curve"/>
      <point x="275" y="800"/>
      <point x="296" y="821"/>
      <point x="296" y="850" type="curve"/>
      <point x="296" y="880"/>
      <point x="275" y="900"/>
      <point x="245" y="900" type="curve"/>
      <point x="216" y="900"/>
      <point x="195" y="880"/>
      <point x="195" y="850" type="curve"/>
      <point x="195" y="821"/>
      <point x="216" y="800"/>
    </contour>
    <contour>
      <point x="475" y="800" type="curve"/>
      <point x="504" y="800"/>
      <point x="525" y="821"/>
      <point x="525" y="850" type="curve"/>
      <point x="525" y="880"/>
      <point x="504" y="900"/>
      <point x="475" y="900" type="curve"/>
      <point x="446" y="900"/>
      <point x="424" y="880"/>
      <point x="424" y="850" type="curve"/>
      <point x="424" y="821"/>
      <point x="446" y="800"/>
    </contour>
    <contour>
      <point x="320" y="937" type="line"/>
      <point x="400" y="937" type="line"/>
      <point x="510" y="1045" type="line"/>
      <point x="473" y="1076" type="line"/>
      <point x="363" y="990" type="line"/>
      <point x="358" y="990" type="line"/>
      <point x="246" y="1076" type="line"/>
      <point x="209" y="1045" type="line"/>
    </contour>
  </outline>
</glyph>
<glyph name="Udieresisgrave" format="2">
  <advance width="721" height="1000"/>
  <unicode hex="01DB"/>
  <outline>
    <contour>
      <point x="361" y="-13" type="curve"/>
      <point x="510" y="-13"/>
      <point x="624" y="67"/>
      <point x="624" y="302" type="curve"/>
      <point x="624" y="733" type="line"/>
      <point x="535" y="733" type="line"/>
      <point x="535" y="300" type="line"/>
      <point x="535" y="124"/>
      <point x="458" y="68"/>
      <point x="361" y="68" type="curve"/>
      <point x="265" y="68"/>
      <point x="190" y="124"/>
      <point x="190" y="300" type="curve"/>
      <point x="190" y="733" type="line"/>
      <point x="98" y="733" type="line"/>
      <point x="98" y="302" type="line"/>
      <point x="98" y="67"/>
      <point x="211" y="-13"/>
    </contour>
    <contour>
      <point x="245" y="800" type="curve"/>
      <point x="275" y="800"/>
      <point x="296" y="821"/>
      <point x="296" y="850" type="curve"/>
      <point x="296" y="880"/>
      <point x="275" y="900"/>
      <point x="245" y="900" type="curve"/>
      <point x="216" y="900"/>
      <point x="195" y="880"/>
      <point x="195" y="850" type="curve"/>
      <point x="195" y="821"/>
      <point x="216" y="800"/>
    </contour>
    <contour>
      <point x="361" y="920" type="line"/>
      <point x="402" y="948" type="line"/>
      <point x="296" y="1082" type="line"/>
      <point x="237" y="1041" type="line"/>
    </contour>
    <contour>
      <point x="475" y="800" type="curve"/>
      <point x="504" y="800"/>
      <point x="525" y="821"/>
      <point x="525" y="850" type="curve"/>
      <point x="525" y="880"/>
      <point x="504" y="900"/>
      <point x="475" y="900" type="curve"/>
      <point x="446" y="900"/>
      <point x="424" y="880"/>
      <point x="424" y="850" type="curve"/>
      <point x="424" y="821"/>
      <point x="446" y="800"/>
    </contour>
  </outline>
</glyph>
<glyph name="Ngrave" format="2">
  <advance width="723" height="1000"/>
  <unicode hex="01F8"/>
  <outline>
    <contour>
      <point x="101" y="0" type="line"/>
      <point x="188" y="0" type="line"/>
      <point x="188" y="385" type="line"/>
      <point x="188" y="462"/>
      <point x="181" y="540"/>
      <point x="177" y="614" type="curve"/>
      <point x="181" y="614" type="line"/>
      <point x="260" y="463" type="line"/>
      <point x="527" y="0" type="line"/>
      <point x="622" y="0" type="line"/>
      <point x="622" y="733" type="line"/>
      <point x="534" y="733" type="line"/>
      <point x="534" y="352" type="line"/>
      <point x="534" y="276"/>
      <point x="541" y="193"/>
      <point x="547" y="120" type="curve"/>
      <point x="542" y="120" type="line"/>
      <point x="463" y="271" type="line"/>
      <point x="195" y="733" type="line"/>
      <point x="101" y="733" type="line"/>
    </contour>
    <contour>
      <point x="391" y="779" type="line"/>
      <point x="433" y="825" type="line"/>
      <point x="275" y="970" type="line"/>
      <point x="223" y="907" type="line"/>
    </contour>
  </outline>
</glyph>
<glyph name="alpha" format="2">
  <advance width="625" height="1000"/>
  <unicode hex="0251"/>
  <outline>
    <contour>
      <point x="277" y="-13" type="curve"/>
      <point x="345" y="-13"/>
      <point x="403" y="24"/>
      <point x="444" y="66" type="curve"/>
      <point x="447" y="66" type="line"/>
      <point x="456" y="8"/>
      <point x="485" y="-13"/>
      <point x="533" y="-13" type="curve"/>
      <point x="554" y="-13"/>
      <point x="569" y="-9"/>
      <point x="582" y="-5" type="curve"/>
      <point x="570" y="65" type="line"/>
      <point x="560" y="63"/>
      <point x="557" y="63"/>
      <point x="552" y="63" type="curve"/>
      <point x="538" y="63"/>
      <point x="528" y="74"/>
      <point x="528" y="102" type="curve"/>
      <point x="528" y="543" type="line"/>
      <point x="454" y="543" type="line"/>
      <point x="446" y="490" type="line"/>
      <point x="444" y="490" type="line"/>
      <point x="396" y="534"/>
      <point x="351" y="557"/>
      <point x="290" y="557" type="curve"/>
      <point x="164" y="557"/>
      <point x="53" y="447"/>
      <point x="53" y="271" type="curve"/>
      <point x="53" y="90"/>
      <point x="141" y="-13"/>
    </contour>
    <contour>
      <point x="297" y="64" type="curve"/>
      <point x="202" y="64"/>
      <point x="147" y="141"/>
      <point x="147" y="272" type="curve"/>
      <point x="147" y="396"/>
      <point x="217" y="480"/>
      <point x="304" y="480" type="curve"/>
      <point x="349" y="480"/>
      <point x="391" y="464"/>
      <point x="436" y="423" type="curve"/>
      <point x="436" y="138" type="line"/>
      <point x="391" y="88"/>
      <point x="347" y="64"/>
    </contour>
  </outline>
</glyph>
<glyph name="gscript" format="2">
  <advance width="620" height="1000"/>
  <unicode hex="0261"/>
  <outline>
    <contour>
      <point x="288" y="-246" type="curve"/>
      <point x="441" y="-246"/>
      <point x="528" y="-162"/>
      <point x="528" y="-24" type="curve"/>
      <point x="528" y="543" type="line"/>
      <point x="453" y="543" type="line"/>
      <point x="444" y="493" type="line"/>
      <point x="441" y="493" type="line"/>
      <point x="396" y="534"/>
      <point x="351" y="557"/>
      <point x="290" y="557" type="curve"/>
      <point x="165" y="557"/>
      <point x="53" y="449"/>
      <point x="53" y="279" type="curve"/>
      <point x="53" y="108"/>
      <point x="141" y="5"/>
      <point x="277" y="5" type="curve"/>
      <point x="341" y="5"/>
      <point x="397" y="38"/>
      <point x="438" y="79" type="curve"/>
      <point x="436" y="-24" type="line"/>
      <point x="435" y="-114"/>
      <point x="387" y="-173"/>
      <point x="288" y="-173" type="curve"/>
      <point x="235" y="-173"/>
      <point x="179" y="-158"/>
      <point x="126" y="-123" type="curve"/>
      <point x="92" y="-186" type="line"/>
      <point x="150" y="-225"/>
      <point x="219" y="-246"/>
    </contour>
    <contour>
      <point x="297" y="81" type="curve"/>
      <point x="202" y="81"/>
      <point x="147" y="158"/>
      <point x="147" y="279" type="curve"/>
      <point x="147" y="398"/>
      <point x="216" y="480"/>
      <point x="304" y="480" type="curve"/>
      <point x="349" y="480"/>
      <point x="391" y="464"/>
      <point x="436" y="423" type="curve"/>
      <point x="436" y="156" type="line"/>
      <point x="391" y="106"/>
      <point x="347" y="81"/>
    </contour>
  </outline>
</glyph>
<glyph name="caronmod" format="2">
  <advance width="600" height="1000"/>
  <unicode hex="02C7"/>
  <outline>
    <contour>
      <point x="300" y="426" type="line"/>
      <point x="551" y="818" type="line"/>
      <point x="457" y="818" type="line"/>
      <point x="300" y="555" type="line"/>
      <point x="137" y="818" type="line"/>
      <point x="47" y="818" type="line"/>
    </contour>
  </outline>
</glyph>
<glyph name="macronmod" format="2">
  <advance width="1000" height="1000"/>
  <unicode hex="02C9"/>
  <outline>
    <contour>
      <point x="310" y="658" type="line"/>
      <point x="689" y="658" type="line"/>
      <point x="689" y="706" type="line"/>
      <point x="310" y="706" type="line"/>
    </contour>
  </outline>
</glyph>
<glyph name="acutemod" format="2">
  <advance width="600" height="1000"/>
  <unicode hex="02CA"/>
  <outline>
    <contour>
      <point x="484" y="804" type="line"/>
      <point x="174" y="495" type="line"/>
      <point x="116" y="560" type="line"/>
      <point x="444" y="851" type="line"/>
    </contour>
  </outline>
</glyph>
<glyph name="gravemod" format="2">
  <advance width="600" height="1000"/>
  <unicode hex="02CB"/>
  <outline>
    <contour>
      <point x="450" y="478" type="line"/>
      <point x="496" y="525" type="line"/>
      <point x="166" y="817" type="line"/>
      <point x="108" y="756" type="line"/>
    </contour>
  </outline>
</glyph>
<glyph name="dotaccentmod" format="2">
  <advance width="500" height="1000"/>
  <unicode hex="02D9"/>
  <outline>
    <contour>
      <point x="251" y="290" type="curve"/>
      <point x="308" y="291"/>
      <point x="343" y="333"/>
      <point x="343" y="382" type="curve"/>
      <point x="343" y="432"/>
      <point x="308" y="478"/>
      <point x="250" y="479" type="curve"/>
      <point x="193" y="479"/>
      <point x="157" y="431"/>
      <point x="157" y="382" type="curve"/>
      <point x="158" y="334"/>
      <point x="195" y="291"/>
    </contour>
  </outline>
</glyph>
<glyph name="yangdepartingtonemod-bopo" format="2">
  <advance width="600" height="1000"/>
  <unicode hex="02EB"/>
  <anchor x="0" y="0" name="top"/>
  <anchor x="0" y="0" name="Anchor_3"/>
  <outline>
    <contour>
      <point x="165" y="840" type="line"/>
      <point x="165" y="333" type="line"/>
      <point x="243" y="333" type="line"/>
      <point x="243" y="568" type="line"/>
      <point x="480" y="568" type="line"/>
      <point x="480" y="644" type="line"/>
      <point x="243" y="644" type="line"/>
      <point x="243" y="840" type="line"/>
    </contour>
  </outline>
</glyph>
<glyph name="gravecomb" format="2">
  <advance width="0" height="1000"/>
  <unicode hex="0300"/>
  <anchor x="0" y="0" name="top"/>
  <anchor x="0" y="0" name="Anchor_3"/>
  <outline>
    <contour>
      <point x="496" y="425" type="line"/>
      <point x="450" y="378" type="line"/>
      <point x="108" y="656" type="line"/>
      <point x="166" y="717" type="line"/>
    </contour>
  </outline>
</glyph>
<glyph name="macroncomb" format="2">
  <advance width="0" height="1000"/>
  <unicode hex="0304"/>
  <outline>
    <contour>
      <point x="-148" y="671" type="line"/>
      <point x="148" y="671" type="line"/>
      <point x="148" y="736" type="line"/>
      <point x="-148" y="736" type="line"/>
    </contour>
  </outline>
</glyph>
<glyph name="caroncomb" format="2">
  <advance width="0" height="1000"/>
  <unicode hex="030C"/>
  <anchor x="0" y="0" name="top"/>
  <anchor x="0" y="0" name="Anchor_3"/>
  <outline>
    <contour>
      <point x="551" y="718" type="line"/>
      <point x="300" y="326" type="line"/>
      <point x="47" y="718" type="line"/>
      <point x="137" y="718" type="line"/>
      <point x="300" y="455" type="line"/>
      <point x="457" y="718" type="line"/>
    </contour>
  </outline>
</glyph>
<glyph name="Delta-grek" format="2">
  <advance width="656" height="1000"/>
  <unicode hex="0394"/>
  <outline>
    <contour>
      <point x="33" y="0" type="line"/>
      <point x="623" y="0" type="line"/>
      <point x="623" y="56" type="line"/>
      <point x="381" y="733" type="line"/>
      <point x="276" y="733" type="line"/>
      <point x="33" y="56" type="line"/>
    </contour>
    <contour>
      <point x="133" y="79" type="line"/>
      <point x="248" y="414" type="line"/>
      <point x="325" y="650" type="line"/>
      <point x="330" y="650" type="line"/>
      <point x="406" y="414" type="line"/>
      <point x="521" y="79" type="line"/>
    </contour>
  </outline>
</glyph>
<glyph name="Epsilon-grek" format="2">
  <advance width="589" height="1000"/>
  <unicode hex="0395"/>
  <outline>
    <contour>
      <point x="101" y="0" type="line"/>
      <point x="534" y="0" type="line"/>
      <point x="534" y="79" type="line"/>
      <point x="193" y="79" type="line"/>
      <point x="193" y="346" type="line"/>
      <point x="471" y="346" type="line"/>
      <point x="471" y="425" type="line"/>
      <point x="193" y="425" type="line"/>
      <point x="193" y="655" type="line"/>
      <point x="523" y="655" type="line"/>
      <point x="523" y="733" type="line"/>
      <point x="101" y="733" type="line"/>
    </contour>
  </outline>
</glyph>
<glyph name="Zeta-grek" format="2">
  <advance width="603" height="1000"/>
  <unicode hex="0396"/>
  <outline>
    <contour>
      <point x="50" y="0" type="line"/>
      <point x="556" y="0" type="line"/>
      <point x="556" y="79" type="line"/>
      <point x="164" y="79" type="line"/>
      <point x="551" y="678" type="line"/>
      <point x="551" y="733" type="line"/>
      <point x="85" y="733" type="line"/>
      <point x="85" y="655" type="line"/>
      <point x="437" y="655" type="line"/>
      <point x="50" y="56" type="line"/>
    </contour>
  </outline>
</glyph>
<glyph name="Eta-grek" format="2">
  <advance width="728" height="1000"/>
  <unicode hex="0397"/>
  <outline>
    <contour>
      <point x="101" y="0" type="line"/>
      <point x="193" y="0" type="line"/>
      <point x="193" y="346" type="line"/>
      <point x="535" y="346" type="line"/>
      <point x="535" y="0" type="line"/>
      <point x="628" y="0" type="line"/>
      <point x="628" y="733" type="line"/>
      <point x="535" y="733" type="line"/>
      <point x="535" y="426" type="line"/>
      <point x="193" y="426" type="line"/>
      <point x="193" y="733" type="line"/>
      <point x="101" y="733" type="line"/>
    </contour>
  </outline>
</glyph>
<glyph name="Iota-grek" format="2">
  <advance width="293" height="1000"/>
  <unicode hex="0399"/>
  <outline>
    <contour>
      <point x="101" y="0" type="line"/>
      <point x="193" y="0" type="line"/>
      <point x="193" y="733" type="line"/>
      <point x="101" y="733" type="line"/>
    </contour>
  </outline>
</glyph>
<glyph name="Xi-grek" format="2">
  <advance width="595" height="1000"/>
  <unicode hex="039E"/>
  <outline>
    <contour>
      <point x="55" y="0" type="line"/>
      <point x="541" y="0" type="line"/>
      <point x="541" y="79" type="line"/>
      <point x="55" y="79" type="line"/>
    </contour>
    <contour>
      <point x="139" y="346" type="line"/>
      <point x="457" y="346" type="line"/>
      <point x="457" y="425" type="line"/>
      <point x="139" y="425" type="line"/>
    </contour>
    <contour>
      <point x="66" y="655" type="line"/>
      <point x="530" y="655" type="line"/>
      <point x="530" y="733" type="line"/>
      <point x="66" y="733" type="line"/>
    </contour>
  </outline>
</glyph>
<glyph name="Rho-grek" format="2">
  <advance width="633" height="1000"/>
  <unicode hex="03A1"/>
  <outline>
    <contour>
      <point x="101" y="0" type="line"/>
      <point x="193" y="0" type="line"/>
      <point x="193" y="292" type="line"/>
      <point x="314" y="292" type="line"/>
      <point x="475" y="292"/>
      <point x="584" y="363"/>
      <point x="584" y="518" type="curve"/>
      <point x="584" y="678"/>
      <point x="474" y="733"/>
      <point x="310" y="733" type="curve"/>
      <point x="101" y="733" type="line"/>
    </contour>
    <contour>
      <point x="193" y="367" type="line"/>
      <point x="193" y="658" type="line"/>
      <point x="298" y="658" type="line"/>
      <point x="427" y="658"/>
      <point x="492" y="625"/>
      <point x="492" y="518" type="curve"/>
      <point x="492" y="413"/>
      <point x="431" y="367"/>
      <point x="302" y="367" type="curve"/>
    </contour>
  </outline>
</glyph>
<glyph name="Psi-grek" format="2">
  <advance width="780" height="1000"/>
  <unicode hex="03A8"/>
  <outline>
    <contour>
      <point x="346" y="0" type="line"/>
      <point x="433" y="0" type="line"/>
      <point x="433" y="274" type="line"/>
      <point x="606" y="281"/>
      <point x="709" y="365"/>
      <point x="709" y="553" type="curve"/>
      <point x="709" y="733" type="line"/>
      <point x="618" y="733" type="line"/>
      <point x="618" y="557" type="line"/>
      <point x="618" y="417"/>
      <point x="556" y="354"/>
      <point x="433" y="348" type="curve"/>
      <point x="433" y="733" type="line"/>
      <point x="346" y="733" type="line"/>
      <point x="346" y="349" type="line"/>
      <point x="224" y="355"/>
      <point x="161" y="417"/>
      <point x="161" y="557" type="curve"/>
      <point x="161" y="733" type="line"/>
      <point x="71" y="733" type="line"/>
      <point x="71" y="553" type="line"/>
      <point x="71" y="366"/>
      <point x="173" y="281"/>
      <point x="346" y="274" type="curve"/>
    </contour>
  </outline>
</glyph>
<glyph name="alpha-grek" format="2">
  <advance width="625" height="1000"/>
  <unicode hex="03B1"/>
  <outline>
    <contour>
      <point x="260" y="-13" type="curve"/>
      <point x="331" y="-13"/>
      <point x="388" y="24"/>
      <point x="429" y="97" type="curve"/>
      <point x="433" y="97" type="line"/>
      <point x="433" y="22"/>
      <point x="476" y="-13"/>
      <point x="540" y="-13" type="curve"/>
      <point x="572" y="-13"/>
      <point x="595" y="-6"/>
      <point x="609" y="1" type="curve"/>
      <point x="596" y="71" type="line"/>
      <point x="585" y="66"/>
      <point x="571" y="63"/>
      <point x="559" y="63" type="curve"/>
      <point x="529" y="63"/>
      <point x="505" y="82"/>
      <point x="505" y="119" type="curve"/>
      <point x="505" y="218"/>
      <point x="544" y="400"/>
      <point x="573" y="543" type="curve"/>
      <point x="483" y="543" type="line"/>
      <point x="460" y="414" type="line"/>
      <point x="457" y="414" type="line"/>
      <point x="427" y="517"/>
      <point x="357" y="557"/>
      <point x="290" y="557" type="curve"/>
      <point x="164" y="557"/>
      <point x="52" y="448"/>
      <point x="52" y="262" type="curve"/>
      <point x="52" y="83"/>
      <point x="137" y="-13"/>
    </contour>
    <contour>
      <point x="279" y="64" type="curve"/>
      <point x="195" y="64"/>
      <point x="146" y="136"/>
      <point x="146" y="263" type="curve"/>
      <point x="146" y="406"/>
      <point x="220" y="480"/>
      <point x="299" y="480" type="curve"/>
      <point x="350" y="480"/>
      <point x="406" y="453"/>
      <point x="436" y="335" type="curve"/>
      <point x="427" y="232" type="line"/>
      <point x="421" y="140"/>
      <point x="350" y="64"/>
    </contour>
  </outline>
</glyph>
<glyph name="gamma-grek" format="2">
  <advance width="540" height="1000"/>
  <unicode hex="03B3"/>
  <outline>
    <contour>
      <point x="220" y="-200" type="curve"/>
      <point x="313" y="-200" type="line"/>
      <point x="313" y="-137"/>
      <point x="310" y="-60"/>
      <point x="302" y="5" type="curve"/>
      <point x="436" y="223"/>
      <point x="489" y="360"/>
      <point x="517" y="543" type="curve"/>
      <point x="426" y="543" type="line"/>
      <point x="414" y="391"/>
      <point x="353" y="244"/>
      <point x="283" y="108" type="curve"/>
      <point x="278" y="108" type="line"/>
      <point x="246" y="277"/>
      <point x="166" y="462"/>
      <point x="98" y="557" type="curve"/>
      <point x="7" y="533" type="line"/>
      <point x="116" y="389"/>
      <point x="225" y="116"/>
      <point x="225" y="-65" type="curve"/>
      <point x="225" y="-125"/>
      <point x="224" y="-150"/>
    </contour>
  </outline>
</glyph>
<glyph name="zeta-grek" format="2">
  <advance width="473" height="1000"/>
  <unicode hex="03B6"/>
  <outline>
    <contour>
      <point x="401" y="-205" type="line"/>
      <point x="446" y="-144"/>
      <point x="465" y="-89"/>
      <point x="465" y="-56" type="curve"/>
      <point x="465" y="18"/>
      <point x="416" y="44"/>
      <point x="311" y="64" type="curve"/>
      <point x="211" y="83"/>
      <point x="148" y="124"/>
      <point x="148" y="253" type="curve"/>
      <point x="148" y="405"/>
      <point x="313" y="624"/>
      <point x="451" y="722" type="curve"/>
      <point x="456" y="722" type="line"/>
      <point x="456" y="796" type="line"/>
      <point x="88" y="796" type="line"/>
      <point x="88" y="722" type="line"/>
      <point x="160" y="726"/>
      <point x="292" y="727"/>
      <point x="354" y="728" type="curve"/>
      <point x="217" y="624"/>
      <point x="54" y="416"/>
      <point x="54" y="249" type="curve"/>
      <point x="54" y="70"/>
      <point x="149" y="13"/>
      <point x="258" y="-9" type="curve"/>
      <point x="361" y="-30"/>
      <point x="383" y="-44"/>
      <point x="383" y="-77" type="curve"/>
      <point x="383" y="-107"/>
      <point x="368" y="-127"/>
      <point x="328" y="-176" type="curve"/>
    </contour>
  </outline>
</glyph>
<glyph name="eta-grek" format="2">
  <advance width="604" height="1000"/>
  <unicode hex="03B7"/>
  <outline>
    <contour>
      <point x="428" y="-200" type="curve"/>
      <point x="520" y="-200" type="line"/>
      <point x="520" y="344" type="line"/>
      <point x="520" y="482"/>
      <point x="477" y="557"/>
      <point x="372" y="557" type="curve"/>
      <point x="292" y="557"/>
      <point x="233" y="515"/>
      <point x="178" y="429" type="curve"/>
      <point x="176" y="429" type="line"/>
      <point x="167" y="543" type="line"/>
      <point x="84" y="543" type="line"/>
      <point x="91" y="486"/>
      <point x="92" y="438"/>
      <point x="92" y="394" type="curve"/>
      <point x="92" y="0" type="line"/>
      <point x="184" y="0" type="line"/>
      <point x="184" y="355" type="line"/>
      <point x="244" y="447"/>
      <point x="285" y="477"/>
      <point x="345" y="477" type="curve"/>
      <point x="409" y="477"/>
      <point x="434" y="434"/>
      <point x="434" y="332" type="curve"/>
      <point x="434" y="176"/>
      <point x="432" y="-23"/>
    </contour>
  </outline>
</glyph>
<glyph name="theta-grek" format="2">
  <advance width="583" height="1000"/>
  <unicode hex="03B8"/>
  <outline>
    <contour>
      <point x="292" y="-13" type="curve"/>
      <point x="431" y="-13"/>
      <point x="517" y="115"/>
      <point x="517" y="401" type="curve"/>
      <point x="517" y="667"/>
      <point x="431" y="809"/>
      <point x="292" y="809" type="curve"/>
      <point x="152" y="809"/>
      <point x="67" y="667"/>
      <point x="67" y="401" type="curve"/>
      <point x="67" y="115"/>
      <point x="152" y="-13"/>
    </contour>
    <contour>
      <point x="292" y="63" type="curve"/>
      <point x="217" y="63"/>
      <point x="161" y="140"/>
      <point x="156" y="370" type="curve"/>
      <point x="427" y="370" type="line"/>
      <point x="422" y="140"/>
      <point x="367" y="63"/>
    </contour>
    <contour>
      <point x="156" y="435" type="line"/>
      <point x="162" y="647"/>
      <point x="218" y="734"/>
      <point x="292" y="734" type="curve"/>
      <point x="366" y="734"/>
      <point x="421" y="647"/>
      <point x="427" y="435" type="curve"/>
    </contour>
  </outline>
</glyph>
<glyph name="kappa-grek" format="2">
  <advance width="551" height="1000"/>
  <unicode hex="03BA"/>
  <outline>
    <contour>
      <point x="454" y="-9" type="curve"/>
      <point x="555" y="0" type="line"/>
      <point x="472" y="89"/>
      <point x="383" y="225"/>
      <point x="329" y="332" type="curve"/>
      <point x="396" y="405"/>
      <point x="458" y="451"/>
      <point x="518" y="470" type="curve"/>
      <point x="510" y="557" type="line"/>
      <point x="393" y="528"/>
      <point x="272" y="395"/>
      <point x="186" y="246" type="curve"/>
      <point x="182" y="246" type="line"/>
      <point x="182" y="416" type="line"/>
      <point x="182" y="464"/>
      <point x="179" y="514"/>
      <point x="172" y="543" type="curve"/>
      <point x="81" y="543" type="line"/>
      <point x="91" y="495"/>
      <point x="92" y="438"/>
      <point x="92" y="394" type="curve"/>
      <point x="92" y="0" type="line"/>
      <point x="177" y="0" type="line"/>
      <point x="177" y="28" type="line"/>
      <point x="179" y="99"/>
      <point x="189" y="156"/>
      <point x="222" y="200" type="curve"/>
      <point x="273" y="267" type="line"/>
      <point x="325" y="166"/>
      <point x="397" y="58"/>
    </contour>
  </outline>
</glyph>
<glyph name="lamda-grek" format="2">
  <advance width="552" height="1000"/>
  <unicode hex="03BB"/>
  <outline>
    <contour>
      <point x="115" y="-9" type="line"/>
      <point x="292" y="451" type="line"/>
      <point x="297" y="451" type="line"/>
      <point x="447" y="0" type="line"/>
      <point x="544" y="0" type="line"/>
      <point x="338" y="574" type="line"/>
      <point x="289" y="730"/>
      <point x="236" y="809"/>
      <point x="128" y="809" type="curve"/>
      <point x="80" y="809"/>
      <point x="51" y="801"/>
      <point x="25" y="790" type="curve"/>
      <point x="49" y="713" type="line"/>
      <point x="68" y="723"/>
      <point x="88" y="732"/>
      <point x="118" y="732" type="curve"/>
      <point x="180" y="732"/>
      <point x="217" y="678"/>
      <point x="247" y="578" type="curve"/>
      <point x="254" y="555" type="line"/>
      <point x="18" y="0" type="line"/>
    </contour>
  </outline>
</glyph>
<glyph name="xi-grek" format="2">
  <advance width="481" height="1000"/>
  <unicode hex="03BE"/>
  <outline>
    <contour>
      <point x="409" y="-205" type="line"/>
      <point x="454" y="-144"/>
      <point x="473" y="-89"/>
      <point x="473" y="-56" type="curve"/>
      <point x="473" y="18"/>
      <point x="431" y="44"/>
      <point x="323" y="64" type="curve"/>
      <point x="223" y="82"/>
      <point x="149" y="111"/>
      <point x="149" y="219" type="curve"/>
      <point x="149" y="325"/>
      <point x="241" y="386"/>
      <point x="334" y="386" type="curve"/>
      <point x="362" y="386"/>
      <point x="383" y="385"/>
      <point x="412" y="379" type="curve"/>
      <point x="412" y="457" type="line"/>
      <point x="383" y="451"/>
      <point x="368" y="450"/>
      <point x="340" y="450" type="curve"/>
      <point x="274" y="450"/>
      <point x="201" y="508"/>
      <point x="201" y="587" type="curve"/>
      <point x="201" y="673"/>
      <point x="265" y="722"/>
      <point x="337" y="722" type="curve"/>
      <point x="464" y="722" type="line"/>
      <point x="464" y="796" type="line"/>
      <point x="32" y="796" type="line"/>
      <point x="32" y="722" type="line"/>
      <point x="99" y="726"/>
      <point x="129" y="727"/>
      <point x="189" y="728" type="curve"/>
      <point x="138" y="701"/>
      <point x="108" y="652"/>
      <point x="108" y="590" type="curve"/>
      <point x="108" y="512"/>
      <point x="156" y="456"/>
      <point x="222" y="428" type="curve"/>
      <point x="222" y="424" type="line"/>
      <point x="132" y="398"/>
      <point x="55" y="315"/>
      <point x="55" y="207" type="curve"/>
      <point x="55" y="64"/>
      <point x="151" y="14"/>
      <point x="267" y="-9" type="curve"/>
      <point x="366" y="-29"/>
      <point x="391" y="-44"/>
      <point x="391" y="-77" type="curve"/>
      <point x="391" y="-107"/>
      <point x="376" y="-127"/>
      <point x="336" y="-176" type="curve"/>
    </contour>
  </outline>
</glyph>
<glyph name="pi-grek" format="2">
  <advance width="654" height="1000"/>
  <unicode hex="03C0"/>
  <outline>
    <contour>
      <point x="542" y="-13" type="curve"/>
      <point x="573" y="-13"/>
      <point x="598" y="-7"/>
      <point x="616" y="-1" type="curve"/>
      <point x="603" y="69" type="line"/>
      <point x="583" y="65"/>
      <point x="569" y="63"/>
      <point x="560" y="63" type="curve"/>
      <point x="526" y="63"/>
      <point x="509" y="78"/>
      <point x="509" y="116" type="curve"/>
      <point x="509" y="169"/>
      <point x="510" y="344"/>
      <point x="517" y="468" type="curve"/>
      <point x="626" y="468" type="line"/>
      <point x="626" y="543" type="line"/>
      <point x="103" y="543" type="line"/>
      <point x="25" y="538" type="line"/>
      <point x="25" y="468" type="line"/>
      <point x="151" y="468" type="line"/>
      <point x="151" y="321"/>
      <point x="137" y="153"/>
      <point x="112" y="0" type="curve"/>
      <point x="204" y="-5" type="line"/>
      <point x="219" y="147"/>
      <point x="235" y="315"/>
      <point x="235" y="468" type="curve"/>
      <point x="430" y="468" type="line"/>
      <point x="428" y="348"/>
      <point x="423" y="179"/>
      <point x="423" y="122" type="curve"/>
      <point x="423" y="35"/>
      <point x="456" y="-13"/>
    </contour>
  </outline>
</glyph>
<glyph name="rho-grek" format="2">
  <advance width="613" height="1000"/>
  <unicode hex="03C1"/>
  <outline>
    <contour>
      <point x="87" y="-200" type="line"/>
      <point x="179" y="-200" type="line"/>
      <point x="178" y="-103"/>
      <point x="176" y="-34"/>
      <point x="173" y="64" type="curve"/>
      <point x="222" y="6"/>
      <point x="278" y="-13"/>
      <point x="337" y="-13" type="curve"/>
      <point x="451" y="-13"/>
      <point x="561" y="94"/>
      <point x="561" y="280" type="curve"/>
      <point x="561" y="451"/>
      <point x="478" y="557"/>
      <point x="327" y="557" type="curve"/>
      <point x="195" y="557"/>
      <point x="87" y="466"/>
      <point x="87" y="278" type="curve"/>
    </contour>
    <contour>
      <point x="322" y="64" type="curve"/>
      <point x="274" y="64"/>
      <point x="226" y="76"/>
      <point x="174" y="137" type="curve"/>
      <point x="174" y="275" type="line"/>
      <point x="174" y="413"/>
      <point x="244" y="480"/>
      <point x="323" y="480" type="curve"/>
      <point x="424" y="480"/>
      <point x="467" y="400"/>
      <point x="467" y="279" type="curve"/>
      <point x="467" y="145"/>
      <point x="402" y="64"/>
    </contour>
  </outline>
</glyph>
<glyph name="finalsigma-grek" format="2">
  <advance width="482" height="1000"/>
  <unicode hex="03C2"/>
  <outline>
    <contour>
      <point x="352" y="-201" type="line"/>
      <point x="398" y="-140"/>
      <point x="422" y="-79"/>
      <point x="422" y="-42" type="curve"/>
      <point x="422" y="33"/>
      <point x="389" y="62"/>
      <point x="300" y="91" type="curve"/>
      <point x="217" y="118"/>
      <point x="146" y="156"/>
      <point x="146" y="284" type="curve"/>
      <point x="146" y="402"/>
      <point x="209" y="480"/>
      <point x="299" y="480" type="curve"/>
      <point x="342" y="480"/>
      <point x="372" y="461"/>
      <point x="403" y="433" type="curve"/>
      <point x="450" y="493" type="line"/>
      <point x="413" y="527"/>
      <point x="366" y="557"/>
      <point x="295" y="557" type="curve"/>
      <point x="163" y="557"/>
      <point x="52" y="459"/>
      <point x="52" y="284" type="curve"/>
      <point x="52" y="106"/>
      <point x="158" y="50"/>
      <point x="259" y="16" type="curve"/>
      <point x="323" y="-3"/>
      <point x="339" y="-26"/>
      <point x="339" y="-62" type="curve"/>
      <point x="339" y="-93"/>
      <point x="318" y="-123"/>
      <point x="280" y="-172" type="curve"/>
    </contour>
  </outline>
</glyph>
<glyph name="sigma-grek" format="2">
  <advance width="609" height="1000"/>
  <unicode hex="03C3"/>
  <outline>
    <contour>
      <point x="295" y="-13" type="curve"/>
      <point x="428" y="-13"/>
      <point x="532" y="85"/>
      <point x="532" y="254" type="curve"/>
      <point x="532" y="356"/>
      <point x="491" y="432"/>
      <point x="425" y="470" type="curve"/>
      <point x="425" y="474" type="line"/>
      <point x="485" y="473"/>
      <point x="535" y="470"/>
      <point x="596" y="465" type="curve"/>
      <point x="596" y="543" type="line"/>
      <point x="299" y="543" type="line"/>
      <point x="171" y="543"/>
      <point x="52" y="456"/>
      <point x="52" y="265" type="curve"/>
      <point x="52" y="86"/>
      <point x="163" y="-13"/>
    </contour>
    <contour>
      <point x="295" y="63" type="curve"/>
      <point x="209" y="63"/>
      <point x="146" y="140"/>
      <point x="146" y="265" type="curve"/>
      <point x="146" y="402"/>
      <point x="211" y="467"/>
      <point x="297" y="467" type="curve"/>
      <point x="390" y="467"/>
      <point x="443" y="371"/>
      <point x="443" y="261" type="curve"/>
      <point x="443" y="139"/>
      <point x="382" y="63"/>
    </contour>
  </outline>
</glyph>
<glyph name="tau-grek" format="2">
  <advance width="514" height="1000"/>
  <unicode hex="03C4"/>
  <outline>
    <contour>
      <point x="322" y="-13" type="curve"/>
      <point x="356" y="-13"/>
      <point x="387" y="-6"/>
      <point x="409" y="1" type="curve"/>
      <point x="395" y="71" type="line"/>
      <point x="377" y="66"/>
      <point x="360" y="63"/>
      <point x="342" y="63" type="curve"/>
      <point x="312" y="63"/>
      <point x="297" y="78"/>
      <point x="297" y="116" type="curve"/>
      <point x="297" y="226"/>
      <point x="298" y="346"/>
      <point x="301" y="469" type="curve"/>
      <point x="485" y="469" type="line"/>
      <point x="485" y="543" type="line"/>
      <point x="106" y="543" type="line"/>
      <point x="29" y="538" type="line"/>
      <point x="29" y="469" type="line"/>
      <point x="211" y="469" type="line"/>
      <point x="211" y="122" type="line"/>
      <point x="211" y="35"/>
      <point x="240" y="-13"/>
    </contour>
  </outline>
</glyph>
